<svg xmlns="http://www.w3.org/2000/svg" width="253.851" height="264.843" viewBox="0 0 253.851 264.843">
  <g id="Group_1" data-name="Group 1" transform="translate(-484.467 -312.099)">
    <path id="Path_1" data-name="Path 1" d="M241.9,70.95v-.94h0v-.217h0a13.956,13.956,0,0,0-5.206-9.69h0l-.325-.217h0a13.884,13.884,0,0,0-8.46-2.892h-.832a14.064,14.064,0,0,0-2.567.4h0a13.848,13.848,0,0,0-3.616,1.482h0a14.1,14.1,0,0,0-3.4,2.784h0l-.506.615h0l-.253.325-2.965-1.482h0l-3.109-1.555h0l-1.374-.687-8.027-4.049-1.193-.506-7.737-3.977h0l-1.88-.94h0l-2.133-1.085-1.338-.687h0l-1.555-.759-1.374-.687-2.82-1.41-11.642-5.857-11.425-5.749h0l-3.073-1.555h0l-3.869-1.952-4.483-2.242-2.712-1.374-3.616-1.772-10.847-5.46a13.921,13.921,0,0,0,.832-3.869v-.4h0v-.434h0v-.362h0v-.506h0v-.47h0v-.723h0v-.47h0v-.47h0l-.217-.687h0V9.991h0V9.557h0V9.34h0l-.217-.434h0l-.217-.4h0l-.217-.4h0V7.93h0l-1.519-.615h0l-.181-.289h0V6.846h0a14.1,14.1,0,0,0-1.265-1.519l-.4-.362h0a13.92,13.92,0,0,0-7.629-3.616H115.39a13.956,13.956,0,0,0-9.22,3.941l-.434.506-.217.253a14.065,14.065,0,0,0-1.265,1.772,13.884,13.884,0,0,0-1.627,10.088v.94l-26.9,13.775h0l-1.121.578-1.374.687h0l-2.169,1.085-19.271,9.8-2.567,1.3L36.39,52.728h0L23.265,59.417,22.9,59.6,8.441,66.829l-.759.4L5.44,68.347H16.287L46.116,53.162l5.5-2.459,3.073-1.555,6.147-3.109L61.88,45.5l4.447-2.278,5.279-2.712h.217l3.109-1.591h0l4.845-2.676h0l2.459-1.265L84.3,33.927h0l7.231-3.616,10.16-5.279,2.856-1.446.542-.289h0a14.177,14.177,0,0,0,2.061,1.916h0l.651.47h0a13.848,13.848,0,0,0,5.026,2.061h8.28l.362-.217h0l.325-.253h0l.289-.325h.362l14.86,7.484,1.735.868h.217l1.7.868,2.1,1.049h0l2.242,1.121h.325l1.591.8h0l12.474,6.291,6.472,3.254h.289l7.231,3.616h0l2.025,1.012,2.495,1.265h0l2.169,1.085h0l3.8,1.916,17.789,8.967h0l1.265.651h0l5.46,2.748h0a1.5,1.5,0,0,1-.217.94h0a14.464,14.464,0,0,0-.253,1.772h0v.434h0v.542a13.955,13.955,0,0,0,.253,2.6h0a13.918,13.918,0,0,0,.362,1.482h0v.253l.181.506a7.076,7.076,0,0,0,.434.976l.217.434.325.579.253.434.615.9.289.4.4.506.325.362.759.759.362.325.506.4.4.289h.217l.651.434h0l.434.253h.253l.434.217h1.265a13.883,13.883,0,0,0,3.616.687h1.808A13.992,13.992,0,0,0,233.4,79.809h0v-.253h0a13.848,13.848,0,0,0,1.88-6.87ZM125.3,15.089h0v.578h0a8.931,8.931,0,0,1-.542,1.808h0a9.007,9.007,0,0,1-.506,1.012h0l-.4.615h0l-.325.434h0l-.362.434h0l-.253.253h0l-.4.362h0l-.289.217h0l-.289.217h0l-.47.325h0l-.289.181h0l-.47.253h0l-.759.253h-.723a9,9,0,0,1-1.555,0h-.651a8.967,8.967,0,0,1-2.206-.434h-1.663l-.362-.217h-.253l-.325-.217-.253-.181-1.555.8-.723-.723-.217-.253-.217-.253a9,9,0,0,1-1.952-5.6h0v-.4h0V13.86h0a9.039,9.039,0,0,1,3.977-6.544l.542-.325h.217l.289-.217H113.8a9,9,0,0,1,2.133-.868h1.555l1.085.253h.289l.832.325a9.039,9.039,0,0,1,2.314,1.446l.253.217.362.325a9.039,9.039,0,0,1,1.88,2.82h0l.253.687h0a1.4,1.4,0,0,0,.217.723h0v.325h0v.325h0v1.193h0v.362h0V15.2ZM236.947,70.95v.181h0a8.966,8.966,0,0,1-.289,2.061v.723a9.039,9.039,0,0,1-1.663,2.892l-.8.832h0l-.9.687a9,9,0,0,1-1.952.976h-5.134l-1.157.325h0l-.651-.4-1.012-.542h-.217l-.9-.651h0a8.822,8.822,0,0,1-2.314-3l-.325-.759V74.06a8.858,8.858,0,0,1-.506-2.892v-2.6h0a1.349,1.349,0,0,1,.289-.8,9.039,9.039,0,0,1,1.736-2.676l.4-.4.217-.217.4-.325.253-.181.434-.289h.253l.47-.253h.217l.759-.325h0l.723-.253h2.748a8.967,8.967,0,0,1,3.616.723h.8a9.039,9.039,0,0,1,4.339,7.7Z" transform="translate(496.418 310.749)" fill="#ce2f69"/>
    <path id="Path_2" data-name="Path 2" d="M236.186,203.3H217.313V189.7h26.9V180.23h-26.9v-11.9h29.323V98.518H202.381v1.555h0v21.694H217.1a5.569,5.569,0,0,1-.325,1.338c-.108.434-.253.723-.362,1.085l-.325.759-.362.687-.217.434c-.217.362-.434.687-.651,1.012a14.027,14.027,0,0,1-1.121,1.338h0l-.253.253-.253.253h-.181l-.434.362h0l-.362.289h0l-.325.253h0l-.868.542-.868.47h-.217l-1.3.578h0l-1.193.434h0l-1.265.4h0l-1.446.325h0l-1.916.289h-5.893l-2.314-.289h-.615l-1.519-.362h-.47l-.832.4h0l-1.7-.651h0l-1.446-.759-.4-.217h-.506a24.117,24.117,0,0,1-2.856-2.35h0c-.434-.434-.868-.868-1.265-1.338l-.9-1.085-.217-.253c-.325-.434-.615-.868-.9-1.338s-1.88-2.314-1.88-2.856l-.47-.976a27.08,27.08,0,0,1-2.278-6.255c-.289-1.374-.47-2.676-.651-3.9v-2.061h0v-3h0v-4.592a20.119,20.119,0,0,1,.289-4.122v-.4a5.531,5.531,0,0,1,.289-2.133v-.687a8.316,8.316,0,0,1,.362-1.844c.145-.615.542-2.206.94-3.326h0l.325-.94h0v-.253c0-.362.289-.687.434-1.012a20.934,20.934,0,0,1,2.856-4.881l.434-.542a18.078,18.078,0,0,1,6.291-4.7,22.164,22.164,0,0,1,9.184-1.808H198.8a15.908,15.908,0,0,1,3.616.651l1.193.434h.181a15.872,15.872,0,0,1,3.869,2.314h0l.4.651h0l.362.325h0l.362.362h0a15.15,15.15,0,0,1,2.892,3.76l.4.832v.253a16.489,16.489,0,0,1,1.049,3.616h32a63.886,63.886,0,0,0-2.35-8.894h0l-.4-1.049v-.506h0l-.723-1.808h0l-.362-.832L241,73.787h0l-.4-.687h0l-.579-1.157h0V71.69l-.687-1.3v-.217q-1.049-1.844-2.242-3.616l-.506-.687-.542-.759-.615-.8-.615-.4h0V63.7l-.9-1.049h0a43.389,43.389,0,0,0-4.411-4.23c-.94-.8-1.916-1.519-2.929-2.242h0a42.485,42.485,0,0,0-4.845-2.856h0l-1.012-.506h0q-1.446-.687-2.929-1.265h0l-.578-.217-.687-.253h0l-3.579-1.627h-.832l-.759-.217h0a58.1,58.1,0,0,0-7.882-1.41h-1.3c-2.133-.181-4.339-.289-6.617-.289a51.592,51.592,0,0,0-6.327.4h0l-1.663.217h-.434l-1.482.253h-1.157l-.868.181h-.8l-1.229.289h0l-2.6.759h0l-1.952.615-1.338.506h-.434l-1.121.434h0c-1.193.506-2.35,1.049-3.616,1.627H170.2l-.542.289h0l-.434.253h0l-.9.506-.723.434h-.253l-.289.181-.94.615-1.446,1.591-.723.506-1.049.759h0c-1.157.868-2.278,1.772-3.4,2.784h0a46.785,46.785,0,0,0-6.906,7.846h0l-.289.4h0q-1.085,1.555-2.1,3.254h0l-.578,1.012c-.94,1.663-1.844,3.4-2.676,5.243-.217.506-.434,1.012-.651,1.555V59.65h0v-9.8H111.087v72.312a31.6,31.6,0,0,0-.434-3.218h0l-.217-.8v-.615h0q-.253-1.049-.542-2.061h0l-.217-.759-.253-.651c-.253-.687-.542-1.338-.832-1.989h0a26.472,26.472,0,0,0-1.916-3.616h0q-.542-.813-1.085-1.519h0a23.356,23.356,0,0,0-6-5.387,33.3,33.3,0,0,0-7.231-3.363,32.179,32.179,0,0,0,6.8-4.953h0l1.3-1.338.289-.325c.434-.506.832-.976,1.229-1.519s.542-.759.8-1.157l.253-.434.434-.8v-.289h0a18.982,18.982,0,0,0,1.265-3.616v-.434a4.151,4.151,0,0,1,.289-1.482v-1.7h0V77.186h0v-.47h0V74.763h0a5.9,5.9,0,0,0-.217-1.916h0a2.791,2.791,0,0,0-.253-1.41h0c-.217-1.049-.47-2.1-.759-3.218a3.446,3.446,0,0,0-.325-.976h0V66.99l-.217-.578L103.2,65.4v-.217h0a20.645,20.645,0,0,0-1.085-1.989h0l-.723-1.085h0l-.253-.362h0l-.253-.362v-.4h0l-.362-.47-.94-.723h0l-.506-.542-.759-.759-.289-.253-.253-.253h0a25.056,25.056,0,0,0-2.892-2.169h0l-.325-.217-.4-.253h0l-1.808-1.012h0l-.615-.325h0l-1.3-.651h0l-1.88-.8a45.918,45.918,0,0,0-15.619-2.6H70.664V45.621H54.756v-8.5H69.218V33.039H54.756v-7.52H70.375V21.18H49.766V49.852h-2.82V47.827h0V21.18H41.92V32.605H28.868V21.18H.63v4.339H9.705V49.852h0V94.4h0V213.711H21.89v-24.08H44.379v6.906h0v17.029H56.6V187.9a34.458,34.458,0,0,0,.651,5.243h0v1.555l.217.8a6.049,6.049,0,0,0,.579,1.844h0v.253l.542,1.338h0v.289l.47,1.049h0v.289l.362.723h0a25.96,25.96,0,0,0,2.856,4.23h0v.181h0l.181.217.217.217h0l.832.8h0l.217.181.687.615.8.651.47.362.253.217h0a16.089,16.089,0,0,0,1.844,1.193h0l.651.362.325.181h0a19.657,19.657,0,0,0,1.952.976,24.4,24.4,0,0,0,3.616,1.229h0a30.263,30.263,0,0,0,7.954,1.012H84.3l1.989-.181h.542l1.446-.253h.4a25.31,25.31,0,0,0,4.013-1.193h0l.542-.217h.687l.578-.289h0a25.308,25.308,0,0,0,4.628-3.073h0l.362-.325.434-.362h0c.47-.434.94-.868,1.374-1.338h0v-.181l.434-.506h0a19.934,19.934,0,0,0,1.229-1.591v-.253h0a23.067,23.067,0,0,0,1.229-1.989h0a28.926,28.926,0,0,0,2.061-4.556,32.975,32.975,0,0,0,1.808-9.039v-.687h0v.687h0v4.3a24.188,24.188,0,0,0,3.616,13.775h0a16.018,16.018,0,0,0,2.495,2.892h.181l.47.4h0l.868.651h.217a21.151,21.151,0,0,0,9,3.037h.542l.8.217h1.229a33.011,33.011,0,0,0,3.616.506h5.387a34.462,34.462,0,0,0,5.6-.651h0l.976-.217h.542a24.226,24.226,0,0,0,3.326-1.157h.362l.723-.362.615-.325.759-.434.542-.325.8-.542.4-.289,1.157-.9h0a16.2,16.2,0,0,0,2.422-2.712h0l.253-.362c.253-.362.47-.687.687-1.049l.362-.651.434-.868h0l.325-.832h0v-.47l.362-1.085.253-.868V199.5h0v-.832h0a29.393,29.393,0,0,0,.506-3.616,20.246,20.246,0,0,0,.615,5.315v.615h0l.181.579h0v.181h0a14.682,14.682,0,0,0,.8,1.844c.253.47.506.9.8,1.338h0v.217h0l.47.615.4.542h0a18.081,18.081,0,0,0,1.446,1.627h0a17.279,17.279,0,0,0,1.916,1.7,22.525,22.525,0,0,0,7.593,3.616l.9.217h.687a34.167,34.167,0,0,0,7.231.8h6.544a26.8,26.8,0,0,0,3.29-.8l1.157-.4h0l1.591-.651h0l.976-.47h0a18.943,18.943,0,0,0,3.363-2.133,16.524,16.524,0,0,0,1.265-1.157h0l1.736-.109.506-.542.325-.362.434-.542.289-.434v-.253h0l.4-.615h0l.506-.94h0l.289-.615a16.885,16.885,0,0,0,1.446-6.725v16.162h42.23V203.3ZM64.988,36.366ZM45.355,90.744V75.631H65.06a15.475,15.475,0,0,1,6.147,1.591l.578.362h0a5.64,5.64,0,0,1,1.085.94h0a6.544,6.544,0,0,1,1.41,4.52,7.629,7.629,0,0,1-3.037,7.231,10.63,10.63,0,0,1-2.169.976,19.7,19.7,0,0,1-6.183.868H45.355ZM28.868,39.113a4.519,4.519,0,0,0,0-.542V36.908H41.92V49.852H28.868ZM29.41,135.975ZM21.13,49.852h-6.4V25.519h9.111V49.852Zm23.248,110.71v18.8H21.89V157.922H44.379Zm5.387-28.238H45.355V112.149H71.134l.723.217h0l.687.253h0l1.121.542.832.542h0l.687.578h0L75.8,115l.325.47.289.434.253.506a10.847,10.847,0,0,1,1.229,5.026h0v.325a11.931,11.931,0,0,1-.615,3.833,7.232,7.232,0,0,1-.434.976l-.325.506-.253.434-.362.47a7.955,7.955,0,0,1-1.41,1.338h0l-.542.4h0l-1.157.615a12.761,12.761,0,0,1-3,.976H67.736a27.238,27.238,0,0,1-2.82,0Zm18.078,29.214-1.049.8-.651.542-.868.8h0l-.4.362h0l-1.049,1.085-.181.217h0v.217h0v.217h0a26.429,26.429,0,0,0-1.772,2.567h0l-.615,1.085v.289h0l-.253.506v.325l-.434,1.012v.4h0l-.289.8h0l-.217.578a31.423,31.423,0,0,0-.9,3.29h0v.325h0c-.217.94-.362,1.916-.506,2.892h0c0,1.049-.253,2.061-.289,3.146V157.922H76.449a24.012,24.012,0,0,0-2.459.94h-.976l-.651.4-1.157.723ZM89.538,214.289Zm9.147-26.828v2.459a6.508,6.508,0,0,1-.362,2.133v.8a19.851,19.851,0,0,1-.687,2.206v.47h0v.217h0v.4a17.5,17.5,0,0,1-1.338,2.35,13.161,13.161,0,0,1-2.676,2.893l-.47.362-.325.217-1.193.759h0a14.245,14.245,0,0,1-7.014,1.591,13.2,13.2,0,0,1-8.533-2.567l-.47-.362a13.089,13.089,0,0,1-1.88-1.88c-.289-.325-.542-.687-.8-1.012a17.393,17.393,0,0,1-1.085-1.88l-1.193-.145v-.434l-.217-.542v-.434l-.181-.579v-1.627a1.956,1.956,0,0,0-.217-1.085v-1.627a28.708,28.708,0,0,1-.289-3.869v-.181h0a30.407,30.407,0,0,1,.832-7.231l.217-.8a19.451,19.451,0,0,1,1.121-3l.362-.759.253-.506.651-1.049h0l-.723-.362h0l.434-.542h0l.362-.434.976-.976.289-.253.325-.253.325-.253h0a13.957,13.957,0,0,1,1.482-.94h.325l.542-.253a13.126,13.126,0,0,1,3.29-.94h2.82a16.343,16.343,0,0,1,4.628.615h0l.9.325h0l1.265.615.325.217.4.253a13.661,13.661,0,0,1,1.157.832h0a13.05,13.05,0,0,1,1.157,1.049l.253.253h0a13.344,13.344,0,0,1,1.085,1.41,12.19,12.19,0,0,1,.687,1.157l.325.578.4.832.253.615a20.25,20.25,0,0,1,.94,2.892v1.3a4.1,4.1,0,0,0,.217,1.3,31.059,31.059,0,0,1,.325,4.483c.94.253.94.579.9,1.193Zm12.112-4.736h0a33.661,33.661,0,0,0-1.735-8.171l-.362-.94h0v-.289h0V173h0v-.362l-.578-1.3-.289-.542V170.5h0l-1.012-1.085h0v-.4h0l-.506-.8h0c-.362-.542-.759-1.085-1.157-1.627h0l-1.265-1.446a23.685,23.685,0,0,0-3.037-2.856h-.181l-.47-.362-.832-.578h0a25.962,25.962,0,0,0-4.013-2.242,27.7,27.7,0,0,0-10.847-2.242l2.856-.8h.4l.832-.289A39.34,39.34,0,0,0,94.925,153h0a36.442,36.442,0,0,0,4.375-2.856c.8-.615,1.519-1.265,2.242-1.916l.976-.976.47-.506.217-.217h0a30.142,30.142,0,0,0,1.916-2.35h0l.434-.615.253-.325h0a33.159,33.159,0,0,0,2.061-3.363h0v-.253h0q.4-.8.759-1.591h0c.181-.434.362-.868.542-1.338h0l.325-.9h0v-.289h0l.253-.9h0a31.927,31.927,0,0,0,.976-5.857v36.879h0V184.5a3.167,3.167,0,0,0,.253-1.772ZM175.878,165.045ZM135.745,136.518ZM132.129,118.62ZM128.152,153.656Zm64.032,48.3a7.629,7.629,0,0,1-2.712,2.133,12.15,12.15,0,0,1-3.616,1.049,24.222,24.222,0,0,1-3.616.289,19.086,19.086,0,0,1-2.278,0,17.175,17.175,0,0,1-2.422-.434,11.606,11.606,0,0,1-3.9-1.772,7.992,7.992,0,0,1-.94-.8h0a9.221,9.221,0,0,1-.8-1.121h0a8.493,8.493,0,0,1-.542-.832h0l-.181-.325h0a7.845,7.845,0,0,1-.362-.8v-.4a11.316,11.316,0,0,1-.506-3.616H158.343V194.3h0v-.868h0v-3.435h0v-32.07H146.266v.94h0v33.589a25.63,25.63,0,0,1,0,2.712,17.316,17.316,0,0,1-.47,2.567.951.951,0,0,1-.217.723v.506l-.217.542a8.5,8.5,0,0,1-1.3,2.133,6.326,6.326,0,0,1-1.229,1.085h-.253l-.47.289h-.325l-.506.217-.723.253-1.121.289H138.2a22.592,22.592,0,0,1-3.146.217h0a17.717,17.717,0,0,1-4.411-.47h0l-1.085-.362h-.289l-.47-.253a8.315,8.315,0,0,1-2.965-2.495,9.039,9.039,0,0,1-.868-1.482,9.22,9.22,0,0,1-.4-1.049v-.289a9.978,9.978,0,0,1-.253-1.085,25.02,25.02,0,0,1-.4-4.447V157.922h22.923V128.636h0v.289h0v.217h0v.217h0v.217h0v.253h0v.253h0v.217h0v.217h0v.253h0v.253h0v.289h0v.325h0v.289h0v.253h0l.325.615h0v.289h0v.289h0l3.037,2.856h0v.253h0l.579.9h0v.289h0l.4.615h0l.181.289h0l.615.868h0l.181.253h0l.181.253h0l.181.253h0v.253h0v.217h0v.217h0v.181h0v.181h0l.181.217a48.268,48.268,0,0,0,11.968,10.413h0l.651.4.868.578,1.012.651h0c.976.579,1.989,1.157,3.037,1.7h0l2.133,1.012h.217l2.531,1.049-1.41.325a20.861,20.861,0,0,0-6.689,3.109,16.487,16.487,0,0,0-4.411,4.447h0l-.506.8a14.462,14.462,0,0,0-1.844,7.412h0v.723h0v1.844h0v1.482h0v.506h0l.289.8.217.434v.217h0v.253a13.887,13.887,0,0,0,1.085,1.627l.289.4v.181h0a13.45,13.45,0,0,0,2.242,2.206,18.622,18.622,0,0,0,1.7,1.157h0l.542.289.94.506h0a21.694,21.694,0,0,0,2.1.94,52.864,52.864,0,0,0,6.074,1.916l1.049.289h0c1.663.47,3.326.868,4.953,1.229l.976.253a30.7,30.7,0,0,1,4.3,1.41,14.456,14.456,0,0,1,1.482.723h0l.578.325h.181l.362.253.542.4h0l.47.4h.181l.362.4h0l.289.4h0a4.627,4.627,0,0,1,.615,1.41,5.675,5.675,0,0,1,0,.651h0a6.145,6.145,0,0,1,0,.687A5.351,5.351,0,0,1,192.185,201.96Zm12.908-40.784v34.24a13.63,13.63,0,0,0-.832-3.8,14.462,14.462,0,0,0-.976-1.989h0l-.434-.651h0a12,12,0,0,0-.976-1.265,16.563,16.563,0,0,0-1.482-1.482h0l-.9-.759h0l-.9-.615-1.374-.868h0l-.651-.362-.687-.362h0l-1.157-.506A28.672,28.672,0,0,0,191.1,181.6l-2.639-.651-1.627-.4-3.109-.94-2.386-.651h-.217l-.8-.217h0a38.107,38.107,0,0,1-4.917-1.663h0l-.8-.4-.506-.325h0l-.506-.4h0l-.4-.434h0a4.086,4.086,0,0,1-.506-1.519h0v-1.049a5.279,5.279,0,0,1,.8-2.929l.47-.615a6.544,6.544,0,0,1,1.519-1.374l.8-.434a8.1,8.1,0,0,1,1.88-.651l1.374-.217h1.844a20.859,20.859,0,0,1,2.748.289h.542a10.846,10.846,0,0,1,2.314.759l.506.253.578.325.759.578h0l.651.651a7.231,7.231,0,0,1,.94,1.338,9.835,9.835,0,0,1,1.049,4.122h11.823a17.066,17.066,0,0,0-1.844-8.207,15.836,15.836,0,0,0-3.182-4.086h0a16.125,16.125,0,0,0-1.735-1.446l-.4-.253h2.531l1.916-.217h0a45.95,45.95,0,0,0,4.592-.9ZM215.541,137.6Zm-2.422,20.32h-3.254l.9-.325c.9-.362,1.808-.8,2.676-1.229h.217l.542-.289h0a30.84,30.84,0,0,0,4.7-3.109h.181l.615-.47h0a33.009,33.009,0,0,0,3.616-3.435h0l1.229-1.482.325,3.616h0l.217,2.422.325,3.616v.687ZM222.52,204.925Z" transform="translate(483.837 362.616)" fill="#ce2f69"/>
  </g>
</svg>
