<svg xmlns="http://www.w3.org/2000/svg" width="265.819" height="265.819" viewBox="0 0 265.819 265.819">
  <g id="Group_2" data-name="Group 2" transform="translate(-770.931 -311.701)">
    <rect id="Rectangle_1" data-name="Rectangle 1" width="265.819" height="265.819" transform="translate(770.931 311.701)" fill="#fff"/>
    <rect id="Rectangle_2" data-name="Rectangle 2" width="248.862" height="165.812" transform="translate(779.391 320.668)" fill="#039"/>
    <path id="Path_3" data-name="Path 3" d="M82.21,74.722V51.112H99.529v3.977H86.874v5.243H98.625v3.977H86.946v6.436h13.089v3.977Zm33.01,0V72.155a6.544,6.544,0,0,1-2.422,2.169,6.8,6.8,0,0,1-3.182.8,6.219,6.219,0,0,1-3.073-.759,4.447,4.447,0,0,1-1.952-2.133,9.509,9.509,0,0,1-.615-3.616V57.765h4.483v7.593a21.914,21.914,0,0,0,.253,4.411,2.386,2.386,0,0,0,.9,1.3,2.748,2.748,0,0,0,1.663.47,3.616,3.616,0,0,0,2.061-.651A3.218,3.218,0,0,0,114.57,69.3a18.476,18.476,0,0,0,.325-4.628V57.44h4.483v17.1Zm13.125,0h-4.483V57.62h4.158v2.422a7.231,7.231,0,0,1,1.916-2.278,3.616,3.616,0,0,1,1.952-.542,5.677,5.677,0,0,1,2.965.868l-1.374,3.941a3.941,3.941,0,0,0-2.1-.723,2.5,2.5,0,0,0-1.591.506,3.616,3.616,0,0,0-1.049,1.88,26.935,26.935,0,0,0-.362,5.713Zm7.231-8.786a9.292,9.292,0,0,1,1.085-4.375,7.593,7.593,0,0,1,3.109-3.218,9.22,9.22,0,0,1,4.52-1.121,8.46,8.46,0,0,1,6.327,2.531,8.75,8.75,0,0,1,2.459,6.363,8.858,8.858,0,0,1-2.495,6.436,8.388,8.388,0,0,1-6.255,2.567,9.8,9.8,0,0,1-4.447-1.049,7.231,7.231,0,0,1-3.218-3.109,10.413,10.413,0,0,1-1.085-4.99Zm4.592.253a5.676,5.676,0,0,0,1.193,3.9,3.9,3.9,0,0,0,5.893,0,5.785,5.785,0,0,0,1.193-3.941,5.677,5.677,0,0,0-1.193-3.869,3.9,3.9,0,0,0-5.893,0,5.676,5.676,0,0,0-1.193,3.9Zm16.306-8.533h4.52v2.495a6.291,6.291,0,0,1,2.206-2.1,6.038,6.038,0,0,1,3.073-.8,6.472,6.472,0,0,1,5.026,2.35,9.509,9.509,0,0,1,2.061,6.508,9.8,9.8,0,0,1-2.242,6.472,6.472,6.472,0,0,1-5.026,2.386,5.713,5.713,0,0,1-2.567-.579,8.569,8.569,0,0,1-2.531-1.808v8.605h-4.339Zm4.52,8.207a6.616,6.616,0,0,0,1.121,4.266,3.616,3.616,0,0,0,2.748,1.374,3.254,3.254,0,0,0,2.6-1.265,6.544,6.544,0,0,0,1.049-4.158A6.219,6.219,0,0,0,167.43,62.1a3.326,3.326,0,0,0-2.639-1.3,3.616,3.616,0,0,0-2.748,1.266,5.713,5.713,0,0,0-1.085,3.615Zm25.526,3.4,4.483.759a7.231,7.231,0,0,1-2.712,3.616,7.99,7.99,0,0,1-4.664,1.3,7.556,7.556,0,0,1-6.544-2.929,9.834,9.834,0,0,1-1.663-5.893,9.473,9.473,0,0,1,2.205-6.653,7.231,7.231,0,0,1,5.568-2.422,7.52,7.52,0,0,1,5.966,2.531,11.208,11.208,0,0,1,2.1,7.7H180.012A4.592,4.592,0,0,0,181.1,70.42a3.4,3.4,0,0,0,2.6,1.121,2.748,2.748,0,0,0,1.772-.578,3.616,3.616,0,0,0,1.085-1.88Zm.253-4.556a4.375,4.375,0,0,0-1.012-3,3.218,3.218,0,0,0-4.773,0,4.194,4.194,0,0,0-.94,2.929Zm11.5-1.88-4.086-.723a6.4,6.4,0,0,1,2.35-3.616,8.605,8.605,0,0,1,4.99-1.193,10.847,10.847,0,0,1,4.483.723,4.483,4.483,0,0,1,2.061,1.808,9.436,9.436,0,0,1,.615,4.049v5.1A18.369,18.369,0,0,0,208.9,72.3a9.691,9.691,0,0,0,.8,2.278h-4.447a3.573,3.573,0,0,0-.434-1.338V72.7a8.1,8.1,0,0,1-2.459,1.7,7.014,7.014,0,0,1-2.784.578,5.749,5.749,0,0,1-4.122-1.446,4.773,4.773,0,0,1-1.519-3.616,4.88,4.88,0,0,1,.687-2.567,4.483,4.483,0,0,1,1.916-1.735,15.077,15.077,0,0,1,3.616-1.049,24.226,24.226,0,0,0,4.23-1.012v-.434a2.35,2.35,0,0,0-.651-1.844,3.833,3.833,0,0,0-2.422-.542,3.218,3.218,0,0,0-1.88.47,3.29,3.29,0,0,0-1.085,1.663Zm6,3.616a27.7,27.7,0,0,1-2.748.687,8.207,8.207,0,0,0-2.459.8,1.88,1.88,0,0,0-.868,1.591,2.206,2.206,0,0,0,.687,1.627,2.422,2.422,0,0,0,1.808.687,3.869,3.869,0,0,0,2.314-.8,2.82,2.82,0,0,0,1.085-1.482,9.076,9.076,0,0,0,0-2.206Zm24.3,8.207h-4.483V65.972a13.668,13.668,0,0,0-.289-3.616,2.531,2.531,0,0,0-.94-1.265,2.676,2.676,0,0,0-1.555-.434,3.616,3.616,0,0,0-2.1.651,3.254,3.254,0,0,0-1.265,1.7,14.825,14.825,0,0,0-.325,3.941v7.737h-4.483V57.62h4.158v2.495a6.906,6.906,0,0,1,8.316-2.35,4.555,4.555,0,0,1,1.844,1.374,5.026,5.026,0,0,1,.868,1.916,14.246,14.246,0,0,1,.253,3.037ZM242.2,51.04h4.736V63.912a26.441,26.441,0,0,0,0,3.941,3.832,3.832,0,0,0,1.446,2.314,4.99,4.99,0,0,0,3.109.868,4.737,4.737,0,0,0,3.037-.832,3.29,3.29,0,0,0,1.229-2.025,26.836,26.836,0,0,0,.217-4.013V51.112h4.736v12.4a32.177,32.177,0,0,1-.4,6,6.689,6.689,0,0,1-1.41,2.965,7.231,7.231,0,0,1-2.748,1.916,11.894,11.894,0,0,1-4.519.723,12.872,12.872,0,0,1-5.1-.8,7.231,7.231,0,0,1-2.748-2.025,6.508,6.508,0,0,1-1.338-2.6,28.927,28.927,0,0,1-.47-6Zm39.085,23.61H276.8V65.972a13.633,13.633,0,0,0-.289-3.616,2.531,2.531,0,0,0-.94-1.265,2.676,2.676,0,0,0-1.555-.434,3.615,3.615,0,0,0-2.1.651,3.254,3.254,0,0,0-1.265,1.7,14.784,14.784,0,0,0-.326,3.941v7.737h-4.483V57.62H270v2.495a6.906,6.906,0,0,1,8.316-2.35,4.555,4.555,0,0,1,1.844,1.374,5.025,5.025,0,0,1,.868,1.916,14.241,14.241,0,0,1,.253,3.037Zm4.556-19.416V51.112h4.483v4.194Zm0,19.416V57.62h4.483v17.1Zm8.027-8.786a9.291,9.291,0,0,1,1.085-4.375,7.593,7.593,0,0,1,3.109-3.218,9.22,9.22,0,0,1,4.52-1.121,8.46,8.46,0,0,1,6.327,2.531,8.749,8.749,0,0,1,2.459,6.363,8.858,8.858,0,0,1-2.495,6.436,8.388,8.388,0,0,1-6.255,2.567,9.8,9.8,0,0,1-4.23-1.012,7.231,7.231,0,0,1-3.218-3.109,10.413,10.413,0,0,1-1.085-4.99Zm4.592.253a5.677,5.677,0,0,0,1.193,3.9,3.9,3.9,0,0,0,5.893,0,5.785,5.785,0,0,0,1.193-3.941,5.676,5.676,0,0,0-1.193-3.869,3.9,3.9,0,0,0-5.893,0A5.677,5.677,0,0,0,298.459,66.117Zm31.89,8.533h-4.483V65.972a13.636,13.636,0,0,0-.289-3.616,2.531,2.531,0,0,0-.94-1.265,2.675,2.675,0,0,0-1.555-.434,3.615,3.615,0,0,0-2.1.651,3.254,3.254,0,0,0-1.265,1.7,14.784,14.784,0,0,0-.325,3.941v7.737h-4.375V57.62h4.158v2.495a6.906,6.906,0,0,1,8.316-2.35,4.556,4.556,0,0,1,1.844,1.374,5.025,5.025,0,0,1,.868,1.916,14.232,14.232,0,0,1,.253,3.037Z" transform="translate(697.218 440.718)"/>
    <path id="Path_4" data-name="Path 4" d="M92.74,74.709V59.921h10.847v1.735H94.692v4.52h8.171v1.735H94.692v5.062h9.039v1.735Zm20.5,0V73.118a3.9,3.9,0,0,1-3.4,1.808,4.3,4.3,0,0,1-1.772-.362,2.893,2.893,0,0,1-1.229-.9,3.4,3.4,0,0,1-.542-1.338,9.11,9.11,0,0,1,0-1.7V64.006h1.844v5.93a10.591,10.591,0,0,0,0,1.916,1.88,1.88,0,0,0,.723,1.121,2.241,2.241,0,0,0,1.374.4,2.965,2.965,0,0,0,1.519-.4,2.35,2.35,0,0,0,1.012-1.157,5.785,5.785,0,0,0,.289-2.1V64.006h1.808V74.853Zm4.447,0V63.862h1.627v1.627a4.447,4.447,0,0,1,1.157-1.519,2.025,2.025,0,0,1,1.157-.362,3.616,3.616,0,0,1,1.844.578l-.615,1.7a2.6,2.6,0,0,0-1.338-.4,1.736,1.736,0,0,0-1.085.362,1.952,1.952,0,0,0-.687.976,7.232,7.232,0,0,0-.289,2.133v5.6Zm6.219-5.351a5.532,5.532,0,0,1,1.663-4.411,4.953,4.953,0,0,1,3.362-1.193,4.773,4.773,0,0,1,3.616,1.446,5.532,5.532,0,0,1,1.41,4.013,7.231,7.231,0,0,1-.615,3.254,4.375,4.375,0,0,1-1.808,1.844,5.243,5.243,0,0,1-2.567.651,4.809,4.809,0,0,1-3.616-1.446,5.785,5.785,0,0,1-1.374-4.158Zm1.88,0a4.592,4.592,0,0,0,.9,3.073,2.965,2.965,0,0,0,4.483,0,4.7,4.7,0,0,0,.9-3.146,4.447,4.447,0,0,0-.9-3,2.965,2.965,0,0,0-4.483,0,4.555,4.555,0,0,0-.9,3.073Zm10.268,9.4V63.934h1.663v1.41a4.086,4.086,0,0,1,1.3-1.229,3.615,3.615,0,0,1,1.772-.4,4.23,4.23,0,0,1,2.422.723,4.338,4.338,0,0,1,1.591,1.989,7.745,7.745,0,0,1-.036,5.785,4.447,4.447,0,0,1-1.7,2.025,4.375,4.375,0,0,1-2.35.687,3.4,3.4,0,0,1-1.627-.4,3.616,3.616,0,0,1-1.193-.976v5.206Zm1.627-9.4a4.664,4.664,0,0,0,.832,3.073,2.567,2.567,0,0,0,2.025.976,2.6,2.6,0,0,0,2.061-1.013,4.881,4.881,0,0,0,.868-3.182,4.736,4.736,0,0,0-.832-3.073,2.531,2.531,0,0,0-2.025-1.012,2.6,2.6,0,0,0-2.061,1.085,4.845,4.845,0,0,0-.9,3.146ZM154.82,71.2l1.88.217a4.592,4.592,0,0,1-1.627,2.567,5.423,5.423,0,0,1-6.689-.542,5.677,5.677,0,0,1-1.374-4.049,5.93,5.93,0,0,1,1.374-4.194A4.7,4.7,0,0,1,152,63.717a4.556,4.556,0,0,1,3.616,1.446,5.857,5.857,0,0,1,1.374,4.122v.47h-7.954a4.121,4.121,0,0,0,1.012,2.712,2.965,2.965,0,0,0,2.242.94,2.748,2.748,0,0,0,1.7-.542,3.615,3.615,0,0,0,1.121-1.663Zm-5.93-2.929h5.966a3.616,3.616,0,0,0-.687-2.025,2.784,2.784,0,0,0-2.242-1.049,2.892,2.892,0,0,0-2.1.832,3.327,3.327,0,0,0-.94,2.242Zm17.066,5.062A6.762,6.762,0,0,1,164,74.564a5.6,5.6,0,0,1-1.989.362,3.869,3.869,0,0,1-2.712-.868,2.856,2.856,0,0,1-.94-2.206,2.929,2.929,0,0,1,.362-1.446,2.965,2.965,0,0,1,.94-1.049,4.41,4.41,0,0,1,1.3-.578l1.627-.289a16.413,16.413,0,0,0,3.4-.578v-.47a2.025,2.025,0,0,0-.506-1.555,3.037,3.037,0,0,0-2.061-.615,3.182,3.182,0,0,0-1.88.434,2.748,2.748,0,0,0-.9,1.591l-1.772-.253a4.411,4.411,0,0,1,.8-1.844,3.616,3.616,0,0,1,1.591-1.085,7.232,7.232,0,0,1,2.422-.362,6.436,6.436,0,0,1,2.242.325,2.929,2.929,0,0,1,1.265.8,2.893,2.893,0,0,1,.579,1.229,10.453,10.453,0,0,1,0,1.663v2.422a25.666,25.666,0,0,0,0,3.218,4.049,4.049,0,0,0,.47,1.3h-1.88a3.832,3.832,0,0,1-.362-1.338Zm0-4.049a13.268,13.268,0,0,1-2.965.687,6.905,6.905,0,0,0-1.591.362,1.554,1.554,0,0,0-.723.578,1.627,1.627,0,0,0,.289,2.061,2.35,2.35,0,0,0,1.591.47,3.615,3.615,0,0,0,1.844-.47,2.856,2.856,0,0,0,1.193-1.265,4.447,4.447,0,0,0,.289-1.808Zm4.664,5.387V63.826h1.627v1.519a3.832,3.832,0,0,1,3.4-1.772,4.483,4.483,0,0,1,1.772.362,2.82,2.82,0,0,1,1.229.9,3.616,3.616,0,0,1,.578,1.338,10.526,10.526,0,0,1,0,1.772v6.58h-1.808V68.02a4.953,4.953,0,0,0-.217-1.663,1.772,1.772,0,0,0-.759-.868,2.386,2.386,0,0,0-1.265-.325,2.929,2.929,0,0,0-1.989.723,3.616,3.616,0,0,0-.832,2.784v5.857Zm17.463,0V59.921h6.544a8.678,8.678,0,0,1,3,.4,3.29,3.29,0,0,1,1.627,1.41,4.231,4.231,0,0,1,.615,2.242,3.616,3.616,0,0,1-1.012,2.639,5.134,5.134,0,0,1-3.146,1.374,5.1,5.1,0,0,1,1.193.723,10.264,10.264,0,0,1,1.627,1.952l2.567,4.013h-2.567L196.58,71.6q-.868-1.338-1.41-2.025a4.519,4.519,0,0,0-.976-.976,2.966,2.966,0,0,0-.9-.4h-3.363v6.58Zm1.952-8.28h4.194a6.219,6.219,0,0,0,2.1-.289,2.242,2.242,0,0,0,1.157-.9,2.422,2.422,0,0,0,.4-1.338,2.206,2.206,0,0,0-.759-1.735,3.616,3.616,0,0,0-2.386-.687h-4.664ZM210.03,71.2l1.88.217a4.592,4.592,0,0,1-1.627,2.567,5.423,5.423,0,0,1-6.689-.542,5.677,5.677,0,0,1-1.374-4.049,5.93,5.93,0,0,1,1.374-4.194,4.7,4.7,0,0,1,3.616-1.482,4.556,4.556,0,0,1,3.616,1.446,5.857,5.857,0,0,1,1.374,4.122v.47h-7.954a4.121,4.121,0,0,0,1.012,2.712,2.965,2.965,0,0,0,2.242.94,2.748,2.748,0,0,0,1.7-.542,3.615,3.615,0,0,0,1.121-1.663Zm-5.93-2.929h5.966a3.615,3.615,0,0,0-.687-2.025,2.784,2.784,0,0,0-2.242-1.049,2.893,2.893,0,0,0-2.1.832,3.326,3.326,0,0,0-.94,2.242Zm9.762,7.231,1.772.253a1.7,1.7,0,0,0,.615,1.193,3.037,3.037,0,0,0,1.844.506,3.254,3.254,0,0,0,1.952-.506,2.5,2.5,0,0,0,.94-1.41,11.749,11.749,0,0,0,0-2.314,3.616,3.616,0,0,1-2.965,1.41,4.013,4.013,0,0,1-3.4-1.591,6.146,6.146,0,0,1-1.193-3.833,7.231,7.231,0,0,1,.542-2.82,4.447,4.447,0,0,1,1.591-1.989,4.339,4.339,0,0,1,2.459-.723A3.832,3.832,0,0,1,221.13,65.2V63.9h1.663v9.256a8.857,8.857,0,0,1-.506,3.616,3.616,3.616,0,0,1-1.627,1.663,5.569,5.569,0,0,1-2.712.615,5.1,5.1,0,0,1-3.073-.868,2.929,2.929,0,0,1-1.121-2.6Zm1.482-6.436a4.664,4.664,0,0,0,.832,3.073,2.639,2.639,0,0,0,2.1.976,2.675,2.675,0,0,0,2.1-.976A4.52,4.52,0,0,0,221.2,69.1a4.411,4.411,0,0,0-.868-2.965,2.712,2.712,0,0,0-2.1-1.012,2.6,2.6,0,0,0-2.061.976,4.375,4.375,0,0,0-.832,2.929Zm10.3-7.231v-2.1h1.808v2.1Zm0,12.727V63.717h1.808V74.564Zm3.9-5.351a5.532,5.532,0,0,1,1.663-4.411,4.953,4.953,0,0,1,3.363-1.193,4.773,4.773,0,0,1,3.616,1.446,5.532,5.532,0,0,1,1.41,4.013,7.231,7.231,0,0,1-.615,3.254,4.375,4.375,0,0,1-1.808,1.844,5.243,5.243,0,0,1-2.567.651A4.809,4.809,0,0,1,231,73.371a5.785,5.785,0,0,1-1.374-4.158Zm1.88,0a4.555,4.555,0,0,0,.9,3.073,2.965,2.965,0,0,0,4.483,0,4.7,4.7,0,0,0,.9-3.146,4.448,4.448,0,0,0-.9-3,2.965,2.965,0,0,0-4.483,0A4.556,4.556,0,0,0,231.435,69.213ZM241.7,74.564V63.717h1.627v1.519a3.833,3.833,0,0,1,3.4-1.772,4.484,4.484,0,0,1,1.772.362,2.82,2.82,0,0,1,1.229.9,3.616,3.616,0,0,1,.579,1.338,10.535,10.535,0,0,1,0,1.772v6.58H248.5V67.911a4.953,4.953,0,0,0-.217-1.663,1.772,1.772,0,0,0-.759-.868,2.387,2.387,0,0,0-1.266-.325,2.929,2.929,0,0,0-1.989.723,3.616,3.616,0,0,0-.832,2.784v5.857Zm18.44-1.338a6.761,6.761,0,0,1-1.952,1.229,5.6,5.6,0,0,1-1.989.362,3.869,3.869,0,0,1-2.712-.868,2.856,2.856,0,0,1-.94-2.205,2.928,2.928,0,0,1,.362-1.446,2.965,2.965,0,0,1,.94-1.048,4.411,4.411,0,0,1,1.3-.579l1.627-.289a16.413,16.413,0,0,0,3.218-.47v-.47a2.025,2.025,0,0,0-.506-1.555,3.037,3.037,0,0,0-2.061-.615,3.181,3.181,0,0,0-1.88.434,2.748,2.748,0,0,0-.9,1.591l-1.772-.253a4.41,4.41,0,0,1,.8-1.844,3.615,3.615,0,0,1,1.591-1.085,7.232,7.232,0,0,1,2.422-.362,6.435,6.435,0,0,1,2.242.325,2.929,2.929,0,0,1,1.266.8,2.892,2.892,0,0,1,.579,1.229,10.45,10.45,0,0,1,0,1.663v2.422a25.579,25.579,0,0,0,0,3.218,4.014,4.014,0,0,0,.47,1.3h-1.88A3.831,3.831,0,0,1,260,73.371Zm0-4.049a13.27,13.27,0,0,1-2.965.687,6.908,6.908,0,0,0-1.591.362,1.554,1.554,0,0,0-.723.579,1.627,1.627,0,0,0,.289,2.061,2.35,2.35,0,0,0,1.591.47,3.616,3.616,0,0,0,1.844-.47,2.856,2.856,0,0,0,1.193-1.265,4.448,4.448,0,0,0,.289-1.808Zm4.592,5.387V59.921h1.808V74.709Z" transform="translate(724.76 463.474)"/>
    <path id="Path_5" data-name="Path 5" d="M93.06,81.622V66.943h5.1a12.33,12.33,0,0,1,2.639.217,5.026,5.026,0,0,1,2.169,1.049,6.038,6.038,0,0,1,1.735,2.531,9.943,9.943,0,0,1,.579,3.616,10.378,10.378,0,0,1-.4,3,7.231,7.231,0,0,1-1.012,2.169,5.351,5.351,0,0,1-1.338,1.338,5.458,5.458,0,0,1-1.772.759,10.017,10.017,0,0,1-2.386.253Zm1.952-1.735h3.146a7.556,7.556,0,0,0,2.278-.289,3.254,3.254,0,0,0,1.338-.759,4.664,4.664,0,0,0,1.085-1.88,9.219,9.219,0,0,0,.4-2.856,6.942,6.942,0,0,0-.759-3.616,3.832,3.832,0,0,0-1.844-1.663,7.665,7.665,0,0,0-2.531-.289H95.012Zm20.03-1.7,1.88.217a4.592,4.592,0,0,1-1.627,2.567,5.423,5.423,0,0,1-6.689-.542,5.676,5.676,0,0,1-1.374-4.049,5.93,5.93,0,0,1,1.374-4.194,4.7,4.7,0,0,1,3.616-1.482,4.556,4.556,0,0,1,3.616,1.446,5.857,5.857,0,0,1,1.374,4.122v.47h-7.954a4.122,4.122,0,0,0,1.012,2.712,2.965,2.965,0,0,0,2.242.94,2.748,2.748,0,0,0,1.7-.542,3.615,3.615,0,0,0,1.121-1.663Zm-5.93-2.929h5.966a3.616,3.616,0,0,0-.542-1.952,2.784,2.784,0,0,0-2.242-1.049,2.892,2.892,0,0,0-2.1.832,3.327,3.327,0,0,0-.94,2.242Zm13.052,6.363-4.049-10.847h1.916l2.278,6.436q.362,1.049.687,2.169.253-.832.687-2.025l2.386-6.544h1.844l-4.049,10.847Zm14.643-3.616,1.88.217a4.592,4.592,0,0,1-1.627,2.567,5.423,5.423,0,0,1-6.689-.542A5.676,5.676,0,0,1,129,76.2,5.929,5.929,0,0,1,130.373,72a4.7,4.7,0,0,1,3.616-1.482,4.556,4.556,0,0,1,3.616,1.446,5.857,5.857,0,0,1,1.374,4.122v.47h-7.954a4.121,4.121,0,0,0,1.012,2.712,2.965,2.965,0,0,0,2.242.94,2.748,2.748,0,0,0,1.7-.542,3.615,3.615,0,0,0,1.121-1.663Zm-5.93-2.929h5.966a3.615,3.615,0,0,0-.687-2.025A2.784,2.784,0,0,0,133.916,72a2.893,2.893,0,0,0-2.1.832,3.326,3.326,0,0,0-.94,2.242Zm10.051,6.544V66.943h1.808V81.622Zm3.941-5.351a5.532,5.532,0,0,1,1.663-4.411,4.953,4.953,0,0,1,3.363-1.193,4.773,4.773,0,0,1,3.616,1.446,5.532,5.532,0,0,1,1.41,4.013,7.23,7.23,0,0,1-.615,3.254,4.375,4.375,0,0,1-1.808,1.844,5.243,5.243,0,0,1-2.567.651,4.809,4.809,0,0,1-3.616-1.446,5.785,5.785,0,0,1-1.374-4.158Zm1.88,0a4.592,4.592,0,0,0,.9,3.073,2.965,2.965,0,0,0,4.483,0,4.7,4.7,0,0,0,.9-3.146,4.447,4.447,0,0,0-.9-3,2.965,2.965,0,0,0-4.483,0,4.556,4.556,0,0,0-.9,3.073Zm10.268,9.473V70.92h1.663v1.41a4.086,4.086,0,0,1,1.3-1.229,3.616,3.616,0,0,1,1.772-.4,4.23,4.23,0,0,1,2.422.723,4.339,4.339,0,0,1,1.591,1.989,7.745,7.745,0,0,1-.036,5.785,4.447,4.447,0,0,1-1.7,2.025,4.375,4.375,0,0,1-2.35.687,3.4,3.4,0,0,1-1.627-.4,3.615,3.615,0,0,1-1.193-.976v5.206Zm1.627-9.4a4.664,4.664,0,0,0,.832,3.073,2.567,2.567,0,0,0,2.025.976,2.6,2.6,0,0,0,2.061-1.013,4.881,4.881,0,0,0,.867-3.181,4.736,4.736,0,0,0-.832-3.073,2.531,2.531,0,0,0-2.025-1.012,2.6,2.6,0,0,0-2.061,1.085,4.845,4.845,0,0,0-.9,3.146Zm9.834,5.279V70.775h1.627v1.519a3.952,3.952,0,0,1,5.206-1.229,2.64,2.64,0,0,1,1.085,1.374,3.832,3.832,0,0,1,3.218-1.663,3.254,3.254,0,0,1,2.459.868,3.616,3.616,0,0,1,.868,2.712v7.231h-1.808V74.97a4.99,4.99,0,0,0,0-1.555,1.519,1.519,0,0,0-.651-.759,1.988,1.988,0,0,0-1.085-.289,2.531,2.531,0,0,0-1.88.759,3.326,3.326,0,0,0-.759,2.422v6.074h-1.808v-6.87a3.073,3.073,0,0,0-.434-1.808,1.663,1.663,0,0,0-1.446-.615,2.64,2.64,0,0,0-1.41.4,2.278,2.278,0,0,0-.94,1.193,6.653,6.653,0,0,0-.289,2.242v5.46ZM193,78.007l1.88.217a4.592,4.592,0,0,1-1.627,2.567,5.423,5.423,0,0,1-6.689-.542,5.676,5.676,0,0,1-1.374-4.049A5.93,5.93,0,0,1,186.56,72a4.7,4.7,0,0,1,3.616-1.482,4.556,4.556,0,0,1,3.616,1.446,5.857,5.857,0,0,1,1.374,4.122v.47h-8.316a4.122,4.122,0,0,0,1.012,2.712,2.965,2.965,0,0,0,2.242.94,2.748,2.748,0,0,0,1.7-.542,3.615,3.615,0,0,0,1.121-1.663Zm-5.93-2.929h5.966a3.616,3.616,0,0,0-.687-2.025A2.784,2.784,0,0,0,190.1,72a2.893,2.893,0,0,0-2.1.832,3.326,3.326,0,0,0-.94,2.242Zm10.088,6.544V70.775h1.627v1.519a3.833,3.833,0,0,1,3.4-1.772,4.483,4.483,0,0,1,1.772.362,2.82,2.82,0,0,1,1.229.9,3.616,3.616,0,0,1,.579,1.338,10.522,10.522,0,0,1,0,1.772v6.725h-1.808V75.114a4.953,4.953,0,0,0-.217-1.663,1.772,1.772,0,0,0-.759-.868,2.386,2.386,0,0,0-1.265-.325,2.929,2.929,0,0,0-1.989.723,3.616,3.616,0,0,0-.832,2.784v5.857ZM212.592,80l.253,1.591a6.831,6.831,0,0,1-1.374,0,3.109,3.109,0,0,1-1.519-.325,1.736,1.736,0,0,1-.759-.832,6.508,6.508,0,0,1-.217-2.133V72.439h-1.338v-1.41h1.338V68.389l1.808-1.085V70.92h1.808v1.41h-1.808v6.255a3.182,3.182,0,0,0,0,1.012.759.759,0,0,0,.325.362,1.193,1.193,0,0,0,.615,0h.8Zm7.81,1.627V66.943h9.834v1.736h-7.991V73.27h6.906v1.736h-6.906v6.617Zm19.271,0V80.176a3.9,3.9,0,0,1-3.4,1.808,4.338,4.338,0,0,1-1.772-.362,2.892,2.892,0,0,1-1.229-.9,3.4,3.4,0,0,1-.542-1.338,9.1,9.1,0,0,1,0-1.7V71.029h1.808v5.93a10.555,10.555,0,0,0,0,1.916A1.88,1.88,0,0,0,235.262,80a2.242,2.242,0,0,0,1.374.4,2.965,2.965,0,0,0,1.519-.434,2.35,2.35,0,0,0,1.012-1.157,5.785,5.785,0,0,0,.289-2.1V71.029h1.808V81.875Zm4.483,0V70.775h1.627v1.519a3.832,3.832,0,0,1,3.4-1.772,4.483,4.483,0,0,1,1.772.362,2.82,2.82,0,0,1,1.229.9,3.615,3.615,0,0,1,.578,1.338,10.483,10.483,0,0,1,0,1.772v6.725h-1.808V75.114a4.952,4.952,0,0,0-.217-1.663,1.772,1.772,0,0,0-.759-.868,2.386,2.386,0,0,0-1.265-.325,2.929,2.929,0,0,0-1.989.723,3.616,3.616,0,0,0-.832,2.784v5.857Zm18.4,0V80.285a3.326,3.326,0,0,1-3,1.591,4.194,4.194,0,0,1-2.35-.723,4.628,4.628,0,0,1-1.663-1.989,6.8,6.8,0,0,1-.579-2.929,7.629,7.629,0,0,1,.542-2.929,4.151,4.151,0,0,1,3.977-2.676,3.565,3.565,0,0,1,2.965,1.446V66.943h1.808V81.622Zm-5.713-5.351a4.664,4.664,0,0,0,.868,3.073,2.6,2.6,0,0,0,2.061,1.012,2.567,2.567,0,0,0,2.025-.976,4.52,4.52,0,0,0,.832-2.965A5.062,5.062,0,0,0,261.8,73.2a2.6,2.6,0,0,0-2.1-1.012,2.5,2.5,0,0,0-2.025.976,4.881,4.881,0,0,0-.8,3.109Z" transform="translate(725.597 482.303)"/>
    <path id="Path_6" data-name="Path 6" d="M122.994,8.75l-2.061,6.327H114.1l5.5,4.013-2.061,6.363,5.46-3.9,5.387,3.9-2.1-6.363,5.64-4.013h-6.833Z" transform="translate(780.629 330.104)" fill="#fc0"/>
    <path id="Path_7" data-name="Path 7" d="M107.684,24.09l-2.061,6.472H98.79l5.6,3.9-2.061,6.327,5.351-3.8,5.5,3.8-2.061-6.327,5.5-3.9h-6.833Z" transform="translate(740.584 370.227)" fill="#fc0"/>
    <path id="Path_8" data-name="Path 8" d="M138.274,24.09l-2.061,6.327H129.38l5.5,4.049-2.1,6.327,5.5-3.9,5.351,3.9-2.061-6.327,5.6-4.049h-6.833Z" transform="translate(820.595 370.227)" fill="#fc0"/>
    <path id="Path_9" data-name="Path 9" d="M123.034,39.33l-2.1,6.363h-6.8l5.6,4.013-2.1,6.327,5.387-3.9,5.46,3.9-2.061-6.327,5.5-4.013H125.1Z" transform="translate(780.734 410.089)" fill="#fc0"/>
    <path id="Path_10" data-name="Path 10" d="M130.651,10.74l-2.1,6.327H121.72l5.5,4.013-2.061,6.363,5.5-3.9,5.46,3.9-2.061-6.363,5.5-4.013h-6.833Z" transform="translate(800.56 335.309)" fill="#fc0"/>
    <path id="Path_11" data-name="Path 11" d="M136.184,16.37,134.124,22.7H127.29l5.5,4.013-2.1,6.363,5.5-3.9,5.5,3.9-2.206-6.363,5.6-4.013h-6.833Z" transform="translate(815.129 350.035)" fill="#fc0"/>
    <path id="Path_12" data-name="Path 12" d="M136.284,31.61l-2.061,6.327H127.39l5.5,4.049-2.1,6.327,5.5-3.9,5.351,3.9-2.061-6.327,5.6-4.049h-6.833Z" transform="translate(815.391 389.897)" fill="#fc0"/>
    <path id="Path_13" data-name="Path 13" d="M130.684,37.21l-2.061,6.472H121.79l5.5,3.9-2.1,6.327,5.5-3.9,5.387,3.9-2.1-6.327,5.6-3.9h-6.8Z" transform="translate(800.743 404.544)" fill="#fc0"/>
    <path id="Path_14" data-name="Path 14" d="M115.374,37.21l-2.061,6.327H106.48l5.6,4.049-2.061,6.327,5.351-3.9,5.5,3.9-2.061-6.327,5.46-4.049h-6.8Z" transform="translate(760.698 404.544)" fill="#fc0"/>
    <path id="Path_15" data-name="Path 15" d="M109.774,31.58l-2.061,6.436H100.88l5.5,3.9-2.061,6.363,5.46-3.8,5.5,3.8-2.061-6.363,5.5-3.9h-6.833Z" transform="translate(746.051 389.818)" fill="#fc0"/>
    <path id="Path_16" data-name="Path 16" d="M109.744,16.37,107.683,22.7H100.85l5.6,4.013-2.061,6.363,5.351-3.9,5.5,3.9-2.1-6.363,5.5-4.013h-6.833Z" transform="translate(745.972 350.035)" fill="#fc0"/>
    <path id="Path_17" data-name="Path 17" d="M115.374,10.74l-2.061,6.436H106.48l5.5,4.049-2.1,6.327,5.5-3.9,5.5,3.9-2.061-6.327,5.46-4.049h-6.8Z" transform="translate(760.698 335.309)" fill="#fc0"/>
  </g>
</svg>
