<svg xmlns="http://www.w3.org/2000/svg" width="100%" height="100%" viewBox="0 0 152.75 73.52"><rect width="73.52" height="73.52" transform="translate(79.23)" fill="#fff"/><path d="M70.84,20.6v-.26h0v-.06h0A3.86,3.86,0,0,0,69.4,17.6h0l-.09-.06h0a3.84,3.84,0,0,0-2.34-.8h-.23a3.89,3.89,0,0,0-.71.11h0a3.83,3.83,0,0,0-1,.41h0a3.9,3.9,0,0,0-.94.77h0l-.14.17h0l-.07.09-.82-.41h0l-.86-.43h0l-.38-.19L59.6,16.14,59.27,16l-2.14-1.1h0l-.52-.26h0l-.59-.3-.37-.19h0l-.43-.21-.38-.19-.78-.39-3.22-1.62-3.16-1.59h0l-.85-.43h0l-1.07-.54-1.24-.62-.75-.38-1-.49-3-1.51A3.85,3.85,0,0,0,40,5.11V5h0V4.88h0v-.1h0V4.64h0V4.51h0v-.2h0V4.18h0V4.05h0l-.06-.19h0V3.74h0V3.62h0V3.56h0l-.06-.12h0l-.06-.11h0l-.06-.11h0V3.17h0L39.34,3h0l-.05-.08h0V2.87h0a3.9,3.9,0,0,0-.35-.42l-.11-.1h0a3.85,3.85,0,0,0-2.11-1h-.87A3.86,3.86,0,0,0,33.3,2.44l-.12.14-.06.07a3.89,3.89,0,0,0-.35.49,3.84,3.84,0,0,0-.45,2.79v.26L24.88,10h0l-.31.16-.38.19h0l-.6.3-5.33,2.71-.71.36L14,15.56h0l-3.63,1.85-.1.05-4,2-.21.11-.62.31h3l8.25-4.2L18.21,15l.85-.43,1.7-.86.29-.15,1.23-.63,1.46-.75h.06l.86-.44h0L26,11h0l.68-.35.57-.29h0l2-1L32.06,7.9l.79-.4L33,7.42h0a3.921,3.921,0,0,0,.57.53h0l.18.13h0a3.83,3.83,0,0,0,1.39.57h2.29l.1-.06h0l.09-.07h0l.08-.09h.1l4.11,2.07.48.24h.06l.47.24.58.29h0l.62.31h.09l.44.22h0l3.45,1.74,1.79.9h.08l2,1h0l.56.28.69.35h0l.6.3h0l1.05.53,4.92,2.48h0l.35.18h0l1.51.76h0a.416.416,0,0,1-.06.26h0a4,4,0,0,0-.07.49h0v.12h0v.15a3.86,3.86,0,0,0,.07.72h0a3.852,3.852,0,0,0,.1.41h0v.07l.05.14a1.957,1.957,0,0,0,.12.27l.06.12.09.16.07.12.17.25.08.11.11.14.09.1.21.21.1.09.14.11.11.08h.06l.18.12h0l.12.07h.07l.12.06h.35a3.84,3.84,0,0,0,1,.19h.5a3.87,3.87,0,0,0,3-1.83h0v-.07h0a3.83,3.83,0,0,0,.52-1.9ZM38.59,5.15h0v.16h0a2.47,2.47,0,0,1-.15.5h0a2.491,2.491,0,0,1-.14.28h0l-.11.17h0l-.09.12h0L38,6.5h0l-.07.07h0l-.11.1h0l-.08.06h0l-.08.06h0l-.13.09h0l-.08.05h0L37.32,7h0l-.21.07h-.2a2.49,2.49,0,0,1-.43,0H36.3a2.48,2.48,0,0,1-.61-.12h-.46l-.1-.06h-.07l-.09-.06-.07-.05L34.47,7l-.2-.2-.06-.07-.06-.07a2.49,2.49,0,0,1-.54-1.55h0V5h0V4.81h0A2.5,2.5,0,0,1,34.71,3l.15-.09h.06L35,2.85h.41A2.49,2.49,0,0,1,36,2.61h.43l.3.07h.08l.23.09a2.5,2.5,0,0,1,.64.4l.07.06.1.09a2.5,2.5,0,0,1,.52.78h0l.07.19h0a.386.386,0,0,0,.06.2h0v.09h0v.09h0V5h0v.1h0v.08ZM69.47,20.6v.05h0a2.48,2.48,0,0,1-.08.57v.2a2.5,2.5,0,0,1-.46.8l-.22.23h0l-.25.19a2.49,2.49,0,0,1-.54.27H66.5l-.32.09h0L66,22.89l-.28-.15h-.06l-.25-.18h0a2.44,2.44,0,0,1-.64-.83l-.09-.21v-.06a2.45,2.45,0,0,1-.14-.8v-.72h0a.373.373,0,0,1,.08-.22,2.5,2.5,0,0,1,.48-.74l.11-.11.06-.06.11-.09.07-.05.12-.08h.07l.13-.07h.06l.21-.09h0l.2-.07H67a2.48,2.48,0,0,1,1,.2h.22a2.5,2.5,0,0,1,1.2,2.13Z" transform="translate(-0.63 -1.24)" fill="#fff"/><path d="M65.78,71.55H60.56V67.79H68V65.17H60.56V61.88h8.11V42.57H56.43V43h0v6H60.5a1.54,1.54,0,0,1-.09.37c-.03.12-.07.2-.1.3l-.09.21-.1.19-.06.12c-.06.1-.12.19-.18.28a3.88,3.88,0,0,1-.31.37h0l-.07.07-.07.07h-.05l-.12.1h0l-.1.08h0l-.09.07h0l-.24.15-.24.13h-.06l-.36.16h0l-.33.12h0l-.35.11h0l-.4.09h0l-.53.08H54.93l-.64-.08h-.17l-.42-.1h-.13l-.23.11h0l-.47-.18h0l-.4-.21-.11-.06h-.14a6.67,6.67,0,0,1-.79-.65h0c-.12-.12-.24-.24-.35-.37l-.25-.3-.06-.07c-.09-.12-.17-.24-.25-.37S50,49.15,50,49l-.13-.27A7.49,7.49,0,0,1,49.24,47c-.08-.38-.13-.74-.18-1.08v-.57h0v-.83h0V43.25a5.565,5.565,0,0,1,.08-1.14V42a1.53,1.53,0,0,1,.08-.59v-.19a2.3,2.3,0,0,1,.1-.51c.04-.17.15-.61.26-.92h0l.09-.26h0v-.07c0-.1.08-.19.12-.28a5.79,5.79,0,0,1,.79-1.35l.12-.15a5,5,0,0,1,1.74-1.3,6.13,6.13,0,0,1,2.54-.5h.46a4.4,4.4,0,0,1,1,.18l.33.12h.05a4.39,4.39,0,0,1,1.07.64h0L58,37h0l.1.09h0l.1.1h0a4.19,4.19,0,0,1,.8,1.04l.11.23v.07a4.56,4.56,0,0,1,.29,1h8.85a17.67,17.67,0,0,0-.65-2.46h0l-.11-.29v-.14h0l-.2-.5h0l-.1-.23-.08-.18h0L67,35.54h0l-.16-.32h0v-.07l-.19-.36v-.06q-.29-.51-.62-1l-.14-.19-.15-.21-.17-.22L65.4,33h0v-.06l-.25-.29h0a12,12,0,0,0-1.22-1.17c-.26-.22-.53-.42-.81-.62h0a11.75,11.75,0,0,0-1.34-.79h0l-.28-.14h0q-.4-.19-.81-.35h0l-.16-.06-.19-.07h0L59.35,29h-.23l-.21-.06h0a16.07,16.07,0,0,0-2.18-.39h-.36c-.59-.05-1.2-.08-1.83-.08a14.27,14.27,0,0,0-1.75.11h0l-.46.06h-.12l-.41.07h-.32l-.24.05h-.22l-.34.08h0l-.72.21h0l-.54.17-.37.14h-.12l-.31.12h0c-.33.14-.65.29-1,.45h-.09l-.15.08h0l-.12.07h0l-.25.14-.2.12h-.07l-.08.05-.26.17L46,31l-.2.14-.29.21h0c-.32.24-.63.49-.94.77h0a12.94,12.94,0,0,0-1.91,2.17h0l-.08.11h0q-.3.43-.58.9h0l-.16.28c-.26.46-.51.94-.74,1.45-.06.14-.12.28-.18.43V31.82h0V29.11H31.18v20a8.74,8.74,0,0,0-.12-.89h0L31,48v-.17h0q-.07-.29-.15-.57h0l-.06-.21-.07-.18c-.07-.19-.15-.37-.23-.55h0a7.321,7.321,0,0,0-.53-1h0q-.15-.225-.3-.42h0A6.46,6.46,0,0,0,28,43.41a9.21,9.21,0,0,0-2-.93,8.9,8.9,0,0,0,1.88-1.37h0l.36-.37.08-.09c.12-.14.23-.27.34-.42s.15-.21.22-.32l.07-.12.12-.22v-.08h0a5.25,5.25,0,0,0,.35-1v-.12a1.148,1.148,0,0,1,.08-.41v-.47h0v-.82h0v-.13h0V36h0a1.631,1.631,0,0,0-.06-.53h0a.772.772,0,0,0-.07-.39h0c-.06-.29-.13-.58-.21-.89a.953.953,0,0,0-.09-.27h0v-.07l-.06-.16L29,33.41v-.06h0a5.71,5.71,0,0,0-.3-.55h0l-.2-.3h0l-.07-.1h0l-.07-.1v-.11h0l-.1-.13-.26-.2h0l-.14-.15-.21-.21-.08-.07-.07-.07h0a6.93,6.93,0,0,0-.8-.6h0l-.09-.06-.11-.07h0l-.5-.28h0l-.17-.09h0l-.36-.18h0l-.52-.22a12.7,12.7,0,0,0-4.32-.72H20v-1.2H15.6V25.59h4V24.46h-4V22.38h4.32v-1.2h-5.7v7.93h-.78v-.56h0V21.18H12.05v3.16H8.44V21.18H.63v1.2H3.14v6.73h0V41.43h0v33H6.51V67.77h6.22v1.91h0v4.71h3.38v-7.1a9.53,9.53,0,0,0,.18,1.45h0v.43l.06.22a1.673,1.673,0,0,0,.16.51h0v.07l.15.37h0v.08l.13.29h0v.08l.1.2h0a7.18,7.18,0,0,0,.79,1.17h0v.05h0l.05.06.06.06h0l.23.22h0l.06.05.19.17.22.18.13.1.07.06h0a4.452,4.452,0,0,0,.51.33h0l.18.1.09.05h0a5.437,5.437,0,0,0,.54.27,6.749,6.749,0,0,0,1,.34h0a8.37,8.37,0,0,0,2.2.28h.56l.55-.05h.15l.4-.07h.11a7,7,0,0,0,1.11-.33h0l.15-.06h.19l.16-.08h0a7,7,0,0,0,1.28-.85h0l.1-.09.12-.1h0c.13-.12.26-.24.38-.37h0v-.05l.12-.14h0a5.513,5.513,0,0,0,.34-.44v-.07h0a6.379,6.379,0,0,0,.34-.55h0a8,8,0,0,0,.57-1.26,9.12,9.12,0,0,0,.5-2.5v-.19h0v.19h0v1.19a6.69,6.69,0,0,0,1,3.81h0a4.43,4.43,0,0,0,.69.8h.05l.13.11h0l.24.18h.06A5.85,5.85,0,0,0,35,74.4h.15l.22.06h.34a9.128,9.128,0,0,0,1,.14H38.2a9.531,9.531,0,0,0,1.55-.18h0l.27-.06h.15a6.7,6.7,0,0,0,.92-.32h.1l.2-.1.17-.09.21-.12.15-.09.22-.15.11-.08.32-.25h0a4.48,4.48,0,0,0,.67-.75h0l.07-.1c.07-.1.13-.19.19-.29l.1-.18.12-.24h0l.09-.23h0v-.13l.1-.3.07-.24v-.2h0v-.23h0a8.129,8.129,0,0,0,.14-1,5.6,5.6,0,0,0,.17,1.47v.17h0l.05.16h0v.05h0a4.06,4.06,0,0,0,.22.51c.07.13.14.25.22.37h0v.06h0l.13.17.11.15h0a5,5,0,0,0,.4.45h0a4.779,4.779,0,0,0,.53.47,6.23,6.23,0,0,0,2.1,1l.25.06h.19a9.45,9.45,0,0,0,2,.22H52.3a7.409,7.409,0,0,0,.91-.22l.32-.11h0l.44-.18h0l.27-.13h0a5.24,5.24,0,0,0,.93-.59,4.572,4.572,0,0,0,.35-.32h0L56,73l.14-.15.09-.1.12-.15.08-.12v-.07h0l.11-.17h0l.14-.26h0l.08-.17a4.67,4.67,0,0,0,.4-1.86v4.47H68.84V71.55ZM18.43,25.38ZM13,40.42V36.24h5.45a4.28,4.28,0,0,1,1.7.44l.16.1h0a1.56,1.56,0,0,1,.3.26h0A1.81,1.81,0,0,1,21,38.29a2.11,2.11,0,0,1-.84,2,2.94,2.94,0,0,1-.6.27,5.45,5.45,0,0,1-1.71.24H13ZM8.44,26.14a1.25,1.25,0,0,0,0-.15v-.46h3.61v3.58H8.44Zm.15,26.79ZM6.3,29.11H4.53V22.38H7.05v6.73Zm6.43,30.62v5.2H6.51V59h6.22Zm1.49-7.81H13V46.34h7.13l.2.06h0l.19.07h0l.31.15.23.15h0l.19.16h0l.17.2.09.13.08.12.07.14A3,3,0,0,1,22,48.91h0V49a3.3,3.3,0,0,1-.17,1.06,2,2,0,0,1-.12.27l-.09.14-.07.12-.1.13a2.2,2.2,0,0,1-.39.37h0l-.15.11h0l-.32.17a3.53,3.53,0,0,1-.83.27h-.57a7.531,7.531,0,0,1-.78,0Zm5,8.08-.29.22-.18.15-.24.22h0l-.11.1h0l-.29.3-.05.06h0v.06h0v.06h0a7.31,7.31,0,0,0-.49.71h0l-.17.3v.08h0l-.07.14v.09l-.12.28v.11h0l-.08.22h0l-.06.16a8.691,8.691,0,0,0-.25.91h0v.09h0c-.06.26-.1.53-.14.8h0c0,.29-.07.57-.08.87V59h5a6.641,6.641,0,0,0-.68.26h-.27l-.18.11-.32.2Zm6,14.59Zm2.53-7.42v.68a1.8,1.8,0,0,1-.1.59v.22a5.49,5.49,0,0,1-.19.61v.13h0v.06h0v.11a4.841,4.841,0,0,1-.37.65,3.64,3.64,0,0,1-.74.8l-.13.1-.09.06-.33.21h0a3.94,3.94,0,0,1-1.94.44,3.65,3.65,0,0,1-2.36-.71l-.13-.1a3.62,3.62,0,0,1-.52-.52c-.08-.09-.15-.19-.22-.28a4.81,4.81,0,0,1-.3-.52L20,69.66v-.12l-.06-.15v-.12l-.05-.16v-.45a.541.541,0,0,0-.06-.3v-.45a7.94,7.94,0,0,1-.08-1.07v-.05h0a8.41,8.41,0,0,1,.23-2l.06-.22a5.38,5.38,0,0,1,.31-.83l.1-.21.07-.14.18-.29h0l-.2-.1h0l.12-.15h0l.1-.12.27-.27.08-.07.09-.07.09-.07h0a3.861,3.861,0,0,1,.41-.26h.09l.15-.07a3.63,3.63,0,0,1,.91-.26h.78a4.52,4.52,0,0,1,1.28.17h0l.25.09h0l.35.17.09.06.11.07a3.78,3.78,0,0,1,.32.23h0a3.609,3.609,0,0,1,.32.29l.07.07h0a3.691,3.691,0,0,1,.3.39,3.371,3.371,0,0,1,.19.32l.09.16.11.23.07.17a5.6,5.6,0,0,1,.26.8v.36a1.133,1.133,0,0,0,.06.36,8.59,8.59,0,0,1,.09,1.24c.26.07.26.16.25.33Zm3.35-1.31h0a9.31,9.31,0,0,0-.48-2.26l-.1-.26h0v-.08h0v-.09h0v-.1l-.16-.36-.08-.15v-.08h0l-.28-.3h0v-.11h0l-.14-.22h0c-.1-.15-.21-.3-.32-.45h0l-.35-.4a6.55,6.55,0,0,0-.84-.79H28.3l-.13-.1-.23-.16h0a7.18,7.18,0,0,0-1.11-.62,7.66,7.66,0,0,0-3-.62l.79-.22h.11l.23-.08a10.88,10.88,0,0,0,1.75-.77h0a10.079,10.079,0,0,0,1.21-.79c.22-.17.42-.35.62-.53l.27-.27.13-.14.06-.06h0a8.337,8.337,0,0,0,.53-.65h0l.12-.17.07-.09h0a9.171,9.171,0,0,0,.57-.93h0v-.07h0q.11-.22.21-.44h0c.05-.12.1-.24.15-.37h0l.09-.25h0V52.8h0l.07-.25h0a8.83,8.83,0,0,0,.27-1.62v10.2h0v5.22a.876.876,0,0,0,.07-.49Zm18-4.89ZM38,53.08Zm-1-4.95Zm-1.1,9.69ZM53.61,71.18a2.11,2.11,0,0,1-.75.59,3.36,3.36,0,0,1-1,.29,6.7,6.7,0,0,1-1,.08,5.279,5.279,0,0,1-.63,0,4.75,4.75,0,0,1-.67-.12,3.21,3.21,0,0,1-1.08-.49,2.21,2.21,0,0,1-.26-.22h0A2.551,2.551,0,0,1,48,71h0a2.35,2.35,0,0,1-.15-.23h0l-.05-.09h0a2.17,2.17,0,0,1-.1-.22v-.11a3.13,3.13,0,0,1-.14-1H44.25v-.29h0v-.24h0v-.95h0V59H40.91v.26h0v9.29a7.089,7.089,0,0,1,0,.75,4.79,4.79,0,0,1-.13.71.263.263,0,0,1-.06.2v.14l-.06.15a2.35,2.35,0,0,1-.36.59,1.75,1.75,0,0,1-.34.3h-.07l-.13.08h-.09l-.14.06-.2.07-.31.08h-.34a6.249,6.249,0,0,1-.87.06h0a4.9,4.9,0,0,1-1.22-.13h0l-.3-.1h-.08l-.13-.07a2.3,2.3,0,0,1-.82-.69,2.5,2.5,0,0,1-.24-.41,2.55,2.55,0,0,1-.11-.29v-.08a2.76,2.76,0,0,1-.07-.3,6.92,6.92,0,0,1-.11-1.23V59h6.34V50.9h0v.08h0v.06h0v.06h0v.06h0v.07h0v.07h0v.06h0v.06h0v.07h0v.07h0v.08h0v.09h0v.08h0v.07h0l.09.17h0v.08h0v.08h0L42,53h0v.07h0l.16.25h0v.08h0l.11.17h0l.05.08h0l.17.24h0l.05.07h0l.05.07h0l.05.07h0v.07h0v.06h0v.06h0v.05h0v.05h0l.05.06A13.35,13.35,0,0,0,46,57.33h0l.18.11.24.16.28.18h0c.27.16.55.32.84.47h0l.59.28h.06l.7.29-.39.09a5.77,5.77,0,0,0-1.85.86A4.56,4.56,0,0,0,45.43,61h0l-.14.22a4,4,0,0,0-.51,2.05h0v.2h0v.51h0v.41h0v.14h0l.08.22.06.12v.06h0V65a3.841,3.841,0,0,0,.3.45l.08.11v.05h0a3.72,3.72,0,0,0,.62.61,5.151,5.151,0,0,0,.47.32h0l.15.08.26.14h0a6,6,0,0,0,.58.26,14.619,14.619,0,0,0,1.68.53l.29.08h0c.46.13.92.24,1.37.34l.27.07a8.49,8.49,0,0,1,1.19.39,4,4,0,0,1,.41.2h0l.16.09h.05l.1.07.15.11h0l.13.11h.05l.1.11h0l.08.11h0a1.28,1.28,0,0,1,.17.39,1.571,1.571,0,0,1,0,.18h0a1.7,1.7,0,0,1,0,.19A1.48,1.48,0,0,1,53.61,71.18ZM57.18,59.9v9.47a3.77,3.77,0,0,0-.23-1.05,4,4,0,0,0-.27-.55h0l-.12-.18h0a3.319,3.319,0,0,0-.27-.35,4.581,4.581,0,0,0-.41-.41h0l-.25-.21h0l-.25-.17L55,66.21h0l-.18-.1-.19-.1h0l-.32-.14a7.931,7.931,0,0,0-1-.32l-.73-.18-.45-.11L51.27,65l-.66-.18h-.06l-.22-.06h0a10.54,10.54,0,0,1-1.36-.46h0l-.22-.11-.14-.09h0l-.14-.11h0l-.11-.12h0a1.13,1.13,0,0,1-.14-.42h0v-.29a1.46,1.46,0,0,1,.22-.81l.13-.17a1.81,1.81,0,0,1,.42-.38l.22-.12a2.24,2.24,0,0,1,.52-.18l.38-.06h.51a5.77,5.77,0,0,1,.76.08h.15a3,3,0,0,1,.64.21l.14.07.16.09.21.16h0l.18.18a2,2,0,0,1,.26.37,2.72,2.72,0,0,1,.29,1.14h3.27a4.72,4.72,0,0,0-.51-2.27,4.38,4.38,0,0,0-.88-1.13h0a4.46,4.46,0,0,0-.48-.4l-.11-.07h.7l.53-.06h0a12.71,12.71,0,0,0,1.27-.25Zm2.89-6.52ZM59.4,59h-.9l.25-.09c.25-.1.5-.22.74-.34h.06l.15-.08h0a8.53,8.53,0,0,0,1.3-.86h.05l.17-.13h0a9.13,9.13,0,0,0,1-.95h0l.34-.41.09,1h0l.06.67.09,1V59ZM62,72Z" transform="translate(-0.63 -1.24)" fill="#fff"/><rect width="68.83" height="45.86" transform="translate(81.57 2.48)" fill="#039"/><path d="M82.21,57.59V51.06H87v1.1H83.5v1.45h3.25v1.1H83.52v1.78h3.62v1.1Zm9.13,0v-.71a1.81,1.81,0,0,1-.67.6,1.88,1.88,0,0,1-.88.22,1.72,1.72,0,0,1-.85-.21,1.23,1.23,0,0,1-.54-.59,2.63,2.63,0,0,1-.17-1v-3h1.24V55a6.061,6.061,0,0,0,.07,1.22.66.66,0,0,0,.25.36.76.76,0,0,0,.46.13,1,1,0,0,0,.57-.18.89.89,0,0,0,.34-.44,5.11,5.11,0,0,0,.09-1.28v-2h1.24v4.73Zm3.63,0H93.73V52.86h1.15v.67a2,2,0,0,1,.53-.63,1,1,0,0,1,.54-.15,1.57,1.57,0,0,1,.82.24l-.38,1.09a1.09,1.09,0,0,0-.58-.2.69.69,0,0,0-.44.14,1,1,0,0,0-.29.52,7.45,7.45,0,0,0-.1,1.58Zm2-2.43a2.57,2.57,0,0,1,.3-1.21,2.1,2.1,0,0,1,.86-.89,2.55,2.55,0,0,1,1.25-.31,2.34,2.34,0,0,1,1.75.7,2.42,2.42,0,0,1,.68,1.76,2.45,2.45,0,0,1-.69,1.78,2.32,2.32,0,0,1-1.73.71,2.71,2.71,0,0,1-1.23-.29,2,2,0,0,1-.89-.86,2.88,2.88,0,0,1-.3-1.38Zm1.27.07a1.57,1.57,0,0,0,.33,1.08,1.08,1.08,0,0,0,1.63,0,1.6,1.6,0,0,0,.33-1.09,1.57,1.57,0,0,0-.33-1.07,1.08,1.08,0,0,0-1.63,0,1.57,1.57,0,0,0-.33,1.08Zm4.51-2.36H104v.69a1.74,1.74,0,0,1,.61-.58,1.67,1.67,0,0,1,.85-.22,1.79,1.79,0,0,1,1.39.65,2.63,2.63,0,0,1,.57,1.8A2.71,2.71,0,0,1,106.8,57a1.79,1.79,0,0,1-1.39.66,1.58,1.58,0,0,1-.71-.16,2.37,2.37,0,0,1-.7-.5v2.38h-1.2ZM104,55.14a1.83,1.83,0,0,0,.31,1.18,1,1,0,0,0,.76.38.9.9,0,0,0,.72-.35,1.81,1.81,0,0,0,.29-1.15,1.72,1.72,0,0,0-.3-1.1.92.92,0,0,0-.73-.36,1,1,0,0,0-.76.35,1.58,1.58,0,0,0-.3,1Zm7.06.94,1.24.21a2,2,0,0,1-.75,1,2.21,2.21,0,0,1-1.29.36,2.09,2.09,0,0,1-1.81-.81,2.72,2.72,0,0,1-.46-1.63,2.62,2.62,0,0,1,.61-1.84,2,2,0,0,1,1.54-.67,2.08,2.08,0,0,1,1.65.7,3.1,3.1,0,0,1,.58,2.13h-3.11a1.27,1.27,0,0,0,.3.87.94.94,0,0,0,.72.31.76.76,0,0,0,.49-.16,1,1,0,0,0,.3-.52Zm.07-1.26a1.21,1.21,0,0,0-.28-.83.89.89,0,0,0-1.32,0,1.16,1.16,0,0,0-.26.81Zm3.18-.52-1.13-.2a1.77,1.77,0,0,1,.65-1,2.38,2.38,0,0,1,1.38-.33,3,3,0,0,1,1.24.2,1.24,1.24,0,0,1,.57.5,2.61,2.61,0,0,1,.17,1.12V56a5.08,5.08,0,0,0,.06.92,2.68,2.68,0,0,0,.22.63h-1.23a.988.988,0,0,0-.12-.37v-.15a2.24,2.24,0,0,1-.68.47,1.94,1.94,0,0,1-.77.16,1.59,1.59,0,0,1-1.14-.4,1.32,1.32,0,0,1-.42-1,1.35,1.35,0,0,1,.19-.71,1.24,1.24,0,0,1,.53-.48,4.17,4.17,0,0,1,1-.29A6.7,6.7,0,0,0,116,54.5v-.12a.65.65,0,0,0-.18-.51,1.06,1.06,0,0,0-.67-.15.89.89,0,0,0-.52.13.91.91,0,0,0-.3.46Zm1.66,1a7.662,7.662,0,0,1-.76.19,2.27,2.27,0,0,0-.68.22.52.52,0,0,0-.24.44.61.61,0,0,0,.19.45.67.67,0,0,0,.5.19,1.07,1.07,0,0,0,.64-.22.78.78,0,0,0,.3-.41,2.51,2.51,0,0,0,0-.61Zm6.72,2.27h-1.24v-2.4a3.78,3.78,0,0,0-.08-1,.7.7,0,0,0-.26-.35.74.74,0,0,0-.43-.12,1,1,0,0,0-.58.18.9.9,0,0,0-.35.47,4.1,4.1,0,0,0-.09,1.09v2.14h-1.24V52.86h1.15v.69a1.91,1.91,0,0,1,2.3-.65,1.26,1.26,0,0,1,.51.38,1.39,1.39,0,0,1,.24.53,3.94,3.94,0,0,1,.07.84Zm3.77-6.53h1.31V54.6a7.312,7.312,0,0,0,0,1.09,1.06,1.06,0,0,0,.4.64,1.38,1.38,0,0,0,.86.24,1.31,1.31,0,0,0,.84-.23.91.91,0,0,0,.34-.56,7.422,7.422,0,0,0,.06-1.11V51.06h1.31v3.43a8.9,8.9,0,0,1-.11,1.66,1.85,1.85,0,0,1-.39.82,2,2,0,0,1-.76.53,3.29,3.29,0,0,1-1.25.2,3.56,3.56,0,0,1-1.41-.22,2,2,0,0,1-.76-.56,1.8,1.8,0,0,1-.37-.72,8,8,0,0,1-.13-1.66Zm10.81,6.53h-1.24v-2.4a3.771,3.771,0,0,0-.08-1,.7.7,0,0,0-.26-.35.74.74,0,0,0-.43-.12,1,1,0,0,0-.58.18.9.9,0,0,0-.35.47,4.089,4.089,0,0,0-.09,1.09v2.14H133V52.86h1.15v.69a1.91,1.91,0,0,1,2.3-.65,1.26,1.26,0,0,1,.51.38,1.39,1.39,0,0,1,.24.53,3.939,3.939,0,0,1,.07.84Zm1.26-5.37V51.06h1.24v1.16Zm0,5.37V52.86h1.24v4.73Zm2.22-2.43a2.57,2.57,0,0,1,.3-1.21,2.1,2.1,0,0,1,.86-.89,2.55,2.55,0,0,1,1.25-.31,2.34,2.34,0,0,1,1.75.7,2.42,2.42,0,0,1,.68,1.76,2.45,2.45,0,0,1-.69,1.78,2.32,2.32,0,0,1-1.73.71A2.71,2.71,0,0,1,142,57.4a2,2,0,0,1-.89-.86,2.88,2.88,0,0,1-.3-1.38Zm1.27.07a1.57,1.57,0,0,0,.33,1.08,1.08,1.08,0,0,0,1.63,0,1.6,1.6,0,0,0,.33-1.09,1.57,1.57,0,0,0-.33-1.07,1.08,1.08,0,0,0-1.63,0A1.57,1.57,0,0,0,142.02,55.21Zm8.82,2.36H149.6v-2.4a3.771,3.771,0,0,0-.08-1,.7.7,0,0,0-.26-.35.74.74,0,0,0-.43-.12,1,1,0,0,0-.58.18.9.9,0,0,0-.35.47,4.089,4.089,0,0,0-.09,1.09v2.14H146.6V52.86h1.15v.69a1.91,1.91,0,0,1,2.3-.65,1.26,1.26,0,0,1,.51.38,1.39,1.39,0,0,1,.24.53,3.939,3.939,0,0,1,.07.84Z" transform="translate(-0.63 -1.24)"/><path d="M92.74,63.88V59.79h3v.48H93.28v1.25h2.26V62H93.28v1.4h2.5v.48Zm5.67,0v-.44a1.08,1.08,0,0,1-.94.5,1.19,1.19,0,0,1-.49-.1.8.8,0,0,1-.34-.25.94.94,0,0,1-.15-.37,2.52,2.52,0,0,1,0-.47V60.92H97v1.64a2.929,2.929,0,0,0,0,.53.52.52,0,0,0,.2.31.62.62,0,0,0,.38.11A.82.82,0,0,0,98,63.4a.65.65,0,0,0,.28-.32,1.6,1.6,0,0,0,.08-.58V60.92h.5v3Zm1.23,0v-3h.45v.45a1.23,1.23,0,0,1,.32-.42.56.56,0,0,1,.32-.1,1,1,0,0,1,.51.16l-.17.47a.72.72,0,0,0-.37-.11.48.48,0,0,0-.3.1.54.54,0,0,0-.19.27,2,2,0,0,0-.08.59v1.55Zm1.72-1.48a1.53,1.53,0,0,1,.46-1.22,1.37,1.37,0,0,1,.93-.33,1.32,1.32,0,0,1,1,.4,1.53,1.53,0,0,1,.39,1.11,2,2,0,0,1-.17.9,1.21,1.21,0,0,1-.5.51,1.45,1.45,0,0,1-.71.18,1.33,1.33,0,0,1-1-.4,1.6,1.6,0,0,1-.38-1.15Zm.52,0a1.27,1.27,0,0,0,.25.85.82.82,0,0,0,1.24,0,1.3,1.3,0,0,0,.25-.87,1.23,1.23,0,0,0-.25-.83.82.82,0,0,0-1.24,0,1.26,1.26,0,0,0-.25.85Zm2.84,2.6V60.9h.46v.39a1.13,1.13,0,0,1,.36-.34,1,1,0,0,1,.49-.11,1.17,1.17,0,0,1,.67.2,1.2,1.2,0,0,1,.44.55,2.142,2.142,0,0,1-.01,1.6,1.23,1.23,0,0,1-.47.56,1.21,1.21,0,0,1-.65.19.94.94,0,0,1-.45-.11,1,1,0,0,1-.33-.27V65Zm.45-2.6a1.29,1.29,0,0,0,.23.85.71.71,0,0,0,.56.27.72.72,0,0,0,.57-.28,1.35,1.35,0,0,0,.24-.88,1.31,1.31,0,0,0-.23-.85.7.7,0,0,0-.56-.28.72.72,0,0,0-.57.3,1.34,1.34,0,0,0-.25.87Zm4.74.51.52.06a1.27,1.27,0,0,1-.45.71,1.5,1.5,0,0,1-1.85-.15,1.57,1.57,0,0,1-.38-1.12,1.64,1.64,0,0,1,.38-1.16,1.3,1.3,0,0,1,1-.41,1.26,1.26,0,0,1,1,.4,1.62,1.62,0,0,1,.38,1.14s0,.07,0,.13h-2.2a1.14,1.14,0,0,0,.28.75.82.82,0,0,0,.62.26.76.76,0,0,0,.47-.15,1,1,0,0,0,.31-.46Zm-1.64-.81h1.65a1,1,0,0,0-.19-.56.77.77,0,0,0-.62-.29.8.8,0,0,0-.58.23.92.92,0,0,0-.26.62Zm4.72,1.4a1.87,1.87,0,0,1-.54.34,1.55,1.55,0,0,1-.55.1,1.07,1.07,0,0,1-.75-.24.79.79,0,0,1-.26-.61.81.81,0,0,1,.1-.4.82.82,0,0,1,.26-.29,1.22,1.22,0,0,1,.36-.16l.45-.08A4.54,4.54,0,0,0,113,62v-.13a.56.56,0,0,0-.14-.43.84.84,0,0,0-.57-.17.88.88,0,0,0-.52.12.76.76,0,0,0-.25.44l-.49-.07a1.22,1.22,0,0,1,.22-.51,1,1,0,0,1,.44-.3,2,2,0,0,1,.67-.1,1.78,1.78,0,0,1,.62.09.81.81,0,0,1,.35.22.8.8,0,0,1,.16.34,2.891,2.891,0,0,1,0,.46v.67a7.1,7.1,0,0,0,0,.89,1.12,1.12,0,0,0,.13.36h-.52a1.06,1.06,0,0,1-.1-.37Zm0-1.12a3.67,3.67,0,0,1-.82.19,1.91,1.91,0,0,0-.44.1.43.43,0,0,0-.2.16.45.45,0,0,0,.08.57.65.65,0,0,0,.44.13,1,1,0,0,0,.51-.13.79.79,0,0,0,.33-.35,1.23,1.23,0,0,0,.08-.5Zm1.29,1.49v-3h.45v.42a1.06,1.06,0,0,1,.94-.49,1.24,1.24,0,0,1,.49.1.78.78,0,0,1,.34.25,1,1,0,0,1,.16.37,2.911,2.911,0,0,1,0,.49v1.82h-.5v-1.8a1.37,1.37,0,0,0-.06-.46.49.49,0,0,0-.21-.24.66.66,0,0,0-.35-.09.81.81,0,0,0-.55.2,1,1,0,0,0-.23.77v1.62Zm4.83,0V59.79h1.81a2.4,2.4,0,0,1,.83.11.91.91,0,0,1,.45.39,1.17,1.17,0,0,1,.17.62,1,1,0,0,1-.28.73,1.42,1.42,0,0,1-.87.38,1.41,1.41,0,0,1,.33.2,2.839,2.839,0,0,1,.45.54l.71,1.11H122l-.54-.85q-.24-.37-.39-.56a1.25,1.25,0,0,0-.27-.27.82.82,0,0,0-.25-.11h-.93V63.9Zm.54-2.29h1.16a1.72,1.72,0,0,0,.58-.08.62.62,0,0,0,.32-.25.67.67,0,0,0,.11-.37.61.61,0,0,0-.21-.48,1,1,0,0,0-.66-.19h-1.29Zm5.53,1.33.52.06a1.27,1.27,0,0,1-.45.71,1.5,1.5,0,0,1-1.85-.15,1.57,1.57,0,0,1-.38-1.12,1.64,1.64,0,0,1,.38-1.16,1.3,1.3,0,0,1,1-.41,1.26,1.26,0,0,1,1,.4,1.62,1.62,0,0,1,.38,1.14v.13h-2.2a1.14,1.14,0,0,0,.28.75.82.82,0,0,0,.62.26.76.76,0,0,0,.47-.15,1,1,0,0,0,.31-.46Zm-1.64-.81h1.65a1,1,0,0,0-.19-.56.77.77,0,0,0-.62-.29.8.8,0,0,0-.58.23.92.92,0,0,0-.26.62Zm2.7,2,.49.07a.47.47,0,0,0,.17.33.84.84,0,0,0,.51.14.9.9,0,0,0,.54-.14.69.69,0,0,0,.26-.39,3.251,3.251,0,0,0,0-.64,1,1,0,0,1-.82.39,1.11,1.11,0,0,1-.94-.44,1.7,1.7,0,0,1-.33-1.06,2,2,0,0,1,.15-.78,1.23,1.23,0,0,1,.44-.55,1.2,1.2,0,0,1,.68-.2,1.06,1.06,0,0,1,.86.42v-.36h.46v2.56a2.45,2.45,0,0,1-.14,1,1,1,0,0,1-.45.46,1.54,1.54,0,0,1-.75.17,1.41,1.41,0,0,1-.85-.24.81.81,0,0,1-.31-.72Zm.41-1.78a1.29,1.29,0,0,0,.23.85.73.73,0,0,0,.58.27.74.74,0,0,0,.58-.27,1.25,1.25,0,0,0,.23-.84,1.22,1.22,0,0,0-.24-.82.75.75,0,0,0-.58-.28.72.72,0,0,0-.57.27,1.21,1.21,0,0,0-.23.81Zm2.85-2v-.58h.5v.58Zm0,3.52v-3h.5v3Zm1.08-1.48a1.53,1.53,0,0,1,.46-1.22,1.37,1.37,0,0,1,.93-.33,1.32,1.32,0,0,1,1,.4,1.53,1.53,0,0,1,.39,1.11,2,2,0,0,1-.17.9,1.21,1.21,0,0,1-.5.51,1.45,1.45,0,0,1-.71.18,1.33,1.33,0,0,1-1-.4,1.6,1.6,0,0,1-.38-1.15Zm.52,0a1.26,1.26,0,0,0,.25.85.82.82,0,0,0,1.24,0,1.3,1.3,0,0,0,.25-.87,1.23,1.23,0,0,0-.25-.83.82.82,0,0,0-1.24,0A1.26,1.26,0,0,0,131.1,62.36Zm2.84,1.48v-3h.45v.42a1.06,1.06,0,0,1,.94-.49,1.24,1.24,0,0,1,.49.1.78.78,0,0,1,.34.25,1,1,0,0,1,.16.37,2.913,2.913,0,0,1,0,.49V63.8h-.5V62a1.37,1.37,0,0,0-.06-.46.49.49,0,0,0-.21-.24.66.66,0,0,0-.35-.09.81.81,0,0,0-.55.2,1,1,0,0,0-.23.77V63.8Zm5.1-.37a1.87,1.87,0,0,1-.54.34,1.55,1.55,0,0,1-.55.1,1.07,1.07,0,0,1-.75-.24.79.79,0,0,1-.26-.61.81.81,0,0,1,.1-.4.82.82,0,0,1,.26-.29,1.22,1.22,0,0,1,.36-.16l.45-.08A4.54,4.54,0,0,0,139,62v-.13a.56.56,0,0,0-.14-.43.84.84,0,0,0-.57-.17.88.88,0,0,0-.52.12.76.76,0,0,0-.25.44l-.49-.07a1.22,1.22,0,0,1,.22-.51,1,1,0,0,1,.44-.3,2,2,0,0,1,.67-.1,1.78,1.78,0,0,1,.62.09.81.81,0,0,1,.35.22.8.8,0,0,1,.16.34,2.89,2.89,0,0,1,0,.46v.67a7.075,7.075,0,0,0,0,.89,1.11,1.11,0,0,0,.13.36h-.52a1.06,1.06,0,0,1-.1-.37Zm0-1.12a3.67,3.67,0,0,1-.82.19,1.911,1.911,0,0,0-.44.1.43.43,0,0,0-.2.16.45.45,0,0,0,.08.57.65.65,0,0,0,.44.13,1,1,0,0,0,.51-.13.79.79,0,0,0,.33-.35,1.23,1.23,0,0,0,.08-.5Zm1.27,1.49V59.79h.5v4.09Z" transform="translate(-0.63 -1.24)"/><path d="M93.06,71V66.94h1.41a3.41,3.41,0,0,1,.73.06,1.39,1.39,0,0,1,.6.29,1.67,1.67,0,0,1,.48.7,2.75,2.75,0,0,1,.16,1,2.87,2.87,0,0,1-.11.83,2,2,0,0,1-.28.6,1.48,1.48,0,0,1-.37.37,1.51,1.51,0,0,1-.49.21,2.77,2.77,0,0,1-.66.07Zm.54-.48h.87a2.09,2.09,0,0,0,.63-.08.9.9,0,0,0,.37-.21,1.29,1.29,0,0,0,.3-.52,2.55,2.55,0,0,0,.11-.79,1.92,1.92,0,0,0-.21-1,1.06,1.06,0,0,0-.51-.46,2.12,2.12,0,0,0-.7-.08H93.6Zm5.54-.47.52.06a1.27,1.27,0,0,1-.45.71,1.5,1.5,0,0,1-1.85-.15,1.57,1.57,0,0,1-.38-1.12,1.64,1.64,0,0,1,.38-1.16,1.3,1.3,0,0,1,1-.41,1.26,1.26,0,0,1,1,.4,1.62,1.62,0,0,1,.38,1.14v.13h-2.2a1.14,1.14,0,0,0,.28.75.82.82,0,0,0,.62.26.76.76,0,0,0,.47-.15,1,1,0,0,0,.31-.46Zm-1.64-.81h1.65A1,1,0,0,0,99,68.7a.77.77,0,0,0-.62-.29.8.8,0,0,0-.58.23.92.92,0,0,0-.26.62ZM101.11,71l-1.12-3h.53l.63,1.78q.1.29.19.6.07-.23.19-.56l.66-1.81h.51l-1.12,3Zm4.05-1,.52.06a1.27,1.27,0,0,1-.45.71,1.5,1.5,0,0,1-1.85-.15A1.57,1.57,0,0,1,103,69.5a1.64,1.64,0,0,1,.38-1.16,1.3,1.3,0,0,1,1-.41,1.26,1.26,0,0,1,1,.4,1.62,1.62,0,0,1,.38,1.14v.13h-2.2a1.14,1.14,0,0,0,.28.75.82.82,0,0,0,.62.26.76.76,0,0,0,.47-.15,1,1,0,0,0,.31-.46Zm-1.64-.81h1.65a1,1,0,0,0-.19-.56.77.77,0,0,0-.62-.29.8.8,0,0,0-.58.23.92.92,0,0,0-.26.62ZM106.3,71V66.94h.5V71Zm1.09-1.48a1.53,1.53,0,0,1,.46-1.22,1.37,1.37,0,0,1,.93-.33,1.32,1.32,0,0,1,1,.4,1.53,1.53,0,0,1,.39,1.11,2,2,0,0,1-.17.9,1.21,1.21,0,0,1-.5.51,1.45,1.45,0,0,1-.71.18,1.33,1.33,0,0,1-1-.4,1.6,1.6,0,0,1-.38-1.15Zm.52,0a1.27,1.27,0,0,0,.25.85.82.82,0,0,0,1.24,0,1.3,1.3,0,0,0,.25-.87,1.23,1.23,0,0,0-.25-.83.82.82,0,0,0-1.24,0,1.26,1.26,0,0,0-.25.85Zm2.84,2.62v-4.1h.46v.39a1.13,1.13,0,0,1,.36-.34,1,1,0,0,1,.49-.11,1.17,1.17,0,0,1,.67.2,1.2,1.2,0,0,1,.44.55,2.142,2.142,0,0,1-.01,1.6,1.23,1.23,0,0,1-.47.56,1.21,1.21,0,0,1-.65.19.94.94,0,0,1-.45-.11,1,1,0,0,1-.33-.27v1.44Zm.45-2.6a1.29,1.29,0,0,0,.23.85.71.71,0,0,0,.56.27.72.72,0,0,0,.57-.28,1.35,1.35,0,0,0,.24-.88,1.31,1.31,0,0,0-.23-.85.7.7,0,0,0-.56-.28.72.72,0,0,0-.57.3,1.34,1.34,0,0,0-.25.87ZM113.92,71V68h.45v.42a1.093,1.093,0,0,1,1.44-.34.73.73,0,0,1,.3.38A1.06,1.06,0,0,1,117,68a.9.9,0,0,1,.68.24,1,1,0,0,1,.24.75v2h-.5V69.16a1.38,1.38,0,0,0,0-.43.42.42,0,0,0-.18-.21.55.55,0,0,0-.3-.08.7.7,0,0,0-.52.21.92.92,0,0,0-.21.67V71h-.5V69.1a.85.85,0,0,0-.12-.5.46.46,0,0,0-.4-.17.73.73,0,0,0-.39.11.63.63,0,0,0-.26.33,1.84,1.84,0,0,0-.08.62V71Zm6.78-1,.52.06a1.27,1.27,0,0,1-.45.71,1.5,1.5,0,0,1-1.85-.15,1.57,1.57,0,0,1-.38-1.12,1.64,1.64,0,0,1,.38-1.16,1.3,1.3,0,0,1,1-.41,1.26,1.26,0,0,1,1,.4,1.62,1.62,0,0,1,.38,1.14v.13H119a1.14,1.14,0,0,0,.28.75.82.82,0,0,0,.62.26.76.76,0,0,0,.47-.15,1,1,0,0,0,.31-.46Zm-1.64-.81h1.65a1,1,0,0,0-.19-.56.77.77,0,0,0-.62-.29.8.8,0,0,0-.58.23.92.92,0,0,0-.26.62ZM121.85,71V68h.45v.42a1.06,1.06,0,0,1,.94-.49,1.24,1.24,0,0,1,.49.1.78.78,0,0,1,.34.25,1,1,0,0,1,.16.37,2.909,2.909,0,0,1,0,.49V71h-.5V69.2a1.37,1.37,0,0,0-.06-.46.49.49,0,0,0-.21-.24.66.66,0,0,0-.35-.09.81.81,0,0,0-.55.2,1,1,0,0,0-.23.77V71Zm4.27-.45.07.44a1.89,1.89,0,0,1-.38,0,.86.86,0,0,1-.42-.09.48.48,0,0,1-.21-.23,1.8,1.8,0,0,1-.06-.59V68.46h-.37v-.39h.37v-.73l.5-.3v1h.5v.39h-.5v1.73a.88.88,0,0,0,0,.28.21.21,0,0,0,.09.1.33.33,0,0,0,.17,0h.22Zm2.16.45V66.94H131v.48h-2.21v1.27h1.91v.48h-1.91V71Zm5.33,0v-.4a1.08,1.08,0,0,1-.94.5,1.2,1.2,0,0,1-.49-.1.8.8,0,0,1-.34-.25.94.94,0,0,1-.15-.37,2.519,2.519,0,0,1,0-.47V68.07h.5v1.64a2.921,2.921,0,0,0,0,.53.52.52,0,0,0,.2.31.62.62,0,0,0,.38.11.82.82,0,0,0,.42-.12.65.65,0,0,0,.28-.32,1.6,1.6,0,0,0,.08-.58V68.07h.5v3Zm1.24,0V68h.45v.42a1.06,1.06,0,0,1,.94-.49,1.24,1.24,0,0,1,.49.1.78.78,0,0,1,.34.25,1,1,0,0,1,.16.37,2.9,2.9,0,0,1,0,.49V71h-.5V69.2a1.37,1.37,0,0,0-.06-.46.49.49,0,0,0-.21-.24.66.66,0,0,0-.35-.09.81.81,0,0,0-.55.2,1,1,0,0,0-.23.77V71Zm5.09,0v-.37a.92.92,0,0,1-.83.44,1.16,1.16,0,0,1-.65-.2,1.28,1.28,0,0,1-.46-.55,1.88,1.88,0,0,1-.16-.81,2.11,2.11,0,0,1,.15-.81,1.148,1.148,0,0,1,1.1-.74.986.986,0,0,1,.82.4V66.94h.5V71Zm-1.58-1.48a1.29,1.29,0,0,0,.24.85.72.72,0,0,0,.57.28.71.71,0,0,0,.56-.27,1.25,1.25,0,0,0,.23-.82,1.4,1.4,0,0,0-.23-.89.72.72,0,0,0-.58-.28.69.69,0,0,0-.56.27,1.35,1.35,0,0,0-.22.86Z" transform="translate(-0.63 -1.24)"/><path d="M116.56,8.75l-.57,1.75H114.1l1.52,1.11-.57,1.76,1.51-1.08,1.49,1.08-.58-1.76,1.56-1.11h-1.89Z" transform="translate(-0.63 -1.24)" fill="#fc0"/><path d="M101.25,24.09l-.57,1.79H98.79l1.55,1.08-.57,1.75,1.48-1.05,1.52,1.05-.57-1.75,1.52-1.08h-1.89Z" transform="translate(-0.63 -1.24)" fill="#fc0"/><path d="M131.84,24.09l-.57,1.75h-1.89l1.52,1.12-.58,1.75,1.52-1.08,1.48,1.08-.57-1.75,1.55-1.12h-1.89Z" transform="translate(-0.63 -1.24)" fill="#fc0"/><path d="M116.6,39.33l-.58,1.76h-1.88l1.55,1.11-.58,1.75,1.49-1.08,1.51,1.08-.57-1.75,1.52-1.11h-1.89Z" transform="translate(-0.63 -1.24)" fill="#fc0"/><path d="M124.19,10.74l-.58,1.75h-1.89l1.52,1.11-.57,1.76,1.52-1.08,1.51,1.08-.57-1.76,1.52-1.11h-1.89Z" transform="translate(-0.63 -1.24)" fill="#fc0"/><path d="M129.75,16.37l-.57,1.75h-1.89l1.52,1.11-.58,1.76,1.52-1.08,1.52,1.08-.61-1.76,1.55-1.11h-1.89Z" transform="translate(-0.63 -1.24)" fill="#fc0"/><path d="M129.85,31.61l-.57,1.75h-1.89l1.52,1.12-.58,1.75,1.52-1.08,1.48,1.08-.57-1.75,1.55-1.12h-1.89Z" transform="translate(-0.63 -1.24)" fill="#fc0"/><path d="M124.25,37.21,123.68,39h-1.89l1.52,1.08-.58,1.75,1.52-1.08,1.49,1.08-.58-1.75L126.71,39h-1.88Z" transform="translate(-0.63 -1.24)" fill="#fc0"/><path d="M108.94,37.21l-.57,1.75h-1.89l1.55,1.12-.57,1.75,1.48-1.08,1.52,1.08-.57-1.75,1.51-1.12h-1.88Z" transform="translate(-0.63 -1.24)" fill="#fc0"/><path d="M103.34,31.58l-.57,1.78h-1.89l1.52,1.08-.57,1.76,1.51-1.05,1.52,1.05-.57-1.76,1.52-1.08h-1.89Z" transform="translate(-0.63 -1.24)" fill="#fc0"/><path d="M103.31,16.37l-.57,1.75h-1.89l1.55,1.11-.57,1.76,1.48-1.08,1.52,1.08-.58-1.76,1.52-1.11h-1.89Z" transform="translate(-0.63 -1.24)" fill="#fc0"/><path d="M108.94,10.74l-.57,1.78h-1.89L108,13.64l-.58,1.75,1.52-1.08,1.52,1.08-.57-1.75,1.51-1.12h-1.88Z" transform="translate(-0.63 -1.24)" fill="#fc0"/></svg>