<svg xmlns="http://www.w3.org/2000/svg" width="100%" height="100%" viewBox="0 0 117.712 71.75"><path d="M187.855,287.1c3.69-7.467,9.485-11.759,17.79-11.753,8.281,0,14.06,4.284,17.737,11.718.086-.161.182-.32.26-.487a19.14,19.14,0,0,1,29.57-6.932,31.6,31.6,0,0,1,2.484,2.429,1.651,1.651,0,0,1,.55,1.19,1.454,1.454,0,0,1-2.332,1.207,3.2,3.2,0,0,1-.471-.474,16.063,16.063,0,0,0-13.857-5.646,15.538,15.538,0,0,0-6.486,2.054,15.729,15.729,0,0,0-7.806,10.514,15.98,15.98,0,0,0,4.881,15.864,15.141,15.141,0,0,0,8.7,4.126,16.01,16.01,0,0,0,13.676-4.583,1.414,1.414,0,0,1,1.924-.232,1.454,1.454,0,0,1,.53,1.731,2.071,2.071,0,0,1-.452.636,18.521,18.521,0,0,1-9.184,5.089,18.94,18.94,0,0,1-5.965.4,18.587,18.587,0,0,1-10.551-4.369A18.934,18.934,0,0,1,221.936,295a16.784,16.784,0,0,0-3.7-10.646,15.806,15.806,0,0,0-10.372-5.921,16.11,16.11,0,0,0-17.881,11.841,15.925,15.925,0,0,0,4.456,16.262,15.973,15.973,0,0,0,16.557,3.592,8.217,8.217,0,0,1,.864-.285,1.418,1.418,0,0,1,1.754.92,1.4,1.4,0,0,1-.8,1.822,26.587,26.587,0,0,1-3.353,1.052,17.567,17.567,0,0,1-6.275.269,18.51,18.51,0,0,1-7.758-2.813,19.135,19.135,0,0,1-8.677-12.825,17.935,17.935,0,0,1-.294-3.221,16.687,16.687,0,0,0-3.08-9.868,16.221,16.221,0,0,0-29.2,6.482,15.4,15.4,0,0,0-.25,2.733c-.02,7.575-.009,15.149-.015,22.724a3.784,3.784,0,0,1-.117,1.026,1.409,1.409,0,0,1-1.552.994,1.433,1.433,0,0,1-1.274-1.4c-.011-.285,0-.572,0-.858,0-7.513-.023-15.029,0-22.54a19.3,19.3,0,0,1,15.1-18.583A19.242,19.242,0,0,1,187.572,286.5Z" transform="translate(-145.858 -270.2)" fill="#fff"/><path d="M159.175,249.287a23.9,23.9,0,0,1,17.765-7.627,23.339,23.339,0,0,1,17.756,7.562c.176-.152.343-.294.492-.446a24.211,24.211,0,0,1,39.313,7.458c.041.093.086.185.12.281a1.478,1.478,0,0,1-.836,2.063c-1.668.735-3.35,1.441-5.027,2.154l-20.57,8.756q-2.543,1.084-5.09,2.16c-.128.055-.251.118-.435.206.2.316.367.616.571.888a11.116,11.116,0,0,0,16.4,1.888c.215-.185.41-.4.631-.575a1.479,1.479,0,0,1,2.013,2.166,13.38,13.38,0,0,1-3.791,2.719,13.564,13.564,0,0,1-7.969,1.3A13.9,13.9,0,0,1,199.6,272.42c-.095-.181-.178-.367-.254-.556a1.523,1.523,0,0,1,.912-2.224q7.88-3.363,15.765-6.717l14.539-6.186c.221-.094.437-.2.724-.337-.11-.237-.193-.455-.3-.662a21.363,21.363,0,0,0-11.382-9.817,20.315,20.315,0,0,0-6.278-1.258,20.762,20.762,0,0,0-15.028,5.262,30.8,30.8,0,0,0-2.373,2.45,1.722,1.722,0,0,1-1.227.7,1.4,1.4,0,0,1-1.26-.607,18.318,18.318,0,0,0-8.082-6.251,19.55,19.55,0,0,0-5.328-1.384,25.165,25.165,0,0,0-3.144-.226,21.184,21.184,0,0,0-16.329,7.63,2.5,2.5,0,0,1-.83.686,1.427,1.427,0,0,1-1.742-.471,25.248,25.248,0,0,0-4.517-3.886,22.217,22.217,0,0,0-9.816-3.815,19.755,19.755,0,0,0-5.5.112,20.773,20.773,0,0,0-10.114,4.481,21.259,21.259,0,0,0-7.665,12.895,21.594,21.594,0,0,0-.355,4.015q.011,11.178,0,22.357a5.934,5.934,0,0,1-.012.673,1.471,1.471,0,0,1-2.93-.009,2.6,2.6,0,0,1-.009-.3c0-7.839-.036-15.68.02-23.52a22.679,22.679,0,0,1,2.648-10.455A24,24,0,0,1,135.8,242.309a22.338,22.338,0,0,1,6.8-.607,25.561,25.561,0,0,1,15.078,6.341c.468.389.912.806,1.369,1.214C159.065,249.266,159.089,249.264,159.175,249.287Z" transform="translate(-117.053 -241.655)" fill="#fff"/><path d="M458.462,344.973c0,.489.012.9,0,1.3a1.431,1.431,0,0,1-2.833.287,14.335,14.335,0,0,1-.1-1.766,4.628,4.628,0,0,0-.093-1.629c-.2-.433-.753-.7-1.162-1.037-.23-.191-.465-.376-.777-.63-.021.276-.045.455-.045.621,0,1.307.009,2.614,0,3.92a1.489,1.489,0,0,1-1.143,1.6,1.4,1.4,0,0,1-1.231-.25,1.43,1.43,0,0,1-.548-1.139c-.014-1.266,0-2.532,0-3.8s.011-2.491-.011-3.736a1.566,1.566,0,0,0-.2-.738c-.61-1.034-1.25-2.049-1.879-3.071a2.08,2.08,0,0,0-.19-.206v10.718a4.1,4.1,0,0,1-.084.911,1.441,1.441,0,0,1-1.522,1.133,1.41,1.41,0,0,1-1.325-1.416c-.009-.184,0-.367,0-.551,0-7.439-.024-14.865.017-22.3a10.849,10.849,0,0,0-1.337-5.33,11.018,11.018,0,0,0-17.865-2.394,10.539,10.539,0,0,0-2.982,6.1,11.064,11.064,0,0,0,3.943,10.323,10.613,10.613,0,0,0,7.817,2.581,9.89,9.89,0,0,0,3.187-.694,2.173,2.173,0,0,1,.64-.168,1.422,1.422,0,0,1,1.606,1.084,1.461,1.461,0,0,1-.956,1.764,18.313,18.313,0,0,1-2.915.823,13.254,13.254,0,0,1-6.361-.419,13.81,13.81,0,0,1-9.617-10.3,14.11,14.11,0,1,1,27.41-6.705,14.958,14.958,0,0,1,.471,3.378,22.282,22.282,0,0,0,2.258,9.441,21.144,21.144,0,0,0,30.645,8.586,20.1,20.1,0,0,0,3.4-2.76,1.528,1.528,0,0,1,1.134-.5,1.373,1.373,0,0,1,1.295.759,1.413,1.413,0,0,1-.071,1.518,4.334,4.334,0,0,1-.646.727,24.194,24.194,0,0,1-27.619,4.076A2.286,2.286,0,0,0,458.462,344.973Z" transform="translate(-374.45 -298.748)" fill="#fff"/><path d="M222.9,344.837c0,.495.011.9,0,1.307a1.439,1.439,0,1,1-2.879.015c-.027-.815-.05-1.633-.024-2.447a1.148,1.148,0,0,0-.545-1.123c-.5-.332-.952-.75-1.515-1.2-.021.279-.048.468-.048.656V345.9a1.49,1.49,0,0,1-1.113,1.618,1.409,1.409,0,0,1-1.259-.246,1.435,1.435,0,0,1-.548-1.169c-.011-2.125-.053-4.251.017-6.376a3.966,3.966,0,0,0-.888-2.865,19.154,19.154,0,0,1-1.275-1.964v10.687c0,.2.009.41-.011.607a1.47,1.47,0,0,1-2.936-.032c-.015-.2,0-.408,0-.607,0-7.431-.032-14.862.011-22.291a11.343,11.343,0,0,0-9.035-11.216,11.264,11.264,0,0,0-13.258,9.35,10.367,10.367,0,0,0-.08,1.588v22.292a6.662,6.662,0,0,1-.084,1.095,1.471,1.471,0,0,1-1.459,1.222,1.443,1.443,0,0,1-1.393-1.214,4.794,4.794,0,0,1-.059-.792V323.171a14.145,14.145,0,0,1,10.605-13.852,14.141,14.141,0,0,1,17.583,12.195c.071.647.095,1.3.108,1.952a21.526,21.526,0,0,0,13.875,19.8,20.588,20.588,0,0,0,5.966,1.283,21.037,21.037,0,0,0,9.267-1.447,2.692,2.692,0,0,1,.346-.112,1.474,1.474,0,0,1,1.768.926,1.4,1.4,0,0,1-.733,1.794,31.763,31.763,0,0,1-3.159,1.078,21.365,21.365,0,0,1-6.234.8,23.651,23.651,0,0,1-10.417-2.482C223.331,345.027,223.163,344.958,222.9,344.837Z" transform="translate(-174.361 -298.635)" fill="#fff"/><path d="M670.179,308.962a13.754,13.754,0,0,1,9.408,3.628,2.089,2.089,0,0,1,.577.835,1.405,1.405,0,0,1-.852,1.8c-1.018.455-2.051.868-3.077,1.3q-8.822,3.7-17.648,7.388a3.44,3.44,0,0,1-1.1.293,1.255,1.255,0,0,1-1.4-1.214,9.547,9.547,0,0,1,.176-2.364,14.023,14.023,0,0,1,10.262-11.2A11.515,11.515,0,0,1,670.179,308.962Zm-10.826,11.419,16.4-6.865c-5.808-3.709-14.45-.7-16.4,6.871Z" transform="translate(-574.919 -298.739)" fill="#fff"/><path d="M765.93,646.217c.026-.37.032-.635.066-.9a.4.4,0,0,1,.452-.4c.274.017.375.208.382.455v.674c0,1.822-.033,3.634.009,5.45.056,2.474-1.656,3.992-4.274,3.807a5.67,5.67,0,0,1-2.63-.855,2.1,2.1,0,0,1-.256-.164c-.2-.172-.334-.38-.161-.636a.436.436,0,0,1,.6-.112,3.494,3.494,0,0,1,.364.219,4.723,4.723,0,0,0,3.2.677A2.572,2.572,0,0,0,765.946,652c.021-.384,0-.77,0-1.214-.318.266-.583.507-.867.724a3.761,3.761,0,0,1-5.486-4.937,3.862,3.862,0,0,1,5.766-.9C765.527,645.833,765.678,645.986,765.93,646.217Zm-3.019-.648a3.107,3.107,0,0,0-2.349,1.149,2.964,2.964,0,0,0,3.871,4.331,2.77,2.77,0,0,0,1.6-2.605,2.69,2.69,0,0,0-1.784-2.532,9.3,9.3,0,0,0-1.339-.343Z" transform="translate(-662.405 -583.569)" fill="#fff"/><path d="M221.709,652.314c.125-.316.214-.516.285-.724q.857-2.547,1.7-5.09a2.984,2.984,0,0,1,.209-.507.441.441,0,0,1,.839.014,4.317,4.317,0,0,1,.233.628q.875,2.581,1.746,5.146c.05.152.12.287.223.531.111-.278.193-.455.256-.642q.869-2.543,1.733-5.087c.059-.173.135-.34.2-.513.093-.266.265-.433.548-.343.33.1.334.369.241.648-.122.367-.242.735-.373,1.1q-.965,2.694-1.936,5.4a3.641,3.641,0,0,1-.233.563.468.468,0,0,1-.864.014,2.861,2.861,0,0,1-.2-.51l-1.807-5.254c-.033-.1-.08-.185-.169-.384-.1.229-.184.377-.238.531l-1.807,5.19a.086.086,0,0,1-.015.059c-.114.276-.164.624-.559.636-.423.014-.506-.331-.617-.641q-1.135-3.162-2.272-6.323a1.663,1.663,0,0,1-.151-.584.546.546,0,0,1,.245-.417.516.516,0,0,1,.474.114,2.038,2.038,0,0,1,.309.656q.93,2.714,1.847,5.433A2.624,2.624,0,0,0,221.709,652.314Z" transform="translate(-203.38 -584.358)" fill="#fff"/><path d="M169.082,649.329a2.736,2.736,0,0,0,.7,1.822,3.046,3.046,0,0,0,4.119.413,5.219,5.219,0,0,1,.634-.466.459.459,0,0,1,.426.04.489.489,0,0,1,.072.428,1.108,1.108,0,0,1-.322.428,4.045,4.045,0,0,1-4.637.512,4.213,4.213,0,0,1-1.932-4.292,4.077,4.077,0,0,1,1.441-2.673,3.505,3.505,0,0,1,5.664,1.961,5.422,5.422,0,0,1,.151,1.087c.02.472-.116.607-.586.676a4.1,4.1,0,0,1-.545.02h-4.429C169.6,649.289,169.367,649.315,169.082,649.329Zm5.378-.934a2.667,2.667,0,1,0-5.322,0Z" transform="translate(-160.406 -583.543)" fill="#fff"/><path d="M817.971,649.468a2.889,2.889,0,0,0,2.179,2.769,3.139,3.139,0,0,0,2.495-.442c.221-.14.414-.325.625-.483s.391-.232.593-.015.083.416-.053.607a1.765,1.765,0,0,1-.253.264,3.929,3.929,0,0,1-6.409-1.846,4.389,4.389,0,0,1,.631-3.9,3.41,3.41,0,0,1,3.44-1.486,3.3,3.3,0,0,1,2.794,2.408,5.48,5.48,0,0,1,.238,1.377c.036.516-.1.642-.614.7a4.692,4.692,0,0,1-.546.015h-4.432A5.406,5.406,0,0,0,817.971,649.468Zm0-.921H823.3a2.718,2.718,0,0,0-2.647-2.859,2.874,2.874,0,0,0-2.69,2.851Z" transform="translate(-711.571 -583.683)" fill="#fff"/><path d="M457.827,649.362a2.92,2.92,0,0,0,2.724,2.856,3.183,3.183,0,0,0,2.258-.745,2.489,2.489,0,0,1,.491-.351.421.421,0,0,1,.382.021.526.526,0,0,1,.113.428.985.985,0,0,1-.312.436,3.872,3.872,0,0,1-4.246.727,3.773,3.773,0,0,1-2.373-3.6,4.189,4.189,0,0,1,1.314-3.419,3.475,3.475,0,0,1,5.358.75,4.678,4.678,0,0,1,.623,2.139c.032.437-.1.6-.53.673a3.947,3.947,0,0,1-.665.038h-4.434C458.3,649.324,458.064,649.346,457.827,649.362Zm-.023-.929h5.33a2.665,2.665,0,0,0-.64-1.932,2.621,2.621,0,0,0-1.811-.9,2.833,2.833,0,0,0-2.879,2.83Z" transform="translate(-405.701 -583.577)" fill="#fff"/><path d="M323,652.108a4.017,4.017,0,0,1-1.929,1.1,3.649,3.649,0,0,1-3.232-.782,2.4,2.4,0,0,1,.489-3.719,3.442,3.442,0,0,1,1.676-.478c.985.015,1.969.068,2.97.106a1.942,1.942,0,0,0-1.933-2.389,4.642,4.642,0,0,0-2.144.3c-.151.061-.3.123-.452.173-.235.077-.452.061-.554-.206s.045-.422.253-.543a.538.538,0,0,1,.056-.026,5.152,5.152,0,0,1,3.893-.3,2.509,2.509,0,0,1,1.8,2.441c.056,1.609.02,3.221.023,4.834,0,.263-.048.5-.364.539-.262.033-.435-.152-.488-.5C323.038,652.488,323.026,652.333,323,652.108Zm-.036-2.834a11.524,11.524,0,0,0-1.257-.244,5.629,5.629,0,0,0-2.454.14,1.621,1.621,0,0,0,.012,3.118,3.115,3.115,0,0,0,1.545.128,2.406,2.406,0,0,0,2.154-3.139Z" transform="translate(-287.042 -583.835)" fill="#fff"/><path d="M661.969,652.172c-.15.123-.233.2-.324.276a3.642,3.642,0,0,1-4.085.527,2.212,2.212,0,0,1-1.4-2.1,2.24,2.24,0,0,1,1.346-2.2,3.7,3.7,0,0,1,1.388-.378c.781-.038,1.57.046,2.355.082.238.011.474.036.706.055A1.974,1.974,0,0,0,660.044,646a4.605,4.605,0,0,0-2.312.358.832.832,0,0,1-.394.132c-.151-.021-.379-.1-.426-.217s.059-.323.128-.477c.027-.061.128-.093.2-.126a5.31,5.31,0,0,1,3.723-.323,2.6,2.6,0,0,1,1.918,2.476c.036,1.609.012,3.221.014,4.832,0,.061.018.141-.012.179-.1.13-.218.331-.345.345a.527.527,0,0,1-.408-.258A2.99,2.99,0,0,1,661.969,652.172Zm.059-2.755a6.979,6.979,0,0,0-3.4-.3,2.893,2.893,0,0,0-.729.294,1.552,1.552,0,0,0,.009,2.775,2.9,2.9,0,0,0,2.852-.011A2.324,2.324,0,0,0,662.028,649.417Z" transform="translate(-574.991 -583.89)" fill="#fff"/><path d="M605.55,628.355c.179-.168.293-.273.4-.383a3.249,3.249,0,0,1,3.655-.668,2.866,2.866,0,0,1,1.75,2.884c0,1.387,0,2.775,0,4.162a1.041,1.041,0,0,1-.02.423c-.071.144-.229.351-.336.343a.662.662,0,0,1-.452-.3,1.118,1.118,0,0,1-.057-.537v-3.734a4.544,4.544,0,0,0-.107-1.089,2.4,2.4,0,0,0-3.815-1.079,2.671,2.671,0,0,0-1.054,2.176v3.734a1.286,1.286,0,0,1-.023.484c-.06.138-.229.351-.342.345a.694.694,0,0,1-.452-.3.922.922,0,0,1-.051-.477V624.66a1.163,1.163,0,0,1,.068-.536.548.548,0,0,1,.408-.264.566.566,0,0,1,.363.323,1.248,1.248,0,0,1,.03.483v3C605.521,627.874,605.536,628.068,605.55,628.355Z" transform="translate(-531.235 -565.838)" fill="#fff"/><path d="M709.668,645.983c.2-.19.345-.326.488-.455a3.188,3.188,0,0,1,3.564-.583,2.77,2.77,0,0,1,1.754,2.815c.009,1.428,0,2.857,0,4.286a.843.843,0,0,1-.017.363.74.74,0,0,1-.331.361.337.337,0,0,1-.3-.043.343.343,0,0,1-.147-.261,3.768,3.768,0,0,1-.056-.668V648a2.444,2.444,0,0,0-.79-1.974,2.573,2.573,0,0,0-4.048,1.257,3.454,3.454,0,0,0-.151,1.023c-.016,1.2,0,2.408-.007,3.612a1.309,1.309,0,0,1-.021.484c-.063.152-.226.352-.337.348a.688.688,0,0,1-.452-.294.919.919,0,0,1-.054-.477v-6.367a1.029,1.029,0,0,1,.054-.478.661.661,0,0,1,.39-.3c.227-.043.376.128.4.36S709.65,645.664,709.668,645.983Z" transform="translate(-619.674 -583.474)" fill="#fff"/><path d="M118.131,646.054a3.851,3.851,0,0,1,.322-.425,3.311,3.311,0,0,1,4.6.1,2.9,2.9,0,0,1,.768,1.945c.032,1.53.021,3.06.017,4.591,0,.427-.158.616-.438.6s-.432-.219-.435-.625c-.009-1.347,0-2.693,0-4.04a3.581,3.581,0,0,0-.065-.85,2.089,2.089,0,0,0-1.635-1.7,2.494,2.494,0,0,0-2.662.879,2.713,2.713,0,0,0-.619,1.752v3.672a3.169,3.169,0,0,1-.027.548c-.039.22-.184.411-.414.34a.907.907,0,0,1-.4-.375c-.057-.085-.021-.238-.021-.36v-6.428c0-.578.126-.791.444-.789.288,0,.39.185.425.748a2.923,2.923,0,0,0,.038.342Z" transform="translate(-117.097 -583.556)" fill="#fff"/><path d="M555.006,653.045a4.13,4.13,0,1,1,2.748-7.168.666.666,0,0,1,.227.349.562.562,0,0,1-.1.434.487.487,0,0,1-.432.056,2.2,2.2,0,0,1-.548-.375,2.878,2.878,0,0,0-3.077-.468,2.946,2.946,0,0,0-1.856,2.594,3.238,3.238,0,0,0,1.561,3.34,2.947,2.947,0,0,0,3.452-.294c.127-.1.238-.223.367-.32.209-.152.444-.253.649-.015s.056.455-.108.65a2.843,2.843,0,0,1-.319.282A3.633,3.633,0,0,1,555.006,653.045Z" transform="translate(-485.669 -583.595)" fill="#fff"/><path d="M510.2,649.857c.792,1,1.549,1.951,2.3,2.907a6.048,6.048,0,0,1,.387.545c.122.2.131.434-.086.527a.6.6,0,0,1-.534-.058,13.917,13.917,0,0,1-.979-1.164c-.467-.589-.926-1.184-1.385-1.779-.074-.1-.133-.205-.239-.372-.482.607-.887,1.1-1.289,1.608-.354.445-.7.894-1.054,1.341-.075.1-.151.19-.233.281-.175.194-.378.339-.632.159-.278-.2-.151-.443,0-.642.3-.411.619-.806.935-1.2.554-.7,1.11-1.394,1.7-2.125-.561-.706-1.1-1.386-1.643-2.068-.239-.3-.479-.607-.712-.911a.9.9,0,0,1-.218-.358c-.023-.152-.012-.4.084-.478a.5.5,0,0,1,.482,0,3.429,3.429,0,0,1,.569.627c.656.824,1.308,1.655,2.011,2.547.479-.6.92-1.146,1.355-1.7.316-.4.625-.8.942-1.2.089-.109.178-.249.3-.294a.532.532,0,0,1,.437.011.467.467,0,0,1,.122.417,1.96,1.96,0,0,1-.352.56C511.721,647.961,510.981,648.877,510.2,649.857Z" transform="translate(-447.687 -584.62)" fill="#fff"/><path d="M402.329,632.847c-.325-.027-.547-.033-.763-.065s-.4-.187-.343-.416a.6.6,0,0,1,.34-.354,3.521,3.521,0,0,1,.753-.106c0-.443.007-.884.015-1.324a5.978,5.978,0,0,1,.032-.732.393.393,0,0,1,.15-.293.386.386,0,0,1,.319-.074.367.367,0,0,1,.27.126.374.374,0,0,1,.09.286c.008.49,0,.979.009,1.469,0,.161.02.32.036.574.367.008.721.018,1.076.023s.73-.011,1.093.009.577.194.542.439c-.042.3-.27.386-.533.389h-2.173c-.017.255-.041.455-.042.647,0,1.347.02,2.695,0,4.041-.027,1.321.61,1.822,1.921,1.659.119-.015.247-.1.352-.071.151.041.375.12.419.238a.494.494,0,0,1-.173.442,2.323,2.323,0,0,1-3.332-1.6,4.3,4.3,0,0,1-.044-.669v-3.92C402.329,633.349,402.329,633.131,402.329,632.847Z" transform="translate(-358.431 -570.601)" fill="#fff"/><path d="M369.787,647.3c.34-.384.6-.718.9-1.01a3.013,3.013,0,0,1,1.883-.888c.423-.032.6.079.643.373s-.111.477-.518.54a3.143,3.143,0,0,0-2.4,1.58,3.884,3.884,0,0,0-.513,1.926v2.754a1.2,1.2,0,0,1-.066.536.551.551,0,0,1-.4.275c-.131,0-.289-.181-.369-.32a.938.938,0,0,1-.027-.42v-6.426c0-.559.1-.752.388-.773.315-.024.468.219.476.768C369.791,646.55,369.787,646.893,369.787,647.3Z" transform="translate(-330.997 -584.104)" fill="#fff"/></svg>