<svg xmlns="http://www.w3.org/2000/svg" width="100%" height="100%" viewBox="0 0 77.921 25.502"><path d="M71.243,23.34a1.179,1.179,0,0,0-1.126,1.3,1.141,1.141,0,1,0,2.267,0,1.187,1.187,0,0,0-1.141-1.3Z" transform="translate(-14.928 -5.009)" fill="#fff"/><path d="M84.2,10a1.671,1.671,0,0,1-.5.157l-.575.126a1.308,1.308,0,0,0-.543.2h0a.479.479,0,0,0-.181.4c0,.33.307.542.685.542s1.118-.243,1.118-.785V10Z" transform="translate(-17.546 -2.146)" fill="#fff"/><path d="M49.693,8.48A1.179,1.179,0,0,0,48.568,9.8a1.889,1.889,0,0,0,.063.471h0a1.054,1.054,0,0,0,1.063.833,1.07,1.07,0,0,0,1.055-.84h0a1.567,1.567,0,0,0,.063-.471A1.171,1.171,0,0,0,49.693,8.48Z" transform="translate(-10.339 -1.82)" fill="#fff"/><path d="M71.372,8.4a1.053,1.053,0,0,0-1.023,1.155,1.474,1.474,0,0,0,.15.636h0a1.016,1.016,0,0,0,1.763,0h0a1.568,1.568,0,0,0,.173-.644A1.053,1.053,0,0,0,71.372,8.4Z" transform="translate(-14.977 -1.803)" fill="#fff"/><path d="M85.679,2.36H36.88l.039,11h48.8Zm-42.227,8.3-1.015-1.7L41.122,6.79l-.275-.463v4.351H39.816V7.669h0V6.224h0V4.567h1.055L42.177,6.79l1.275,2.128V4.551h1.055V7.1h0v3.558ZM49.418,8.9V9a2.228,2.228,0,0,1-4.368-.047h0a3,3,0,0,1-.039-.471A2.423,2.423,0,0,1,45.4,7.1h0l.094-.126.189-.188a2.428,2.428,0,0,1,3.093,0h0a2.353,2.353,0,0,1,.685,1.72,2.6,2.6,0,0,1-.047.393Zm1.944,1.814c-.866,0-1.157-.377-1.157-1.037V7.049h-.638V6.263h.638v-1.5h1.047V6.334h.937v.785h-.945v2.2c0,.338.071.534.472.526a1.584,1.584,0,0,0,.464-.047v.856A3.731,3.731,0,0,1,51.362,10.717Zm3.046,0c-.858,0-1.149-.385-1.157-1.045V7.041h-.638V6.256h.638V4.685H54.29V6.256h.937v.785H54.29V9.232c0,.346.063.534.472.534a1.39,1.39,0,0,0,.464-.055v.864a4.1,4.1,0,0,1-.819.141Zm1.456-6.2h1.055v1.06H55.864Zm0,6.11V6.279h1.047v4.343Zm4.6,0V7.952a.692.692,0,0,0-.724-.785c-.5,0-.929.346-.921,1.147v2.293H57.793V6.271h1.055V6.7a1.513,1.513,0,0,1,1.188-.534,1.418,1.418,0,0,1,1.251.518v.055a1.772,1.772,0,0,1,.22.9V9.146h0v1.437Zm3.558,1.429c-1.377,0-1.771-.785-1.779-1.343h1.1c.079.3.37.534.9.534.677,0,.992-.346.984-.88V9.9a1.726,1.726,0,0,1-1.236.487,1.809,1.809,0,0,1-1.81-1.429V8.879a2.893,2.893,0,0,1-.024-.613A2.2,2.2,0,0,1,62.7,6.7h0l.15-.141h0a1.852,1.852,0,0,1,1.181-.408,1.5,1.5,0,0,1,1.244.518V6.248h1.047V10.5c-.016,1.233-.952,1.532-2.275,1.539Zm6.005-1.477V8c0-.6-.244-.856-.787-.856a1.06,1.06,0,0,0-1.031,1.2v2.231H67.167v-6.1h1.055v2.2a1.521,1.521,0,0,1,1.244-.534,1.576,1.576,0,0,1,1.314.55h0A1.67,1.67,0,0,1,71.063,7.7v.95h0v.495h0v1.422Zm4.6,0a.784.784,0,0,1-.1-.4,2.167,2.167,0,0,1-1.417.5,1.368,1.368,0,0,1-1.5-1.374,1.922,1.922,0,0,1,0-.22V9.044a.628.628,0,0,1,0-.118.179.179,0,0,1,.055-.149.282.282,0,0,0,0-.071.334.334,0,0,0,0-.055,1.7,1.7,0,0,1,1.149-.707l.441-.086a11.261,11.261,0,0,0,1.259-.283v-.11c0-.424-.37-.55-.787-.542-.614,0-.787.181-.787.652h-1.11a1.279,1.279,0,0,1,.3-.864h0A2.049,2.049,0,0,1,73.7,6.153a1.939,1.939,0,0,1,1.637.55h0a1.38,1.38,0,0,1,.2.825V9.821a1.294,1.294,0,0,0,.165.73Zm7.155,0V7.9c0-.495-.228-.848-.716-.848s-.937.581-.937,1.194v2.293H79.075V7.9c0-.495-.228-.848-.732-.848s-.921.581-.921,1.2v2.285H76.376V6.208h1.047v.424A1.615,1.615,0,0,1,78.69,6.1a1.371,1.371,0,0,1,1.236.55h0l.047.094.079-.094h0a1.576,1.576,0,0,1,1.259-.558,1.45,1.45,0,0,1,1.307.55h0a1.466,1.466,0,0,1,.22.833v.636h0v2.419Z" transform="translate(-7.852 -0.506)" fill="#fff"/><path d="M85.744,17.67H37V28.508H85.8ZM42.454,25.838a2.907,2.907,0,0,1-2.944-3.2,2.971,2.971,0,0,1,2.92-3.22,2.36,2.36,0,0,1,2.44,1.908l-1.11.291a1.329,1.329,0,0,0-1.354-1.139c-1.22,0-1.724,1.092-1.724,2.152s.512,2.144,1.739,2.136a1.518,1.518,0,0,0,1.472-1.241l1.055.479a2.55,2.55,0,0,1-2.534,1.83ZM45.4,19.555h1.047v1.068H45.359Zm0,6.11V21.322h1.047v4.343ZM48.7,25.7c-.858,0-1.149-.385-1.157-1.045V22.068h-.638v-.785h.638V19.712h1.047v1.571h.937v.785h-.96v2.2c0,.338.071.526.48.526a3.384,3.384,0,0,0,.464-.055V25.6a4.171,4.171,0,0,1-.826.11Zm3.888-.055h0a5.248,5.248,0,0,1-.283.825c0,.063-.063.11-.094.165h0a1.19,1.19,0,0,1-1.07.44,3.541,3.541,0,0,1-.63-.055v-.919a2.573,2.573,0,0,0,.417,0,.527.527,0,0,0,.582-.369L49.94,21.283h1.126l.968,3.142.787-3.142h1.086Zm6.627.126a2.91,2.91,0,0,1-2.944-3.2,2.979,2.979,0,0,1,2.92-3.22,2.36,2.36,0,0,1,2.471,1.916l-1.11.283A1.321,1.321,0,0,0,59.2,20.419c-1.228,0-1.732,1.084-1.724,2.152s.512,2.144,1.732,2.136a1.518,1.518,0,0,0,1.48-1.241l1.047.479A2.542,2.542,0,0,1,59.2,25.783Zm5-.071a2.131,2.131,0,0,1-2.251-2.278,2.227,2.227,0,0,1,4.455,0,2.123,2.123,0,0,1-2.22,2.285Zm5.51-.126v-.424a1.521,1.521,0,0,1-1.244.534,1.431,1.431,0,0,1-1.574-1.571V21.259h1.047v2.576c0,.6.244.856.787.856a.983.983,0,0,0,1.031-1.1V21.236h1.047v4.343Zm4.518,0V22.924a.692.692,0,0,0-.724-.785c-.543,0-.929.346-.929,1.139v2.293h-1.07V21.228h1.047v.432a1.576,1.576,0,0,1,1.181-.542,1.313,1.313,0,0,1,1.511,1.524V25.61Zm3.7.094a2.107,2.107,0,0,1-2.18-2.246,2.115,2.115,0,0,1,2.22-2.278,1.826,1.826,0,0,1,1.842,1.225L78.9,22.8a.96.96,0,0,0-.921-.691,1.179,1.179,0,0,0-1.126,1.319c0,.675.346,1.312,1.078,1.3a1.133,1.133,0,0,0,1.055-.84l.889.471a2,2,0,0,1-1.952,1.3Zm2.361-6.22h1.047v1.068H80.29Zm0,6.11V21.22H81.36v4.343Zm1.913,0v-6.11h1.047v6.11Z" transform="translate(-7.878 -3.792)" fill="#fff"/><path d="M26.668,27.06h-.6v.11h.22v.6h.157l-.008-.6h.228Z" transform="translate(-5.551 -5.807)" fill="#fff"/><path d="M28.532,27.016h-.189a.165.165,0,0,1-.11-.039.11.11,0,0,1,.11-.11c.15-.039.15,0,.189.071l.15-.071V26.82h0c-.047-.063-.134-.134-.354-.1a.268.268,0,0,0-.165.11h0a.172.172,0,0,0,0,.188c.047.149.15.149.307.149h.071c.079,0,.15,0,.15.039s-.071.11-.11.149-.181-.039-.181-.079l-.157.039c0,.079.11.228.378.149a.228.228,0,0,0,.189-.3A.254.254,0,0,0,28.532,27.016Z" transform="translate(-5.99 -5.732)" fill="#fff"/><path d="M5.33,27.736l.15.039.189-.754-.15-.031Z" transform="translate(-1.135 -5.792)" fill="#fff"/><path d="M25.449,26.9l-.189-.039-.15-.039v.039l-.181.675.157.039.071-.267h.15c.071,0,.118.039.071.149a.345.345,0,0,0,0,.149l.15.039a.329.329,0,0,1,0-.149.391.391,0,0,0,0-.228c0-.039.11-.039.15-.149a.259.259,0,0,0-.228-.22Zm-.11.338-.189-.079.071-.2h.189a.149.149,0,0,1,.079.149C25.449,27.236,25.41,27.236,25.339,27.236Z" transform="translate(-5.308 -5.756)" fill="#fff"/><path d="M27.618,26.91l-.15.039.118.487c0,.071,0,.149-.118.149s-.15,0-.189-.11l-.11-.448-.15.039.11.44c.039.079.079.149.118.149a.339.339,0,0,0,.26.079.251.251,0,0,0,.228-.338Z" transform="translate(-5.753 -5.775)" fill="#fff"/><path d="M8.332,26.9l-.024-.071-.386.079-.213.039.039.118.22-.047.118.644.15-.039-.11-.644.22-.031Z" transform="translate(-1.642 -5.758)" fill="#fff"/><path d="M20.318,26.728h0c0-.11-.039-.11-.071-.141s.118-.079.118-.188a.228.228,0,0,0-.236-.228H19.72v.785h.157v-.306h.189c.087,0,.11,0,.118.071h0v.1c0,.079,0,.118.039.149h.15c-.039,0-.047-.071-.047-.181Zm-.26-.22H19.87v-.188H20.1c.079,0,.11,0,.11.1S20.177,26.508,20.058,26.508Z" transform="translate(-4.199 -5.616)" fill="#fff"/><path d="M18.767,26.848v-.22l.37-.039v-.118l-.409.008v-.149h.409V26.18l-.567.039.031.518.016.228.6-.039v-.11Z" transform="translate(-3.954 -5.619)" fill="#fff"/><path d="M7.14,27.019l.15.746.15-.039-.11-.746Z" transform="translate(-1.52 -5.79)" fill="#fff"/><path d="M6.331,27.627l-.142-.6H6l.26.746h.15l.26-.746h-.15Z" transform="translate(-1.278 -5.801)" fill="#fff"/><path d="M10,26.3l-.338.079.079.408.079.416.15-.039-.039-.314.189-.039a.362.362,0,0,0,.11,0h0a.267.267,0,0,0,.1-.259A.26.26,0,0,0,10,26.3Zm.079.408-.189.047v-.267l.118-.039c.11,0,.189,0,.189.079S10.187,26.674,10.077,26.706Z" transform="translate(-2.057 -5.642)" fill="#fff"/><path d="M24.375,26.821l-.165.534.15.031.189-.565.031-.11-.15-.071Z" transform="translate(-5.155 -5.717)" fill="#fff"/><path d="M11.169,26.06c-.11,0-.409.039-.409.456a.6.6,0,0,0,.047.22h0a.425.425,0,0,0,.37.228.417.417,0,0,0,.362-.236h0a.431.431,0,0,0,.047-.22.4.4,0,0,0-.417-.448Zm.157.668h0a.189.189,0,0,1-.15.079.221.221,0,0,1-.157-.071h0a.329.329,0,0,1-.071-.22c0-.228.15-.306.22-.306a.265.265,0,0,1,.228.3A.329.329,0,0,1,11.327,26.727Z" transform="translate(-2.291 -5.593)" fill="#fff"/><path d="M23.607,26.769,23.489,27l-.016-.228-.024-.33L23.3,26.4l.039.369.039.385.15.031.236-.416.134-.22-.15-.039Z" transform="translate(-4.961 -5.666)" fill="#fff"/><path d="M15.757,26.33H15.19v.448l.008.346h.181v-.338l.338-.008h0v-.149h-.338v-.149h.378Z" transform="translate(-3.234 -5.651)" fill="#fff"/><path d="M17.928,26.18h-.15l.039.558v0l-.338-.518H17.29l.047.518.031.267.15-.039-.016-.228-.024-.3.189.3.15.228h.15l-.008-.228Z" transform="translate(-3.681 -5.619)" fill="#fff"/><path d="M12.5,26.429l-.15-.071s-.11-.039-.11-.079.11-.11.181-.11.157.11.157.149l.15.039a.283.283,0,0,0-.268-.3c-.3,0-.378.11-.378.188s.118.22.228.3h.11a.1.1,0,0,1,.118.118h0c0,.039-.11.039-.142.039a.244.244,0,0,1-.15-.039h0a.141.141,0,0,1,0-.11h-.189a.329.329,0,0,0,0,.141h0a.346.346,0,0,0,.307.2c.071,0,.307,0,.37-.2h0A.259.259,0,0,0,12.5,26.429Z" transform="translate(-2.566 -5.593)" fill="#fff"/><path d="M16.757,26.23h-.15v.526h0c.039.071,0,.149-.11.149a.142.142,0,0,1-.15-.149h0v-.487H16.19v.565c0,.071,0,.149.079.188a.363.363,0,0,0,.26.071.275.275,0,0,0,.3-.338h0Z" transform="translate(-3.447 -5.629)" fill="#fff"/><path d="M13.19,26.3l.26.039-.039.408-.031.259h.157l.024-.259.039-.408.268.031.039-.149-.677-.071Z" transform="translate(-2.808 -5.612)" fill="#fff"/><path d="M21.308,26.17h-.189l-.22.558-.079.2h.189l.039-.157h.3l.039.188h.15l-.071-.228Zm-.228.487.118-.338.071.338Z" transform="translate(-4.433 -5.616)" fill="#fff"/><path d="M12.925,7.438h5.9a.542.542,0,0,0,.3-.487.62.62,0,0,0-.189-.377,1.717,1.717,0,0,1-.071-.785h0a1.262,1.262,0,0,0-.157-.942V3.6h0a6.724,6.724,0,0,0-.024-1.241c-.071,0-.189.047-.26,0l-.268-.448V1.72c.079-.071.15-.149.079-.259a.157.157,0,0,0,0-.071h0c0-.047-.063-.063-.063-.118V1.123c.181,0,.3.071.488,0V1.052C18.577.935,18.5.864,18.5.715a.6.6,0,0,0,.173-.267L18.632.377c-.079,0-.181,0-.22.071a.519.519,0,0,1-.228-.3l-.11-.071c-.039.3-.378.267-.567.338a.416.416,0,0,1,.142.3.879.879,0,0,1-.181.338,1.158,1.158,0,0,1,.37,0,.573.573,0,0,1,.157.22l-.071.079h0a.957.957,0,0,0-.079.181.738.738,0,0,1,.15.188l-.346.565c0,.079-.11,0-.142,0s-.118.079-.118.118V2.78a1.625,1.625,0,0,1-.716,0V2.513a10.6,10.6,0,0,1,0-1.115h0V1.06a1.908,1.908,0,0,1-.189-.039,1.885,1.885,0,0,1-.409-.565c.15-.071.15-.141.15-.22s0-.157-.047-.157S15.971,0,15.932,0a.131.131,0,0,0-.15.149.544.544,0,0,0,.079.3c-.118.228-.228.495-.378.565a.285.285,0,0,1-.22.039c-.071,0,0,.228,0,.338h0V2.772h-.645L14.5,2.749a1.47,1.47,0,0,0,0-.416c-.039-.079-.228.047-.268-.071l-.3-.487a.408.408,0,0,0,.118-.369h0a.055.055,0,0,0,0-.039A.786.786,0,0,0,14.5.785a.864.864,0,0,0-.307-.518.655.655,0,0,0-.638,0,.591.591,0,0,1,.378.22.416.416,0,0,1-.039.456.5.5,0,0,1-.6.071c0,.228.268.338.338.408h0a.439.439,0,0,0,.15.408c-.15.149-.22.377-.37.526H13.24l-.118.079v2.38c-.071.11-.142.11-.142.188a4.3,4.3,0,0,0-.047.785,2.164,2.164,0,0,1-.283,1.233C12.689,7.249,12.768,7.4,12.925,7.438Zm1.307-.369-.157-.11V6.88c.11-.079.26,0,.37,0s.157.071.268.188C14.57,7.131,14.382,7.069,14.232,7.069Zm1.055,0A.3.3,0,0,1,15.1,6.88h.409c.15,0,.071.071.15.149v.039a1.451,1.451,0,0,1-.37,0Zm.968-.715a.231.231,0,0,0-.15.071c-.071.071-.3-.039-.488,0l.039-.974a.165.165,0,0,0,.142.181h.338a.157.157,0,0,0,.079-.157,1.223,1.223,0,0,1,.039.346,3.777,3.777,0,0,0-.039.558Zm0,.707a.936.936,0,0,1-.181-.157c.1-.079.26,0,.48,0,.079,0,.118.11.15.22a1.719,1.719,0,0,1-.488-.055Zm1.094,0a.5.5,0,0,1-.228-.259,2.3,2.3,0,0,0,.519,0c0,.11.118.11.189.188-.181.165-.409.079-.519.126ZM18.773,6.8a.209.209,0,0,0,.079.141l-.047.079h-.449c-.071,0-.11-.149-.189-.181a1.341,1.341,0,0,1,.567.016ZM17.7,3.581a6.64,6.64,0,0,1,.039-.887l.071.047v.22l.079.11a.97.97,0,0,0,.338,0c.079-.11.039-.259.071-.338h.079V4.909a2.179,2.179,0,0,1-.677.6V3.581Zm.2,2.191h0a1.889,1.889,0,0,0,.59-.456l.039.079V6.44l-.1.079H16.751a1.215,1.215,0,0,1,0-.377,3.366,3.366,0,0,0,1.157-.369ZM15.641,1.437c.071,0,0,.188.071.3s.268,0,.378,0,.039-.251.1-.369h.071v.039h0A5.894,5.894,0,0,1,16.2,2.788a3.62,3.62,0,0,1-.567,0,4.875,4.875,0,0,1,.008-1.351ZM14.5,3.6v-.44h.11a.537.537,0,0,0,.079.338h1.055V3.236h.15c.079.079,0,.188.079.267h1.047c.079-.079.039-.188.039-.338h.15V3.6h0v2c-.189.149-.417.079-.638.079l-.039-.11c-.039-.306.071-.715-.228-.982a1.1,1.1,0,0,0-.826-.1.825.825,0,0,0-.409.448c0,.267.039.487.039.715a.268.268,0,0,1-.15,0h-.449A16.952,16.952,0,0,1,14.5,3.6Zm-1.023,0h0V2.678l.039.079c.039.071,0,.181.039.291s.22,0,.37.039c.118-.079.039-.228.039-.377h.079c0,.283.039.581.039.887h0V5.443a1.133,1.133,0,0,1-.677-.518Zm-.134,1.814a2.36,2.36,0,0,0,.3.243h0c.055.047.37.212.37.212h.063A2.042,2.042,0,0,0,15,6.032c.079.118,0,.306,0,.408-.559.086-1.078.047-1.684.086V5.411Zm.071,1.461c.079.071.189.11.189.22a2.619,2.619,0,0,1-.559,0V6.911a1.451,1.451,0,0,1,.394-.039Z" transform="translate(-2.693)" fill="#fff"/><path d="M26.493,2.22l-.157.071a3.416,3.416,0,0,1-.48.715l-.11.039-.118-.071c-.26-.495-.826-.6-1.055-1.123A1.844,1.844,0,0,0,24.4,1.78c0,.071-.071.11-.071.188-.039.369.338.558.527.785l.039.079h.071l.039.079c0,.071.118.071.118.188s-.228-.079-.268-.079-.071-.11-.11-.141l-.118-.047c0,.047-.071.047-.11.079-.189-.11-.26-.33-.488-.33,0,0-.11.11-.11.149.11.22.3.259.338.558.118.071.26.149.26.259v.361h0a.722.722,0,0,1-.165.542,1.285,1.285,0,0,1-1.086.377,1.505,1.505,0,0,1,.165-.911h0a2.1,2.1,0,0,0,.055-.212c0-.118,0-.306-.079-.377h-.071a.982.982,0,0,0-.378.589h0a2.021,2.021,0,0,1-.48,1.029H22.29V4.081l-.079-.118h-.079c0,.079-.15.079-.15.079v.071a4.562,4.562,0,0,1-.189,1.052c-.11.149-.26.33-.409.3a.439.439,0,0,1-.3-.338,1.624,1.624,0,0,0-.409-1.17h0L20.6,3.83l-.071-.11a1.664,1.664,0,0,1-.11-.2h-.11c-.039,0-.079,0-.118.157a.784.784,0,0,0,.165.542h0a5.448,5.448,0,0,1,.291.463V4.8h-.181a2.106,2.106,0,0,0-.716-.833h0l-.457-.283h-.228l-.039.149.047.055h0a3.324,3.324,0,0,0,.37.424c.189,0,.228.118.338.188v.118a2.363,2.363,0,0,1-1.055-.6.384.384,0,0,1-.039-.134h0a.478.478,0,0,0-.039-.094c-.071-.636.787-.6,1.015-1.052.071-.11.11-.259,0-.338h-.079c-.26.149-.449.408-.708.487l-.11-.11c.15-.306.441-.6.291-.942h-.079c-.087.071-.087.118-.142.118a2.221,2.221,0,0,1-.378.785h-.11c-.11-.228.071-.526-.15-.715H18.1a2.477,2.477,0,0,0,.063,2.011h0a1.306,1.306,0,0,0,.063.236.284.284,0,0,1-.157,0,.894.894,0,0,0-.071-.2h0a.425.425,0,0,0-.338-.283l-.071.071v.212h0l.2.385a3.94,3.94,0,0,0,2.07.864v.071c-.118,0-.268-.039-.338,0v.079l.787.707a.243.243,0,0,0,0,.079h0c0,.448.346.785.346,1.225a.314.314,0,0,0,0,.126h-.079L19.6,7.042a.956.956,0,0,0,0,.558,5.048,5.048,0,0,1,.063.652h0a4.631,4.631,0,0,1-.039.471,1.7,1.7,0,0,1-.055.188c.039.071.039.118.11.118V9.021a1.465,1.465,0,0,1-.409.228,4.428,4.428,0,0,1-1-.872h0a2.88,2.88,0,0,0-.582-.471,5.386,5.386,0,0,0-2.4.346H11.232A4.968,4.968,0,0,0,9.4,7.914a1.19,1.19,0,0,0-1.181.479h0l-.323.353-.079.039-.559.487h-.1a2.1,2.1,0,0,1-.338-.251c-.079-.079,0-.118.071-.157a1.787,1.787,0,0,1-.071-.495h0c0-.479.134-.958.1-1.374l-1.047.534c-.189-.22.11-.558.22-.864a.893.893,0,0,0,0-.479h0c.15-.118.268-.267.417-.377a.93.93,0,0,0,.378-.456H6.509V5.283a5.059,5.059,0,0,0,2.149-.872l.039-.1h0L8.855,4V3.853l-.071-.11a.307.307,0,0,0-.268.094h0l-.252.471H8.186V4.23a.957.957,0,0,1,.047-.2h0c.11-.338.307-.675.4-.958-.189-.338,0-.715-.228-.974l-.079-.079c-.039.079-.11.079-.11.118-.079.259,0,.448-.11.675h-.15c-.157-.3-.2-.785-.457-.856h-.11c-.079.079-.039.149-.039.228l.307.785-.118.079c-.22-.149-.378-.338-.6-.487h-.15c-.031,0-.039.181-.039.338a1.614,1.614,0,0,0,.638.408.613.613,0,0,1,.417.518.447.447,0,0,1,0,.173h0a.785.785,0,0,1-.22.314,2.726,2.726,0,0,1-.937.448v-.11c.228-.2.575-.338.732-.652h0a1,1,0,0,0,.047-.141l-.071-.11H7.288l-.4.251h0a5.881,5.881,0,0,0-.5.314c-.181.149-.22.448-.37.636h-.15c0-.338.331-.6.409-.935H6.3a.666.666,0,0,0,0-.243.2.2,0,0,0-.071-.149H6.163c-.1.126-.2.259-.3.393h0A2.008,2.008,0,0,0,5.415,5.3a.543.543,0,0,1-.378.267c-.527-.33-.378-.974-.5-1.422V4.065H4.423c-.071.079-.11.079-.11.079-.15.3,0,.6-.039.9H4.093c-.079,0-.079-.079-.15-.118L3.613,4l-.079-.243a.419.419,0,0,0-.268-.377c-.071.079-.11.079-.11.079a.784.784,0,0,0,0,.55H3.148a1.96,1.96,0,0,1,.157.911v.071a2.507,2.507,0,0,1-.787-.22.91.91,0,0,1-.409-.785h0A2.642,2.642,0,0,0,2.062,3.7c.071-.267.378-.306.409-.565s.26-.228.228-.416L2.66,2.652h-.15c-.189.118-.26.259-.449.306H1.881L1.8,3.029c-.079.071-.15.188-.26.188L1.5,3.1c.15-.22.378-.369.559-.6l.071-.071a.651.651,0,0,0,.157-.479c-.039,0-.039-.071-.157-.071l-.11.071a.974.974,0,0,1-.26.377,4.27,4.27,0,0,0-.858.785L.787,3.092C.527,2.942.449,2.613.26,2.424L.15,2.345a.276.276,0,0,1-.15,0,4.511,4.511,0,0,0,.567,1.39.977.977,0,0,0,.26.1,2.147,2.147,0,0,1,.189.173h0a1.885,1.885,0,0,1,.189.243C1.621,5.3,2.865,5.479,3.762,5.518c-.11.079-.268,0-.338.079v.071c.039.118.079.149.118.259a3.811,3.811,0,0,1,.394.228v.039h0a3.81,3.81,0,0,0,.37,1.948l-.638.094a3.675,3.675,0,0,0-.5.094l-.039.079.984.856c.11.228.15.487.228.636a3.355,3.355,0,0,1-.079.644h0a5.5,5.5,0,0,1-1.259,2.2h0a6.667,6.667,0,0,0-1.055,1.571c-.37.157-.559.6-.968.534a.353.353,0,0,0,0,.086h0a1.02,1.02,0,0,0,.063.134c.228.228.6.11.866.149l.039.079c.079.6.362,1.2.386,1.822h.024A1.685,1.685,0,0,1,2.2,17.9a2.054,2.054,0,0,1,.071.3h0v.471h0v.565h0a1.341,1.341,0,0,0,.386,1l-.213.1-1.291.613c.3.118.527.149.716.22l.039.079-.063.338h0a1.482,1.482,0,0,0-.094.3h.071c.118,0,.268-.149.378-.11,1.574,1.571,3.833,1.178,5.785.652,0,.11.071.11.071.149a2.586,2.586,0,0,0,.787.848h0l.173.094a3.152,3.152,0,0,0,.4.188H9.5a2.082,2.082,0,0,0,1.133.126c0,.181-.181.338-.22.558a.136.136,0,0,0,.118.149c.118.031.291-.188.409-.149a2.189,2.189,0,0,0,.26.526,3.625,3.625,0,0,0,.457.181.842.842,0,0,0,.559-.377l.079.079a3.622,3.622,0,0,1,.079.518,1.054,1.054,0,0,1,.669.565v-.079c.079,0,.079-.071.079-.11a.937.937,0,0,1,.6-.377,1.45,1.45,0,0,1,.071-.565h.079c0,.071.071.071,0,.11a.788.788,0,0,0,.559.22.685.685,0,0,0,.527-.3c.071-.11.071-.3.22-.416h.079a.7.7,0,0,0,.268.149l.071-.11c.071-.228-.157-.377-.157-.6.118-.071.268,0,.378,0a2.618,2.618,0,0,0,.748-.134h0A2.832,2.832,0,0,0,18.174,22.3a3.153,3.153,0,0,1,.638.181c1.692.487,3.935.589,5.281-.872.157,0,.268.141.417.1a2.291,2.291,0,0,1-.1-.267h0a.69.69,0,0,1-.047-.259c.26-.141.527-.11.716-.22L23.7,20.354l-.126-.063v-.11a.708.708,0,0,1,.2-.165c.118-.071.189-.11.189-.149a5.6,5.6,0,0,0,.087-.62h0c0-.291.039-.573.039-.864h0v-.236h0V17.056h0a6.161,6.161,0,0,1,.354-1.948h.15a.473.473,0,0,0,.3.071.543.543,0,0,0,.519-.291h0c-.157-.118-.26-.079-.378-.11L24.99,14.7c-.6-.33-.716-1.084-1.165-1.532a3.658,3.658,0,0,1-.527-.456h0a4.889,4.889,0,0,1-1.118-2.191h0a6.4,6.4,0,0,1-.134-.675,1.681,1.681,0,0,1,.826-1.092V8.676h.071l.079-.071.071-.079c.118-.079.118-.149.189-.181v-.11l-1.2-.188a3.011,3.011,0,0,0,.409-1.94h0a.3.3,0,0,1,0-.079.787.787,0,0,0,.449-.267l.15-.259c-.118-.079-.338,0-.409-.079V5.377c1.33.3,2.133-.652,2.952-1.445h0c.094-.1.2-.2.3-.291a5.163,5.163,0,0,0,.638-1.312V2.251ZM1.732,4.215a.936.936,0,0,1-.22-.2h0a.989.989,0,0,1-.087-.134c.047-.11.079-.11.189-.149a.643.643,0,0,1,.11.283h0a.3.3,0,0,0,.047.2ZM21.409,7.356v.079a.3.3,0,0,1-.189.071c-.071,0-.071-.071-.11-.11s.22-.031.3-.031Zm-.787-.785h-.079L20.5,6.5V6.4h.228l.11.118a.481.481,0,0,1-.189.063Zm-2.59,2.45a12.748,12.748,0,0,1,.716,1.241v.267l.047.55v.079c-.039.11-.118.149-.189.3a1.132,1.132,0,0,0-.6.715V10.843h0v-.511h0a12.1,12.1,0,0,1,.024-1.312ZM17.749,17.1h0a.5.5,0,0,0,0-.055h0a6.654,6.654,0,0,0,.236-2.113h0a5.166,5.166,0,0,1,.37-2.191h0a2.8,2.8,0,0,1,.26-.44c.37-.228.488-.149.488-.149a3.5,3.5,0,0,0,.315.589h0a8.6,8.6,0,0,0,1.3,1.382V14.2c-.189.039-.338,0-.567.039,0,.039-.071.118-.11.118v.958a3.269,3.269,0,0,0,.26,1.06c.039.079,0,.149-.071.228a3.51,3.51,0,0,1-.732.518h0a9.553,9.553,0,0,0-1.37.785l-.811-.008a2.646,2.646,0,0,0,.48-.785Zm3.432,1.641.079-.071a.347.347,0,0,1,.15-.039l.071.11c.039.079.079.118.26.149v.118a2.245,2.245,0,0,0-.142.275h0l-.047.1v-.157C21.558,19.011,21.409,18.9,21.18,18.744Zm.984,1.272a.526.526,0,0,1,.11-.157.615.615,0,0,1,.37.149c.039.11.039.188.079.3s.11.079.228.079h0a2.353,2.353,0,0,0,.142.385,4.673,4.673,0,0,1-.921-.385h0a1.7,1.7,0,0,0-1.251-.243,1.334,1.334,0,0,1-.338-.149.517.517,0,0,1,0-.22,11.03,11.03,0,0,0-1.015-.471h0a4.966,4.966,0,0,0-.677-.236,2.038,2.038,0,0,1-.26.188l-.079-.079c-.071-.071,0-.188,0-.3l-1.086-.432a.1.1,0,0,1,0-.149c.079-.079.189,0,.26,0v.11c.118.118.378.149.567.228.071-.039.071-.079.15-.079l1.354.558.071-.039c.079,0,.039-.11.118-.181a.481.481,0,0,1,.22.071v.267l.134.079A8.535,8.535,0,0,0,22.164,20.017ZM21.11,20.5a2.948,2.948,0,0,1,1.165.369,4.48,4.48,0,0,1-1.834.236,6.592,6.592,0,0,1-1.692-.416,1.187,1.187,0,0,0-.063-.267h0a2.894,2.894,0,0,0-.275-.785c.071-.039.142,0,.22.071s.228-.118.378-.188l1.165.518c.039,0,0,.11.039.228s.2.118.331.173h0a.939.939,0,0,0,.567.031ZM8.138,20.457h0l-.189.055A1.834,1.834,0,0,1,8,20.245a2.253,2.253,0,0,1,.527-.88h0c.079-.086.157-.173.236-.243a.715.715,0,0,0,.189-.188v.079a1.451,1.451,0,0,0-.142.346h0a.909.909,0,0,0,.11.738,1.577,1.577,0,0,1,1.724-.377,2.205,2.205,0,0,1,1.015.558.519.519,0,0,1,.142.181h-.189a11.185,11.185,0,0,0-3.479-.031ZM6.1,20.017a6.982,6.982,0,0,1,1.244-.534c.071.071.181.228.291.149a.528.528,0,0,0,.228-.079,2.58,2.58,0,0,0-.228.668,2.977,2.977,0,0,1-.1.385,10.442,10.442,0,0,1-3,.424,3.154,3.154,0,0,1-.5-.149c.228-.063.472-.228.724-.322A1.009,1.009,0,0,1,5.25,20.5a.5.5,0,0,1,.142.047l.283-.134.394-.173C6.139,20.19,6.068,20.111,6.1,20.017Zm1.653-1.17a1.207,1.207,0,0,0,0,.377l-.079.039-.181-.118a.52.52,0,0,0-.118-.071s-.4.157-.378.157H7l-.2.079-1.047.44a.572.572,0,0,0,0,.228.788.788,0,0,1-.3.149c-.11,0-.189-.071-.268-.071l-1.094.424h0l-.787.322a3.09,3.09,0,0,1,.15-.377h0c.1-.055.165-.071.2-.2s0-.118.071-.188a.832.832,0,0,1,.3-.157l.079.039c0,.079,0,.149.15.149L5.9,19.326l.157-.094v-.267c0-.039.11-.11.189-.071a.135.135,0,0,1,.071.149l.079.071,1.346-.6c0,.039.118.039.15.079a.7.7,0,0,0,.606-.141v-.071a.268.268,0,0,1,.338,0l-.047.11ZM4.6,18.933c.189,0,.22-.149.338-.228s.15.039.15.071a1.013,1.013,0,0,0-.338.495A2.512,2.512,0,0,1,4.6,19Zm6.037.361h0a2.926,2.926,0,0,0-.787-.079L9.5,19.3l-.252.063V19.3h0a.393.393,0,0,1,.26-.385,2.839,2.839,0,0,1,1.8.377h0a.63.63,0,0,0,.126.063,2.919,2.919,0,0,1,.74.6,2.481,2.481,0,0,1,.283.44h0v.047c0,.11-.118,0-.118,0h0a.989.989,0,0,0-.134-.188,2.953,2.953,0,0,0-1.574-.935ZM9.272,18.21h0a.729.729,0,0,0,0-.079.662.662,0,0,1,.181.079h0l.118.071c-.079.071-.228.071-.338.11s0-.086.031-.157Zm2.613.919a1.5,1.5,0,0,1,.543.165h0a3.6,3.6,0,0,1,.661.471c.157-.126.323-.251.5-.369a4.026,4.026,0,0,1,.5-.236,2.366,2.366,0,0,1,.338-.079l-.268.228h0a2.993,2.993,0,0,0-.787,1.005h0a1.02,1.02,0,0,0-.1.188c-.1.047-.236,0-.338,0a3.221,3.221,0,0,0-1.063-1.351Zm.787-5.616H11.365a3.928,3.928,0,0,0-.441.565h-.157a1.557,1.557,0,0,0,.189-.526H9.87a3.433,3.433,0,0,1,0-.636.8.8,0,0,0,.307,0,.3.3,0,0,0,.039-.118h0v-.251L10.3,12.5l.3.416a2.721,2.721,0,0,0,.976-.039.353.353,0,0,0,0-.086h0a1.505,1.505,0,0,0-.071-.251c.039-.079.157,0,.268-.039a2.012,2.012,0,0,1,.275.291h0v.047c.189.149.409.071.638.11l.118-.118v-.047h0c0-.416-.283-.675-.5-1.076v-.369h.071a1.749,1.749,0,0,1,.3.149h.079v-.9h0v-1.1a2.642,2.642,0,0,0,.787,0c.071,0,0,.141.039.22s.11,0,.189,0v.181c-.079,0-.11.11-.189.149v1.885c.079,0,.079-.047.189-.047-.039.314-.3.5-.244.856h0v.086a1.767,1.767,0,0,0,1.3-.086h0a.9.9,0,0,0,.165-.181c.079-.118.189-.149.338-.306h.11l-.315.479-.055.086a5.632,5.632,0,0,0,1.157.039c.047.188-.071.408,0,.6-.071.149-.228,0-.378.071s.15.306.228.456h-.11c-.039-.039-.039-.11-.15-.149l-.079-.11c0-.039-.079-.039-.079-.079a3.258,3.258,0,0,0-1.078-.071c-.047.22.11.259.189.487l-.157-.039-.441-.487a2.729,2.729,0,0,0-.567,0l-.071.039V15.3H13.6c.079,0,.118-.149.189-.22l.039.071a3.009,3.009,0,0,0-.3.377c-.189-.071-.268-.22-.409-.3a1.377,1.377,0,0,0-.338.3l-.039-.487h0a.471.471,0,0,0-.071-.1h0l-.047-.047a1.825,1.825,0,0,0-.173-.165.267.267,0,0,1-.071-.173c.142,0,.142.11.3.188v-.079l.039-1.045Zm1.952-2.733h0c.126.44.244.856.874.785.409,0,.976.071,1.236-.338a1.4,1.4,0,0,1,.244-.738h0c.2-.314.464-.6.653-.872V10.4h0v.416h0V12.7h0v2.183h0a6.607,6.607,0,0,1-.165,2.1h0a.557.557,0,0,1-.047.11,1.4,1.4,0,0,1-.3.4,2.912,2.912,0,0,1-.677.5l-.268.134-.087.047h0a14.332,14.332,0,0,1-2.078.644h-.079a1.724,1.724,0,0,1,0-.636h0v-.118c.189-.149.6-.118.787-.338a1.474,1.474,0,0,1,.087-.644h0a12.632,12.632,0,0,1,1.031-1.689h-.094c-.559.157-1.078.534-1.645.683-.079,0-.11-.11-.15-.188-.039-.259.181-.448.338-.707V14.118c-.039,0-.11.071-.189.141s0,.118-.11.118a2.345,2.345,0,0,1,0-.526c.22.079.3.338.527.448h.9l.071-.047c0-.181-.22-.259-.22-.408a.718.718,0,0,1,.26,0l.378.448h.9c0-.188-.15-.267-.189-.416a.629.629,0,0,0,.527-.448,1.082,1.082,0,0,0-.087-.785h0a.157.157,0,0,0,0-.063c-.3-.306-.787-.039-1.126-.149h-.071l.409-.526-.039-.079h-.866c-.291.149-.48.448-.787.6-.181.039-.338,0-.559.039a1.171,1.171,0,0,1,.3-.377,4.992,4.992,0,0,0-.039-.785v-.079c-.071,0-.11.079-.189.079a4.655,4.655,0,0,1,0-.785h0a2.006,2.006,0,0,0,0-.306.566.566,0,0,1,.22-.188.786.786,0,0,1,.275.314h0a1.567,1.567,0,0,1,.024.463Zm.213-.534h.071a2.711,2.711,0,0,0,.417.149,2.2,2.2,0,0,0,.37-.416h.047l.449.456a3.94,3.94,0,0,0,.488-.228l-.157.306-.142.251a2.453,2.453,0,0,0-1.275.047.62.62,0,0,0-.071-.181,1.829,1.829,0,0,0-.22-.361Zm2.2,8.042-.079.079c0-.039-.15-.039-.26-.079l.228-.181c.039,0,.063,0,.087.071h0a.306.306,0,0,1,0,.134Zm-3.9-2.545a8.247,8.247,0,0,1,.787.785,3.066,3.066,0,0,0,.905-.346v.079a4.71,4.71,0,0,0-.512.856h0v.047l-.535-.047h0a7.509,7.509,0,0,0-1.188,0h0a5.378,5.378,0,0,0-.622.079.9.9,0,0,0,0-.157,5.323,5.323,0,0,0-.5-.785,1.947,1.947,0,0,1,.787.291l.142-.079Zm.386,3.3a4.486,4.486,0,0,0-.37.259h-.1c-.1-.134-.244-.173-.354-.314V17.6h.079a3.376,3.376,0,0,1,.63,0,1.889,1.889,0,0,1,.087.636c.031.259.008.534.031.809Zm.2,1.437.055-.141V20.3a.973.973,0,0,1,.079-.157h0a2.25,2.25,0,0,1,.984-.84h0l.275-.126c.6-.2,1.2-.495,1.724-.236a1.64,1.64,0,0,1,.189.338h0v.055l-.157-.055h0a2.366,2.366,0,0,0-1.33,0h0a4.059,4.059,0,0,0-.787.33,1.911,1.911,0,0,0-.551.487h0a1.626,1.626,0,0,0-.26.377c0,.039-.11,0-.189,0Zm.787-.212a2.836,2.836,0,0,1,1.5-.715,1.576,1.576,0,0,1,1.307.463h.071a1.121,1.121,0,0,0,0-.738h0a3.6,3.6,0,0,0-.118-.346c.11.039.11.079.189.079a2.728,2.728,0,0,1,.252.267h0a2.2,2.2,0,0,1,.535,1.092h-.071a8.826,8.826,0,0,0-3.274,0h-.512A1.573,1.573,0,0,0,14.514,20.268ZM8.839,8.574h8.737a1.568,1.568,0,0,1,0,.856L16.3,10a2.124,2.124,0,0,1-.3-.259.787.787,0,0,0-.26-.22c-.228.11-.338.377-.567.487L14.2,9.555c-.11-.11.039-.3-.079-.448a.1.1,0,0,1-.15,0c0-.188-.15-.3-.378-.377a1.064,1.064,0,0,0-1.047.118c-.15.079-.11.338-.15.558s-.37.157-.6.306l-.559.3h-.118l-.11-.071a2.067,2.067,0,0,0-.378-.408l-.071.039-.488.526L8.8,9.422A2.046,2.046,0,0,1,8.839,8.574Zm2.708,1.712c0,.086-.071.165-.15.267h0a.934.934,0,0,0-.15.259,3.478,3.478,0,0,0-1.275,0,.219.219,0,0,0,0-.071h0a.786.786,0,0,0-.181-.243.282.282,0,0,1-.071-.181c.189.071.268.149.457.141l.409-.448c.11,0,.071.11.189.149l.338.338c.134-.063.244-.212.433-.212Zm-2.81,2.466c0-.73,0-1.461.039-2.191h0V9.7h.079l.449.723h0l.283.432a1.45,1.45,0,0,0,.071.526,1.711,1.711,0,0,0,1.354.22.788.788,0,0,0,.638-.306,1.168,1.168,0,0,1,.157-.7h0c.165-.291.4-.55.567-.785a2.955,2.955,0,0,1,.047.785h0a1.568,1.568,0,0,1-.047.291c-.079,0-.228-.118-.338-.149-.15.22-.079.487-.11.715a1.687,1.687,0,0,0,.457,1.084c-.189-.039-.228-.188-.378-.338a2.051,2.051,0,0,0-.984-.031c0,.11.11.188.079.338s-.15,0-.268.039a1.657,1.657,0,0,0-.26-.369,2.248,2.248,0,0,0-.787-.039v.377c0,.149-.567,0-.677.228h0a1.113,1.113,0,0,0,0,.95c.26.408.866.11,1.314.181,0,.188-.189.377-.189.558a2.911,2.911,0,0,0,.787,0c.15-.118.3-.416.488-.565A1.775,1.775,0,0,1,12,13.9l.039.9.3.377a5.933,5.933,0,0,1,.047.746c-.047.118-.157.118-.189.228l-1.574-.707h-.071c.213.589.677,1.06.9,1.571h0a2.682,2.682,0,0,1,.11.385,1.183,1.183,0,0,1,0,.291c.15.267.567.3.787.377v.118h0a1.857,1.857,0,0,1-.039.628,12.377,12.377,0,0,1-2.046-.628h0A2.99,2.99,0,0,1,8.886,17.1h0A4.4,4.4,0,0,1,8.815,14.9h0v-.236a16.263,16.263,0,0,1-.079-1.916Zm-1.094-2.16h0A3.7,3.7,0,0,1,8.39,9.021v1.508h0v1.641c-.071-.408-.378-.6-.716-.9V11.2a2.39,2.39,0,0,1-.031-.613Zm-.732,2.191h0a1.286,1.286,0,0,0,.252-.668.787.787,0,0,1,.716.558.714.714,0,0,0,.055.11h0a5.017,5.017,0,0,1,.354,2.191,5.886,5.886,0,0,0,.244,2.183h0a2.488,2.488,0,0,0,.449.785c-.26.079-.488,0-.787.086A6.126,6.126,0,0,0,6.84,17.2h0a2.517,2.517,0,0,1-.787-.66A5.644,5.644,0,0,0,6.3,14.951h0a3.432,3.432,0,0,0,0-.565v-.079c-.157-.11-.417-.039-.606,0v-.079c.071-.149.26-.267.378-.416l.047-.079c.181-.338.559-.628.795-.974ZM5.683,6.524c0-.039.11-.039.181-.047s.118.079.079.118l-.15.071a.213.213,0,0,1-.15,0Zm-.6.927h.189v.079L5.2,7.6H5.116l-.11-.071ZM4.3,6.665v-.1h.189l.079.071c-.079,0-.079.079-.157,0Zm0,2.1a1.822,1.822,0,0,1,.488-.071.942.942,0,0,0,.173-.275h0a3.569,3.569,0,0,1,.165-.4c.26,0,.527.3.787.22a3.257,3.257,0,0,1,.386-.33v.471h0a.956.956,0,0,0,.047.2,8.668,8.668,0,0,1-1.574.675C4.6,9.068,4.447,8.88,4.3,8.731Zm-1.44,9.2.047-.118a7.953,7.953,0,0,1,.417-.683h0a4.261,4.261,0,0,0,.551-1.123l1.314-.188a2.124,2.124,0,0,1,0,.864.188.188,0,0,0,.079.181c.181.079.378.165.567.259h0A4.352,4.352,0,0,1,7.3,18.195c.079,0,.228-.071.3.039h0a4.192,4.192,0,0,1-.929.377c-.039-.039-.039-.071-.039-.149l-.087-.016-.787.306c-.071.071,0,.149,0,.259v.118a1.931,1.931,0,0,0-.417.149H5.163l.071-.079v-.071L5.3,19.09c.118-.079.228-.188.15-.3s-.189-.338-.37-.416-.189,0-.268,0a.5.5,0,0,0-.26.149.284.284,0,0,1-.228.071s0,.079-.11.118a.627.627,0,0,0,0,.518h0a1.8,1.8,0,0,0,.165.306v.071c-.071-.039-.11-.071-.11-.149L4.2,19.42a2.064,2.064,0,0,0-.905.456.353.353,0,0,1-.071.228,2.143,2.143,0,0,1-.433-.738h0a2.124,2.124,0,0,1-.071-.322h0a.69.69,0,0,1,0-.126,2.4,2.4,0,0,1,.134-.958Zm-.5,3.1c0-.079-.157,0-.11-.11l.559-.236c.11,0,.15.118.189.188a2.088,2.088,0,0,1-.677.306A.551.551,0,0,0,2.361,21.061Zm14.3,2.27a2.792,2.792,0,0,1-1.574.047l-.071.071a.643.643,0,0,0,0,.243h0a1.835,1.835,0,0,0,.1.314.487.487,0,0,0-.37.377.246.246,0,0,1-.071.188.441.441,0,0,1-.26.149.213.213,0,0,1-.189-.071,1.5,1.5,0,0,1-.236-.369c-.071-.079-.142,0-.22,0s-.039,0-.11.079a1.319,1.319,0,0,0-.338.636c-.079.079-.181.149-.26.228-.189-.039-.189-.118-.338-.188s-.039-.487-.228-.636a.607.607,0,0,0-.417-.188c-.15.188-.15.377-.409.526-.11,0-.3-.149-.3-.259a1.374,1.374,0,0,0-.228-.408c0-.039-.071-.039-.15-.079a1.474,1.474,0,0,0,.055-.416.337.337,0,0,0,0-.22,2.523,2.523,0,0,1-2.18-.4,2.664,2.664,0,0,1-.6-.675v-.071h.22l.417.558a1.323,1.323,0,0,0,1.015.479c.071,0,0-.181.071-.259a1.577,1.577,0,0,0,1.464-.118,3.145,3.145,0,0,0,.5-.495c.079-.039.15,0,.22,0-.055.463-.559.864-.59,1.327a.784.784,0,0,0,.11.44,1.3,1.3,0,0,1,.228.1c.189-.11.378-.3.677-.11l.488.377c.26-.157.488-.526.9-.456a2.2,2.2,0,0,0,.26.181h.079a.738.738,0,0,0,.3-.518h0a7.274,7.274,0,0,0-.645-1.343v-.079h.228a1.652,1.652,0,0,0,.826.715,1.491,1.491,0,0,0,1.126-.039c.039,0,0,.1.039.22l.071.071a2.316,2.316,0,0,0,.905-.408c.189-.188.3-.456.519-.675h.157l.071.039a2.407,2.407,0,0,1-1.236,1.115Zm-7.737-1.17a8.282,8.282,0,0,1,2.558.181s0,.079-.118.11a1.04,1.04,0,0,1-.787.346,1.2,1.2,0,0,1-.787-.377,1.138,1.138,0,0,0-.26.416,1.847,1.847,0,0,1-.575-.675Zm4.825,1.532h0a1.948,1.948,0,0,0-.378.1.726.726,0,0,0-.3.22,1.5,1.5,0,0,0-.606-.314h0a.789.789,0,0,0-.338,0h0a.938.938,0,0,0-.173.063.188.188,0,0,0,0-.063c.134-.432.512-.864.622-1.288.338-.079.638,0,.976-.047l.677,1.312v.079h-.063a.512.512,0,0,0-.134-.063h0a.789.789,0,0,0-.252,0Zm.882-1.406a9.717,9.717,0,0,1,2.589-.188v.071a1.62,1.62,0,0,1-.677.644c-.071-.118-.11-.267-.189-.377h-.11a1.71,1.71,0,0,1-1.047.346,1.872,1.872,0,0,1-.535-.495Zm5.588.134c-3.565-1.374-7.312.063-10.885-.707-1.684.157-3.259,1.021-4.793.785H4.463a2.8,2.8,0,0,1-1.85-.911l1.165-.55a3.4,3.4,0,0,0,1.676.251,14.511,14.511,0,0,0,3.8-.62c3.377.785,6.785-.785,10.13.6a5.521,5.521,0,0,0,3.377-.2,4.728,4.728,0,0,1,.921.4h.055a3.984,3.984,0,0,1-3.487.942Zm3.865-1.571a.142.142,0,0,1-.118.079c-.071.071.079.149,0,.22l-.638-.346c0-.141,0-.141.15-.22Zm-1.574-4.9a4.943,4.943,0,0,0,.527,1.115h0a6.191,6.191,0,0,1,.512,1.021l.087.283a1.45,1.45,0,0,1-.024.911h0a1.46,1.46,0,0,1-.15.291,1.5,1.5,0,0,0-.291.448c-.079-.408-.685-.558-1.055-.675-.079.079-.079.149-.15.228a.243.243,0,0,1,.047-.283h0a.729.729,0,0,0,.039-.675.181.181,0,0,0-.26-.071c-.118-.118-.307-.259-.457-.228a.488.488,0,0,0-.488.346.243.243,0,0,0,0,.291.645.645,0,0,1,.291.267H21.07a2.443,2.443,0,0,1-.457-.188c-.071-.071,0-.228,0-.3a3.152,3.152,0,0,0-.787-.338s-.118.118-.118.188a2.277,2.277,0,0,1-.921-.369h0l-.055-.039h.22A5.077,5.077,0,0,1,20.464,17.1h0l.669-.291a9.907,9.907,0,0,1,0-1.052,8.675,8.675,0,0,1,1.393.22ZM22.18,8.574c0,.228-.3.338-.37.565-.039,0-.118.071-.157.071l-1.574-.628V8.307h0V8.165a.321.321,0,0,1,0-.086c0-.086,0-.165,0-.22a2.472,2.472,0,0,1,.449.3l.708-.306.346.675A2.413,2.413,0,0,0,22.2,8.6Zm0-1.987c0,.047-.11,0-.189,0a.086.086,0,0,1-.071-.141,1.294,1.294,0,0,1,.331,0Zm2.881-2.678h0a1.07,1.07,0,0,1-.26.236.847.847,0,0,1,0-.236h0a1.192,1.192,0,0,1,.118-.322.2.2,0,0,1,.268.173.487.487,0,0,1-.118.173Z" transform="translate(0 -0.382)" fill="#fff"/><path d="M4.889,26.83l-.031.039-.378.416.079-.416.016-.11.016-.071L4.4,26.61l-.016.173-.008.086v.016l-.047.55.15.039.559-.6H5.023Z" transform="translate(-0.922 -5.711)" fill="#fff"/></svg>