<svg xmlns="http://www.w3.org/2000/svg" width="100%" height="100%" viewBox="0 0 126.236 57.297"><path d="M90.092,324.494c-.9.046-1.73.084-2.565.132q-3.82.213-7.64.431-4.908.277-9.817.563-4.263.24-8.528.465c-1.115.058-2.24.158-3.358.123-1.08-.033-2.154-.213-3.2-.327V284.162a33.826,33.826,0,0,1,3.508-.622,12.17,12.17,0,0,1,2.416.277l7.663,1,7.663,1,7.574.992,6.487.831c.106.014.213.024.39.042v-2.564c0-.759,0-.763.759-.913l18.262-3.589c.521-.1.527-.1.545-.648.043-1.371.092-2.744.113-4.116a.6.6,0,0,1,.517-.693c.949-.259,1.892-.554,2.812-.895a2.9,2.9,0,0,1,1.6.04c3.571.594,7.139,1.207,10.708,1.81l10.891,1.84q5.482.925,10.966,1.841c.255.043.319.139.316.375-.014,1.19-.013,2.379-.017,3.568v.342c.517-.226.988-.429,1.457-.636q13.906-6.1,27.816-12.19a1.685,1.685,0,0,1,.818-.05c.94.109,1.877.247,2.862.381l.116,54.564c-.868.078-1.709.211-2.554.215-1.6,0-3.2-.053-4.8-.105-2.254-.075-4.507-.168-6.761-.258q-5.337-.212-10.676-.429c-3.065-.122-6.13-.277-9.2-.342a30.042,30.042,0,0,0-3.458.3q-3.126.308-6.253.626l-6.951.693-6.253.628-6.988.705c-1.03.1-2.058.265-3.09.294a14.8,14.8,0,0,1-2.127-.222q-3.8-.459-7.594-.923l-7.04-.855c-2.311-.277-4.623-.564-6.935-.831-.326-.037-.5-.112-.453-.477A5.314,5.314,0,0,0,90.092,324.494Zm55.624-22.531-.171.019-.713-1.878q-3.177-8.384-6.35-16.77a2.507,2.507,0,0,0-1.891-1.686q-2.795-.616-5.6-1.2a1.511,1.511,0,0,0-2,1.083q-1.863,4.7-3.721,9.395-5.2,13.118-10.4,26.236c-.822,2.078-1.651,4.142-2.465,6.217-.55,1.406.074,2.193,1.566,2.086,2.594-.186,5.19-.332,7.787-.478a2.326,2.326,0,0,0,2.442-1.881q1.308-4.267,2.605-8.537a.394.394,0,0,1,.458-.338c1.254.017,2.516.015,3.774.017,3.391,0,6.784.012,10.171,0a.451.451,0,0,1,.51.378c.822,2.437,1.65,4.872,2.5,7.3a2.045,2.045,0,0,0,2.207,1.589c2.508.073,5.025.138,7.539.222a16.834,16.834,0,0,0,5.974-.79,16.274,16.274,0,0,0,8.868-7.292,25.675,25.675,0,0,0,3.469-11.618,39.194,39.194,0,0,0-.659-10.718,18.369,18.369,0,0,0-2.435-6.464,8.938,8.938,0,0,0-7.491-4.362,17.041,17.041,0,0,0-7.236,1.4c-2.469,1.01-4.876,2.169-7.334,3.211a1.993,1.993,0,0,0-1.337,2.02c-.015,1.813-.06,3.628-.068,5.441C145.707,297.035,145.716,299.5,145.716,301.963Zm-54.326,9.18c.026.187.049.307.061.429a19.748,19.748,0,0,0,.9,4.305,10.483,10.483,0,0,0,5.24,6.372,13.9,13.9,0,0,0,5.736,1.4,10.415,10.415,0,0,0,7.764-2.632,13.972,13.972,0,0,0,3.7-5.934,29.954,29.954,0,0,0,1.516-8.914c.084-2.388.109-4.778.153-7.167q.081-4.283.15-8.565c.021-1.176.053-2.355.071-3.528s.046-2.378.029-3.567c-.01-.72-.418-1.074-1.1-.942q-2.628.511-5.244,1.081a1.471,1.471,0,0,0-1.223,1.466c-.026.391-.035.783-.045,1.175-.042,1.7-.075,3.406-.121,5.109-.086,3.172-.167,6.345-.279,9.517-.081,2.4-.153,4.8-.319,7.2a14.14,14.14,0,0,1-1.17,4.872,5.071,5.071,0,0,1-2.431,2.712,5.634,5.634,0,0,1-4.082.132,4.727,4.727,0,0,1-3.154-3.34,16.682,16.682,0,0,1-.716-5.4c0-1.776.1-3.552.166-5.326q.2-5.364.411-10.726c.047-1.237.107-2.473.132-3.71.014-.72-.3-.961-1-.821-1.05.211-2.09.452-3.149.64-.791.139-1.287.425-1.339,1.592q-.2,4.553-.4,9.108c-.031.683-.071,1.365-.107,2.047a.881.881,0,0,1-.162-.334,15.742,15.742,0,0,0-7.689-9.607,20.7,20.7,0,0,0-8.673-2.455,14.368,14.368,0,0,0-5.722.7,11.946,11.946,0,0,0-7.738,8.147A20.076,20.076,0,0,0,61.38,307.2a15.987,15.987,0,0,0,4.819,8.312c3.671,3.307,8.081,4.4,12.905,4.063a5.759,5.759,0,0,1,3.918.96c.7.49,1.409.949,2.132,1.385a10.875,10.875,0,0,0,6.653,1.535.737.737,0,0,0,.8-.677c.189-1.147.365-2.3.489-3.453.07-.652-.192-.839-.855-.921a15.484,15.484,0,0,1-2.5-.438,26.653,26.653,0,0,1-2.573-1.053C89.614,314.674,89.614,314.674,91.39,311.143Z" transform="translate(-54.98 -271.176)" fill="#fff"/><path d="M745.607,437.444v-.432q0-11.2-.007-22.407a.474.474,0,0,1,.387-.537,26.768,26.768,0,0,1,4.05-1.247,5.162,5.162,0,0,1,5.852,2.9,13.268,13.268,0,0,1,1.241,4.473,27.837,27.837,0,0,1,.075,6.529,14.269,14.269,0,0,1-2.423,7.044,8.141,8.141,0,0,1-6.1,3.44C747.673,437.3,746.667,437.362,745.607,437.444Z" transform="translate(-649.381 -393.113)" fill="#fff"/><path d="M598.684,429.092,589.2,428.6l4.469-15.238Z" transform="translate(-514.771 -393.664)" fill="#fff"/><path d="M170.85,440.44a13.532,13.532,0,0,1,.9-5.272,5.3,5.3,0,0,1,4.067-3.483,7.644,7.644,0,0,1,7.941,3.976,13.3,13.3,0,0,1,1.266,4.654,20.493,20.493,0,0,1,.015,5.059,10.02,10.02,0,0,1-.864,3.063,5.244,5.244,0,0,1-4.107,3.118,7.152,7.152,0,0,1-6.049-1.567,8.139,8.139,0,0,1-2.274-3.6A19.088,19.088,0,0,1,170.85,440.44Z" transform="translate(-154.707 -409.363)" fill="#fff"/></svg>