<svg xmlns="http://www.w3.org/2000/svg" width="100%" height="100%" viewBox="0 0 79.874 87.516"><g transform="translate(0.105 73.107)"><path d="M66.043,533.5l4.292,6.881V533.5h1.777v9.706H70.319l-4.427-7.121v7.121H64.1V533.5Z" transform="translate(-64.1 -532.568)" fill="#fff"/><path d="M129.539,548.5a4.25,4.25,0,0,1,1.385.225,2.881,2.881,0,0,1,1.114.706,3.93,3.93,0,0,1,1.039,2.9,3.881,3.881,0,0,1-1.039,2.87,3.271,3.271,0,0,1-2.485.961,3.363,3.363,0,0,1-2.515-.961,4.524,4.524,0,0,1,0-5.769A3.3,3.3,0,0,1,129.539,548.5Zm1.747,3.816a2.786,2.786,0,0,0-.452-1.728,1.485,1.485,0,0,0-1.25-.571,1.668,1.668,0,0,0-1.31.571,2.522,2.522,0,0,0-.512,1.728,2.786,2.786,0,0,0,.452,1.728,1.485,1.485,0,0,0,1.25.571,1.713,1.713,0,0,0,1.31-.571A2.471,2.471,0,0,0,131.286,552.316Z" transform="translate(-116.678 -545.315)" fill="#fff"/><path d="M183.33,546a4.694,4.694,0,0,1-1.566.391,3.312,3.312,0,0,1-.994-.135,2.007,2.007,0,0,1-1.446-2.1V540.08H178.3v-1.187h1.024V537H181.1v1.908h1.973v1.187H181.1v4.011q0,.9.858.9a3.542,3.542,0,0,0,1.129-.24Z" transform="translate(-161.102 -535.543)" fill="#fff"/><path d="M222.13,546a4.694,4.694,0,0,1-1.566.391,3.312,3.312,0,0,1-.994-.135,2.007,2.007,0,0,1-1.446-2.1V540.08H217.1v-1.187h1.024V537H219.9v1.908h1.973v1.187H219.9v4.011q0,.9.858.9a3.542,3.542,0,0,0,1.129-.24Z" transform="translate(-194.059 -535.543)" fill="#fff"/><path d="M258.9,528.322a.973.973,0,0,1,.286-.751,1.155,1.155,0,0,1,.813-.27,1.116,1.116,0,0,1,.8.27,1.129,1.129,0,0,1,0,1.5,1.141,1.141,0,0,1-.8.27,1.155,1.155,0,0,1-.813-.27A.973.973,0,0,1,258.9,528.322Zm.211,2.329h1.762v7.287H259.1V530.65Z" transform="translate(-229.565 -527.3)" fill="#fff"/><path d="M286.262,549.857a2.642,2.642,0,0,1,4.337-.571,3.723,3.723,0,0,1,.678,2.329v4.252H289.5v-4.252a1.712,1.712,0,0,0-.392-1.217,1.434,1.434,0,0,0-1.1-.406,1.475,1.475,0,0,0-1.2.631,3.1,3.1,0,0,0-.527,1.878v3.365H284.5V548.6h1.551Z" transform="translate(-251.309 -545.23)" fill="#fff"/><path d="M338.092,544.65a2.36,2.36,0,0,1-.888-1.863,2.319,2.319,0,0,1,.934-1.908,3.269,3.269,0,0,1,2.063-.706,4.034,4.034,0,0,1,1.943.436,1.978,1.978,0,0,1,.738-1.382,2.286,2.286,0,0,1,1.491-.526l-.09,1.7c-.858,0-1.31.285-1.34.856a2.219,2.219,0,0,1,.557,1.412,2.584,2.584,0,0,1-.256,1.2,2.267,2.267,0,0,1-.693.811,3.382,3.382,0,0,1-2.184.721,3.8,3.8,0,0,1-1.34-.225.717.717,0,0,0-.6.721c0,.451.376.676,1.145.676h2.44c1.657,0,2.485.571,2.485,1.728a2.422,2.422,0,0,1-.286,1.142,3.093,3.093,0,0,1-.843.992,4.913,4.913,0,0,1-3.087.962,5.2,5.2,0,0,1-2.922-.736,2.053,2.053,0,0,1-1.054-1.728,1.4,1.4,0,0,1,.407-1.067,1.824,1.824,0,0,1,1.084-.5,1.561,1.561,0,0,1-.888-1.337,1.188,1.188,0,0,1,.331-.871A1.9,1.9,0,0,1,338.092,544.65Zm1.355,3.14c-.934.045-1.416.391-1.416,1.067a.9.9,0,0,0,.587.811,2.919,2.919,0,0,0,1.4.3,4.618,4.618,0,0,0,1.265-.135,2.6,2.6,0,0,0,.768-.361,1.293,1.293,0,0,0,.678-1.082.555.555,0,0,0-.181-.436.734.734,0,0,0-.542-.165Zm2.289-5.033a1.437,1.437,0,0,0-.331-.992,1.3,1.3,0,0,0-1.024-.376,1.37,1.37,0,0,0-1.054.376,1.385,1.385,0,0,0,1.054,2.374,1.285,1.285,0,0,0,1.024-.391A1.437,1.437,0,0,0,341.736,542.756Z" transform="translate(-295.309 -536.987)" fill="#fff"/><path d="M401.192,533.977a2.38,2.38,0,0,1,2.184-1.382,2.516,2.516,0,0,1,2.123.886,3.723,3.723,0,0,1,.678,2.329v4.252H404.4V535.81a1.712,1.712,0,0,0-.392-1.217,1.434,1.434,0,0,0-1.1-.406,1.475,1.475,0,0,0-1.2.631,3.1,3.1,0,0,0-.527,1.878v3.365H399.4V529.8h1.777v4.177Z" transform="translate(-348.906 -529.424)" fill="#fff"/><path d="M455.267,551.715a8.112,8.112,0,0,1,2,.285v-.721a1.769,1.769,0,0,0-.3-1.127,1.269,1.269,0,0,0-1.009-.361,1.781,1.781,0,0,0-1.069.27.9.9,0,0,0-.376.781h-1.928a1.934,1.934,0,0,1,.873-1.788,4.533,4.533,0,0,1,2.455-.556c1.506,0,2.47.526,2.906,1.578a3.283,3.283,0,0,1,.226,1.277v4.627H457.5l-.136-.977a2.354,2.354,0,0,1-2.153,1.187,3.147,3.147,0,0,1-2.184-.691,2.148,2.148,0,0,1-.723-1.668,1.806,1.806,0,0,1,.8-1.562A3.678,3.678,0,0,1,455.267,551.715Zm2,1.4a6.133,6.133,0,0,0-1.657-.24c-.964,0-1.446.315-1.446.962a.873.873,0,0,0,.331.691,1.578,1.578,0,0,0,1.054.285,1.648,1.648,0,0,0,1.2-.481A1.675,1.675,0,0,0,457.27,553.112Z" transform="translate(-393.84 -545.315)" fill="#fff"/><path d="M514.421,549.978a2.5,2.5,0,0,1,2.47-1.578,2.44,2.44,0,0,1,2.018.886,3.524,3.524,0,0,1,.693,2.329v4.252h-1.792v-4.252a1.713,1.713,0,0,0-.391-1.217,1.434,1.434,0,0,0-1.1-.406,1.38,1.38,0,0,0-1.16.616,3.213,3.213,0,0,0-.482,1.863v3.411H512.9V551.63a1.712,1.712,0,0,0-.392-1.217,1.434,1.434,0,0,0-1.1-.406,1.475,1.475,0,0,0-1.2.631,3.1,3.1,0,0,0-.527,1.878v3.365H507.9V548.61h1.551l.2,1.262a2.425,2.425,0,0,1,2.3-1.457,2.591,2.591,0,0,1,1.521.421A2.442,2.442,0,0,1,514.421,549.978Z" transform="translate(-441.067 -545.23)" fill="#fff"/></g><g transform="translate(0 0)"><path d="M138.531,97a25.15,25.15,0,0,0,3.027-6.19,22.9,22.9,0,0,0,1.1-7.121v-.135a23.366,23.366,0,0,0-7.274-17.082,25.032,25.032,0,0,0-8.027-5.093,27.7,27.7,0,0,0-20.014.045,25.263,25.263,0,0,0-8.072,5.168,24.213,24.213,0,0,0-2.665,3.035,21.843,21.843,0,0,1-3.388,3.891A8.161,8.161,0,0,1,87.9,75.135a8.068,8.068,0,0,1-3.524-.766,8.257,8.257,0,0,1-2.756-2.118,9.674,9.674,0,0,1-1.792-3.245,13.017,13.017,0,0,1-.632-4.147v-.135a12,12,0,0,1,.632-3.906,10.537,10.537,0,0,1,1.762-3.245,8.608,8.608,0,0,1,11.46-1.412,12.55,12.55,0,0,1,3.283,4.072l12.815-7.482a24.626,24.626,0,0,0-3.494-4.883,21.091,21.091,0,0,0-4.653-3.8,22.431,22.431,0,0,0-5.843-2.479A26.2,26.2,0,0,0,88.1,40.7a25.655,25.655,0,0,0-9.7,1.818,24.118,24.118,0,0,0-7.861,5.063A23.148,23.148,0,0,0,65.3,55.243a24.17,24.17,0,0,0-1.9,9.6v.135a23.756,23.756,0,0,0,7.228,17.413,23.443,23.443,0,0,0,7.665,4.9,24.85,24.85,0,0,0,9.2,1.728,31.335,31.335,0,0,0,4.894-.361,22.338,22.338,0,0,0,1.446,4.6,23.161,23.161,0,0,0,5.346,7.647,25.032,25.032,0,0,0,8.027,5.093,27.973,27.973,0,0,0,17.755.751,25.949,25.949,0,0,0,6.7-3.08l5.105,4.567,6.506-7.212ZM127.1,84.015a12.049,12.049,0,0,1-.331,2.719L121.785,82.3l-6.491,7.272,5.316,4.507a10.033,10.033,0,0,1-3.253.526,9.291,9.291,0,0,1-4.081-.886,9.517,9.517,0,0,1-3.087-2.389,10.438,10.438,0,0,1-1.928-3.41,12.18,12.18,0,0,1-.663-3.966v-.135a11.936,11.936,0,0,1,.663-3.936,10.452,10.452,0,0,1,1.928-3.38,9.559,9.559,0,0,1,3.057-2.389,8.683,8.683,0,0,1,3.976-.886,9.291,9.291,0,0,1,4.081.886A9.8,9.8,0,0,1,124.42,76.5a10.866,10.866,0,0,1,1.988,3.41,11.456,11.456,0,0,1,.693,3.966Z" transform="translate(-63.4 -40.7)" fill="#fff"/></g></svg>