<svg xmlns="http://www.w3.org/2000/svg" viewBox="0 0 423.22 158.36"><defs><style>.cls-1{fill:#2a6eb5;}</style></defs><g id="Layer_2" data-name="Layer 2"><g id="Layer_1-2" data-name="Layer 1"><path class="cls-1" d="M284.47,98.76a4.34,4.34,0,0,0-.75,1.31,4.71,4.71,0,0,0-.28,1.54h3.45v-4a3,3,0,0,0-1.3.32A3.47,3.47,0,0,0,284.47,98.76Zm1.74,1.93c.23,0,.31,0,.31.11s-.24.12-.38.12a.83.83,0,0,0,.25,0s.05,0,.05,0,.05,0,.06,0,0,.05,0,.06h0s0,.06,0,.06a0,0,0,0,1,0,0h0s0,0,0,0-.05,0-.05.07,0,0,0,.08,0,0,0,0,0,0,0,0a.06.06,0,0,1-.07,0h0s0,0,0-.06h0s0,.06,0,.06h0s0,0,0,0,0,0,0,0h0s0-.05,0-.07h0s-.06,0-.07,0v0l-.05,0a.06.06,0,0,1,.06-.06,0,0,0,0,1,0,0s.08,0,.09,0,0,0,0-.08,0,0,0,0a.17.17,0,0,0-.13,0,.3.3,0,0,1-.17,0,.37.37,0,0,1-.15,0s0,.07,0,.08a.09.09,0,0,1,0,.11s-.07,0-.1,0h0s0,.05-.05.07a0,0,0,0,1-.06,0s0,0,0,0h0v0s0,0,0,0,0,0,0,0a.06.06,0,0,1-.08,0v0a0,0,0,0,1,0,0h0s0,0,0,0-.06,0-.06,0v0c0-.08.07,0,.07-.07h0s0,0,0,0v0l0,0s0-.06.06-.06l0,0c.07,0,.08.12.15.08s0,0,.06,0h0l-.08,0s0-.08,0-.12,0,0-.05,0c-.44,0-.22.16-.6.11,0,0,0,0-.08,0h0a0,0,0,0,0,0,0l-.1,0h0l-.09,0a.05.05,0,0,0,0,0s0,0,0,0-.18,0-.19.09,0-.06,0-.06,0,0,0,0v0h-.09v0a.08.08,0,0,1-.07.06.06.06,0,0,0,0-.06l0,0a.05.05,0,0,0,0,0h0a.06.06,0,0,1-.06.06s-.05,0-.05-.05h0s0,.05,0,.06,0,0,0,0a.06.06,0,0,0,0,.06.06.06,0,0,1-.06-.07h0s0,0,0-.08h0c-.07,0-.09,0-.09,0v0s0,0,0,0,0-.07.06-.07h0s0,0,.06,0,0,0,0,0,0,0,0,0-.07,0-.06-.06v0a.05.05,0,0,0,0,0,.06.06,0,0,1,.07,0h0s0,0,0,0,0,0,0,0,.14,0,.18,0a1.2,1.2,0,0,1,.19,0s0-.06,0-.1,0,0,0,0,0,0-.05,0-.14-.14-.16-.14,0,0,0,0,0,0,0,0h0s0,0,0,0,0,0,0,0h0c-.06,0-.15,0-.1-.09s.08.07.08,0h0c-.05,0-.06,0,0-.08h0s0,0,0,0h0v0h0s0,0,0,0,0,0,0-.06v0s0,0,.07,0h0v0h0s-.05,0-.05,0a0,0,0,0,1,0,0l0,0s.07,0,.07,0h0s0,0,0,.07,0,0,0,0v0h0a0,0,0,0,1,0,0l0,0,0,0a.08.08,0,0,1,.06,0,.06.06,0,0,1,0,0s0,.07,0,.11,0,.07,0,.1.09.09.13.09h.1a.17.17,0,0,1,0-.07s0,0,0,0,0,0,.06-.09,0,0,0,0,.06-.06.08-.06a.1.1,0,0,1,0-.08l0,0a0,0,0,0,1,0,0h0a.11.11,0,0,1,.07,0,.14.14,0,0,1,.07,0s0,0,0,0,0,0,0,0,0,0,.06,0a.13.13,0,0,1,0,.06s0,.11-.06.16a5.53,5.53,0,0,1,1.23,0c.11,0,.3,0,.3-.07s0-.05-.23-.05-1,.13-1-.1.27-.1.48-.1h0c.12-.08.41,0,.51,0s-.14.07-.27.07c.22,0,.44-.13.6,0-.21-.07-.52.12-.81,0,0,0-.05,0-.05,0-.18,0-.42,0-.42,0S286,100.69,286.21,100.69Zm-1-.57Zm1.13-.5c.24,0,.32,0,.32.13s-.23.13-.39.13l.26,0c.05,0,.05,0,.05,0s0,0,.07,0a.08.08,0,0,1,0,.06s0,0,0,0,0,.06,0,.06,0,0,0,0h0a.05.05,0,0,1,0,0c0,.06-.06,0-.06.07s.05,0,0,.08l0,0,0,0a0,0,0,0,1-.06,0h0s0,0,0-.07h0s0,.07,0,.07h0s0,0,0,0,0,0,0,0h0s0-.05,0-.07h0s-.06,0-.07,0h0l-.05,0s0,0,.06-.06h0s.08,0,.09,0,0,0,0-.09,0,0,0,0a.2.2,0,0,0-.13,0,.29.29,0,0,1-.19.05.33.33,0,0,1-.15,0s0,.07,0,.08a.13.13,0,0,1,0,.12s-.07,0-.11,0h0s0,.05-.05.07a.06.06,0,0,1-.06,0s0,0,0,0h0s0,0,0,0h0s0,0,0,0-.09,0-.08,0a0,0,0,0,1,0,0h0s0,0,0,0h0a0,0,0,0,0,0,0s-.06,0-.05,0l0,0c0-.08.08,0,.08-.06h0a0,0,0,0,1,0,0h0l-.05,0s0-.06.07-.06a0,0,0,0,1,0,0c.07,0,.08.13.15.08l.06,0h0a.3.3,0,0,0-.08,0c-.05,0-.05-.1,0-.14a.25.25,0,0,1-.09,0c-.34-.06-.19.14-.4.13,0,0,0,0-.07,0s-.13.16-.21.15a.05.05,0,0,0,0,0s0,0,0,0-.12,0-.13.1,0-.06,0-.06a0,0,0,0,0,0,0,0,0,0,0,1,0,0h-.1s0,0,0,0-.06.07-.07.08a.09.09,0,0,0,0-.08.05.05,0,0,1,0,0s0,0,0,0h0a.06.06,0,0,1-.06.06.05.05,0,0,1-.05-.05h0s0,.06,0,.07h0s0,0,0,.06a.08.08,0,0,1-.06-.07h0s0,0,0-.09,0,0,0,0-.09,0-.09,0v0l0,0s0-.07.06-.07h0l0,0s0,0,.06,0,0,0,0,0,0,0,0,0-.08,0-.07-.06v0a0,0,0,0,0,0,0,.08.08,0,0,1,.08,0h0a.05.05,0,0,1,0,0s0,0,0,0,.14,0,.19,0h.17s0-.06,0-.1-.06,0-.1,0-.09-.09-.1-.09,0,0,0,0,0,0,0,0h0s0,0,0,0l0,0s0,0,0,0-.15,0-.1-.1c0,.07.08.08.09,0a0,0,0,0,0,0,0s0,0,0-.08h0s0,0,0,0h0a0,0,0,0,0,0,0,0,0,0,0,1,0-.07s0,0,0,0,0-.05.08,0h0a0,0,0,0,0,0,0s-.06,0-.05,0,0,0,0,0l0,0a0,0,0,0,1,.07,0h0a0,0,0,0,1,0,0s0,0,.05.07,0,0,0,0v0h0a0,0,0,0,1,0,0l0,0a.05.05,0,0,0,0,0s.05,0,.06,0,0,0,0,0a.7.7,0,0,1,0,.12c0,.05,0,.07.05.1a.45.45,0,0,1,.1.09h.05l0,0V99.7s0,0,0,0,0,0,.07-.09l0,0s.05-.07.08-.07a.13.13,0,0,1,0-.09s0,0,.06,0,0,0,0,0h0l.07,0,.07,0a.14.14,0,0,1,0,0s0,0,0,.05l.05,0a.06.06,0,0,1-.05.06s0,.11-.05.16a5.48,5.48,0,0,1,1,0c.11,0,.31,0,.31-.07s0-.06-.24-.06-.85.14-.85-.1.14-.12.31-.11c0,0,0,0,0,0s.33,0,.43,0,0,.08-.19.08c.24.05.42-.13.65,0-.19,0-.56.11-.87,0a0,0,0,0,1-.05,0c-.13,0-.23,0-.23.06S286.06,99.62,286.3,99.62Zm-.67-1.24h0l.06,0,.06,0s0,0,0,0,0,0,0,0l.05,0a.08.08,0,0,1,0,.06s-.06.12-.06.16c.27-.06.37,0,.51,0s.31,0,.31-.11-.69,0-.69-.27c0,0,0-.07.07-.1a.09.09,0,0,1,0,0c.08-.09.21-.1.27-.18a.16.16,0,0,1-.09.14c.13,0,.17-.24.46-.2-.24,0-.25.29-.59.32h0s0,0,0,.07.68,0,.68.27c0,.08-.12.16-.37.16h0c.12,0,.15,0,.21,0s0,0,0,0,.05,0,.06,0,0,0,0,0h0s0,0,0,0,0,0,0,0h0s0,0,0,0,0,0,0,.06,0,0,0,.07l0,0,0,0a0,0,0,0,1-.06,0h0s0,0,0-.06h0s0,.06,0,.06h0s0,0,0,0a.05.05,0,0,1,0,0h0s0,0,0-.06h0a0,0,0,0,1-.06,0h0l-.05,0a.05.05,0,0,1,.05,0,0,0,0,0,1,0,0s.07,0,.08,0,0,0,0-.07,0,0,0,0a.2.2,0,0,0-.12,0s.05,0,0,0a.25.25,0,0,1-.13,0s0,.06,0,.07a.11.11,0,0,1,0,.1s-.06,0-.1,0h0s0,0,0,.06-.05,0-.05,0h0a0,0,0,0,1,0,0,0,0,0,0,0,0,0s0,0,0,0-.07,0-.07,0v0s0,0,0,0h0a0,0,0,0,1,0,0h0a0,0,0,0,0,0,0s-.05,0-.05,0v0c0-.07.06,0,.06-.05h0s0,0,0,0v0a.09.09,0,0,0-.05,0,.06.06,0,0,1,.06-.06l0,0c.06,0,.07.11.13.07h.06L286,99s0-.08,0-.12l-.08,0c-.26,0-.05.07-.18.1a.35.35,0,0,1-.15.07s0,0,0,0a.07.07,0,0,1-.06,0l0,0s-.05.05-.07.05l0,0s0,0,0,0-.11,0-.11.09,0-.06,0-.06v0s0,0,0,0h0a.08.08,0,0,1-.07,0h0v0s-.05,0-.06.06a.06.06,0,0,0,0-.07s0,0,0,0,0,0,0,0h0s0,.05,0,.06a.05.05,0,0,1,0,0s0,0,0,0,0,0,0,.06h0s0,0,0,0-.06,0-.05-.06h0s0,0,0-.08h0c-.07,0-.08,0-.09,0v0s0,0,0,0a.06.06,0,0,1,.05-.07h0s0,0,.05,0,0,0,0,0h0c-.06,0-.07,0-.06-.05s0,0,0,0,0,0,0,0a.06.06,0,0,1,.07,0h0s0,0,0,0l0,0s.12,0,.16,0a.26.26,0,0,1,.12,0l.15,0s-.05-.09-.06-.09,0,0,0,0,0,0,0,0,0,0,0,0a0,0,0,0,0,0,0l0,0h0c-.06,0-.13,0-.08-.08a0,0,0,1,0,.08,0h0s0,0,0-.06h-.07s0,0,0,0,0,0,0,0v0s0,0,.08,0h0s-.05,0,0,0,0,0,0,0h0s.07,0,.06,0h0s0,0,0,.06h0s0,0,0,0h0s0,0,0,0h0s0,0,0,0,.05,0,.05,0,0,0,0,0,0,.06,0,.09,0,.06,0,.08,0,0,.05.05h0s0-.1,0-.16l0,0s0,0,.05-.08l0,0s0,0,.08-.06a.08.08,0,0,1,0-.07l.05,0S285.62,98.37,285.63,98.38Z"/><path class="cls-1" d="M289.25,99.59a.1.1,0,0,1-.09,0,.1.1,0,0,1,0-.12.22.22,0,0,1-.16,0,.22.22,0,0,1,.08-.14c-.07,0-.09,0-.1-.07a.09.09,0,0,1,0-.09,3,3,0,0,0-.67-.62,2.59,2.59,0,0,0-.65-.31.2.2,0,0,1,0,.14l-.13,0v1a.1.1,0,0,1,.12.06.09.09,0,0,1,0,.11.21.21,0,0,1,.15.07.24.24,0,0,1-.15.06.1.1,0,0,1,0,.12.11.11,0,0,1-.12,0V101a.25.25,0,0,1,.15,0,.22.22,0,0,1-.05.14h.72a.09.09,0,0,1,.05-.11s.08,0,.12,0a.24.24,0,0,1,.06-.15.21.21,0,0,1,.07.15c0-.05.08-.06.11,0s.06,0,.06.11h.84a.22.22,0,0,1-.07-.16.28.28,0,0,1,.13,0A3.66,3.66,0,0,0,289.25,99.59Zm.17,1s0,0-.06.06h0c0,.06-.06,0-.06.07s.05,0,0,.09l0,0s0,0,0,0a.06.06,0,0,1-.08,0h0s0,0,0-.07h0s0,.06,0,.06h0s0,0,0,.05,0,0,0-.05h0s0-.06,0-.07,0,0,0,0-.07,0-.08,0h0a.09.09,0,0,0-.05,0s0-.06.06-.07,0,0,0,0,.08,0,.09,0,0-.06,0-.11a0,0,0,0,0,0,0s-.07.09-.17.06a.49.49,0,0,1-.27-.29c-.08,0-.23,0-.21.14a.67.67,0,0,0,.06.12s0,0,0,.07-.08,0-.08,0l-.05,0c-.07,0-.09,0-.08,0l0,0,0,0a.06.06,0,0,1-.06,0s0,0,0,0h0s0,0,0,0a0,0,0,0,1,0,0h0s0,0,0,0a0,0,0,0,1-.08,0v0s0,0,0,0h0s0,0,0,0-.06,0-.06,0,0,0,0,0,.08,0,.08-.06h0a0,0,0,0,1,0,0h0a.06.06,0,0,0-.05,0s0-.06.06-.06h0l0,0c.08,0,.09.08.15.08h0c.07,0,.1,0,.19,0a.2.2,0,0,1,.08-.38.53.53,0,0,1,.23,0c-.06-.12-.35-.12-.34-.33a.35.35,0,0,0-.06.09.08.08,0,0,0-.09,0,.1.1,0,0,0-.08.07.24.24,0,0,0-.13,0s0,0,0,0-.06,0-.07,0h0s0,0,0,.08h0s0,0,0,.05-.08,0-.08,0h0s0-.06,0-.09,0,0,0,0-.07.06-.09,0l0,0a.06.06,0,0,0,0,0,.06.06,0,0,1,0-.09h0v0s0,0,.08,0,0,0,0,0h0c-.08,0-.09,0-.09,0v0s0,0,0,0a.07.07,0,0,1,.08,0h0s0,0,0,0l.05,0s.09,0,.13-.06a.87.87,0,0,1,.17-.16.52.52,0,0,1-.24-.26l0,0v0s0,0,0,0h0a0,0,0,0,0,0,0s0-.06,0-.08-.14,0-.09-.1a0,0,0,0,0,.08,0s-.05,0,0-.08h0s0,0,0,0a0,0,0,0,1,0,0h0a.06.06,0,0,0,0,0s0,0,0-.07,0,0,0,0,0,0,.08,0,0,0,0,0h0s-.06,0-.06,0a0,0,0,0,1,0,0l0,0s.07,0,.07,0h0s0,0,.05.07h0v0h0s0,0,0,0l0,0a.05.05,0,0,0,0,0s.05,0,.06,0a.06.06,0,0,1,0,0s0,.07,0,.12,0,.07.05.1l.1.08a.91.91,0,0,1,.1.13.27.27,0,0,0,.08.07c0-.14.17-.13.17-.25s-.09,0-.15,0-.08,0-.08,0,0,0,0,0h.1s0,0,0,0-.07,0-.09,0l0,0,0,0h0s0,0,0-.06,0-.06,0-.06a.11.11,0,0,0,.08,0h.07s0,0,.07-.05,0,0,0,.05a.07.07,0,0,1,.06,0h.06a.24.24,0,0,1,0,.11c.07,0,.2.28.12.38a.45.45,0,0,0,0,.4,2.82,2.82,0,0,0,.25.3l.08.07.05,0h.06s.06,0,.06,0-.23-.22-.34-.35a.35.35,0,0,1-.06-.42.79.79,0,0,1,0,.13c.1.14.07.21.11.29l.11.1c.12.1.22.15.21.26s-.05.09-.1.1h-.16a.18.18,0,0,1-.09-.08c0,.2.27.25.31.21s.06,0,.1,0,0,0,0,.06a.08.08,0,0,0,.09,0,.16.16,0,0,1-.09.09h0A.29.29,0,0,0,289.42,100.61Z"/><path class="cls-1" d="M285.64,98.68a.08.08,0,0,0,0,0s0,0,0,0,0,0,0,0,0,0,0,0,0,0,0,0a0,0,0,0,0,0,0s0,0,0,0l-.06,0s0,0,0,0h0a.05.05,0,0,1,0,0h0s0,0,0,0a0,0,0,0,0,0,0A0,0,0,0,0,285.64,98.68Z"/><path class="cls-1" d="M285.66,98.48l-.07,0s0,0,0,.06S285.65,98.5,285.66,98.48Z"/><path class="cls-1" d="M284.84,100.61s0,.06,0,.06l.06,0Z"/><path class="cls-1" d="M284.75,100.65a0,0,0,0,0,0,0,0,0,0,0,0,0,0s0,0,0,0,0,0,0,0,0,0,0,0,0,0,0,0,0,0,0,0a0,0,0,0,0,0,.06,0,0,0,0,0,.05,0,.08.08,0,0,0,0,0,0,0,0,0,1,0,0s0,0,.05,0,0,0,0,0,0,0,0,0,0,0,0,0,0,0,0,0Z"/><path class="cls-1" d="M284.78,100.59l-.08,0s0,0,0,.06S284.77,100.61,284.78,100.59Z"/><path class="cls-1" d="M285.06,99.51l-.08-.05s0,.05,0,.07S285.05,99.53,285.06,99.51Z"/><path class="cls-1" d="M285.79,98.54l-.08,0a0,0,0,0,0,0,0Z"/><path class="cls-1" d="M288.32,97.88a3,3,0,0,0-1.22-.32v4h3.37a4.71,4.71,0,0,0-.28-1.54,4.17,4.17,0,0,0-.76-1.31A3.43,3.43,0,0,0,288.32,97.88Zm1.61,3.07c.11,0,.16.1.13.15s0,.05-.11.05a.24.24,0,0,1,.07.15.21.21,0,0,1-.15,0,.11.11,0,0,1-.06.11s-.14,0-.14-.13a.06.06,0,0,0,.12,0h-1.11a.22.22,0,0,1-.06.22.25.25,0,0,1-.06-.22h-1a.07.07,0,0,0,.12,0c0,.1-.09.15-.14.12s-.06,0-.06-.11a.18.18,0,0,1-.15.06.34.34,0,0,1,.06-.15.1.1,0,0,1-.11-.05.12.12,0,0,1,.13-.15.07.07,0,0,0,0,.13V99.64a.2.2,0,0,1-.21,0,.2.2,0,0,1,.21-.06V98.21a.07.07,0,0,0,0,.12c-.11,0-.15-.11-.12-.16a.13.13,0,0,1,.09,0,.25.25,0,0,1-.05-.16.27.27,0,0,1,.16.08.08.08,0,0,1,.06-.08c.05,0,.14,0,.13.14,0-.06-.12,0-.12,0a2.71,2.71,0,0,1,.81.38,3.13,3.13,0,0,1,.73.68.86.86,0,0,1,.07.1.24.24,0,0,1,.22-.1.24.24,0,0,1-.14.18h0a3.84,3.84,0,0,1,.65,1.71A.07.07,0,0,0,289.93,101Z"/><path class="cls-1" d="M285.12,99.54s0,.06,0,.06l.06,0Z"/><path class="cls-1" d="M285,99.57h0s0,0,0,0h0s0,0,0,0,0,0,0,0h0s0,0,0,0,0,0,0,.06a0,0,0,0,0,.05,0s0,0,0,0,0,0,0,0,0,0,0,0,0,0,0,0,0,0,0,0a0,0,0,0,0,0,0l0,0Z"/><path class="cls-1" d="M293.77,96.76a.41.41,0,0,0,.16-.26.2.2,0,0,0,0-.16.25.25,0,0,0-.14-.08.47.47,0,0,0-.29.09.41.41,0,0,0-.16.29.2.2,0,0,0,0,.13A.32.32,0,0,0,293.77,96.76Z"/><path class="cls-1" d="M295.07,93.53a2.2,2.2,0,0,1,.93-.26c-.22-.07-.38-.26-.56-.26C295.07,93,295.17,93.32,295.07,93.53Z"/><path class="cls-1" d="M292.84,97.29a.21.21,0,0,0-.15.06.35.35,0,0,0-.11.27v0a.31.31,0,0,0,.23.33.23.23,0,0,0,.15-.06.39.39,0,0,0,.11-.27.39.39,0,0,0-.08-.28A.26.26,0,0,0,292.84,97.29Z"/><path class="cls-1" d="M300.07,107.29a.49.49,0,0,0,.2-.28.27.27,0,0,0,0-.19h0a.26.26,0,0,0-.16-.1.48.48,0,0,0-.34.08.47.47,0,0,0-.2.27.27.27,0,0,0,0,.19A.37.37,0,0,0,300.07,107.29Z"/><path class="cls-1" d="M301.13,105.6a.56.56,0,0,0-.57.56.57.57,0,1,0,1.13,0A.56.56,0,0,0,301.13,105.6Z"/><path class="cls-1" d="M297.87,107.54a.36.36,0,0,0,.45-.22v0c0-.14-.15-.28-.34-.32a.48.48,0,0,0-.34.06.29.29,0,0,0-.11.16C297.5,107.34,297.66,107.5,297.87,107.54Z"/><path class="cls-1" d="M298.62,101.28a.2.2,0,0,0,.18-.06h0a.21.21,0,0,0,.07-.17.42.42,0,0,0-.13-.32.46.46,0,0,0-.31-.15.28.28,0,0,0-.18.06.29.29,0,0,0-.07.18.5.5,0,0,0,.13.31A.42.42,0,0,0,298.62,101.28Z"/><path class="cls-1" d="M278.65,94c.14,0,.13.12,0,.3.22-.05.43-.14.53,0s0,.27-.1.41,0,.23,0,.42a.47.47,0,0,0,.62.33.45.45,0,0,0,.22-.65c-.08-.18-.16-.33-.26-.33s-.3,0-.35-.22.14-.29.34-.4c-.21-.06-.31-.15-.19-.24s.32.09.37,0-.1-.16-.16-.22-.16-.06-.28,0l-.92.35c-.12,0-.19.09-.19.21s-.06.24,0,.27S278.48,94,278.65,94Z"/><path class="cls-1" d="M279.83,92.94c.19-.15,0-.32.27-.69a8.51,8.51,0,0,1-1,.46A.52.52,0,0,0,279.83,92.94Z"/><path class="cls-1" d="M297,105.67a.25.25,0,0,0-.18.07.44.44,0,0,0-.12.32.42.42,0,0,0,.11.32.23.23,0,0,0,.17.08h0a.18.18,0,0,0,.17-.07.43.43,0,0,0,.13-.32C297.24,105.85,297.11,105.67,297,105.67Z"/><path class="cls-1" d="M278.39,93a7.07,7.07,0,0,1-1,.35c.43.11.43.34.67.32S278.45,93.27,278.39,93Z"/><path class="cls-1" d="M323.24,124.7a2.5,2.5,0,0,0-.89-.66,2.76,2.76,0,0,0-2.16,0,2.5,2.5,0,0,0-.89.66,3,3,0,0,0-.6,1.06,4.65,4.65,0,0,0-.22,1.45,4.54,4.54,0,0,0,.22,1.44,2.88,2.88,0,0,0,.6,1.06,2.59,2.59,0,0,0,.89.65,2.76,2.76,0,0,0,2.16,0,2.59,2.59,0,0,0,.89-.65,3.19,3.19,0,0,0,.6-1.06,4.55,4.55,0,0,0,.21-1.44,4.66,4.66,0,0,0-.21-1.45A3.3,3.3,0,0,0,323.24,124.7Z"/><path class="cls-1" d="M378,124.55a2.55,2.55,0,0,0-.79-.53,2.61,2.61,0,0,0-1-.2,2.54,2.54,0,0,0-1,.2,2.31,2.31,0,0,0-.79.54,2.62,2.62,0,0,0-.52.81,3.13,3.13,0,0,0-.23,1h5.14a3,3,0,0,0-.23-1A2.5,2.5,0,0,0,378,124.55Z"/><path class="cls-1" d="M339.91,124.55a2.55,2.55,0,0,0-.79-.53,2.73,2.73,0,0,0-2.05,0,2.37,2.37,0,0,0-.78.54,2.62,2.62,0,0,0-.52.81,3.13,3.13,0,0,0-.23,1h5.14a3,3,0,0,0-.23-1A2.5,2.5,0,0,0,339.91,124.55Z"/><path class="cls-1" d="M297,104a.32.32,0,1,0,.5.35.31.31,0,1,0-.5-.35Z"/><path class="cls-1" d="M298.31,97.65l-.29-.23a1.46,1.46,0,0,1,0,.4.35.35,0,0,1-.14-.28l-.23.29a.51.51,0,0,1,.29.1.35.35,0,0,1-.5,0c-.2-.12-.29-.23-.23-.33s.28-.08.31.11c.16-.08.2-.21.14-.32a.25.25,0,0,0-.28-.07.56.56,0,0,0,.33-.64.58.58,0,0,0-.49.51A.25.25,0,0,0,297,97c-.12,0-.22.08-.22.26.19-.06.31.12.23.24s-.22.09-.41,0a.35.35,0,0,1-.13-.52.39.39,0,0,1,.1.31l.26-.41a.47.47,0,0,1-.29,0,.54.54,0,0,1,.35-.23l-.49-.28a.54.54,0,0,1,0,.42.48.48,0,0,1-.14-.26l-.23.43a.4.4,0,0,1,.32-.06.36.36,0,0,1-.53.14c-.19-.1-.28-.22-.22-.34a.18.18,0,0,1,.32.08.21.21,0,0,0,.11-.32.23.23,0,0,0-.29,0,.6.6,0,0,0,.2-.69.56.56,0,0,0-.39.61c0-.12-.11-.2-.2-.2s-.22.09-.2.27a.18.18,0,0,1,.25.22c-.06.09-.2.07-.41,0a.36.36,0,0,1-.23-.45c.1,0,.19.15.22.2l.14-.34a.38.38,0,0,1-.31,0,1.3,1.3,0,0,1,.33-.24l-.34-.13s-.2.65-.31,1l3.15,1.82C297.84,98.15,298.31,97.65,298.31,97.65Z"/><path class="cls-1" d="M293.32,99.67a.51.51,0,0,0-.34,0,.22.22,0,0,0-.14.13.35.35,0,0,0,.23.43.41.41,0,0,0,.34,0,.24.24,0,0,0,.15-.12.25.25,0,0,0,0-.19A.45.45,0,0,0,293.32,99.67Z"/><path class="cls-1" d="M297.93,102.57a.34.34,0,0,0,0,.49.36.36,0,0,0,.48-.14.35.35,0,0,0,0-.49A.34.34,0,0,0,297.93,102.57Z"/><path class="cls-1" d="M286.07,103.38l-.61-.87-.26.07.81,1.17Z"/><path class="cls-1" d="M284.55,96.52a4.76,4.76,0,0,1,4.8,0c.27-.16.39-.32.39-.5,0-.65-1.85-.71-2.79-.71h0c-.93,0-2.78.06-2.78.71C284.17,96.2,284.28,96.36,284.55,96.52Z"/><path class="cls-1" d="M286,103.93l-.92-1.32h-.28l1.14,1.65C285.94,104.18,286,104.06,286,103.93Z"/><path class="cls-1" d="M288.07,104.22l-.08,0s0,.06,0,.06S288,104.22,288.07,104.22Z"/><path class="cls-1" d="M285.89,104.44l-1.26-1.81A1.77,1.77,0,0,0,285.89,104.44Z"/><path class="cls-1" d="M286.17,102.72v0h0a.1.1,0,0,1-.11-.11c0-.08.07-.1.13-.1h0c0-.17,0-.21-.08-.21a2.34,2.34,0,0,0-.54.2l.52.74C286.13,103,286.15,102.83,286.17,102.72Z"/><path class="cls-1" d="M287,110.49a.21.21,0,0,0-.2.21.2.2,0,0,0,.2.2.2.2,0,0,0,.21-.2A.21.21,0,0,0,287,110.49Z"/><path class="cls-1" d="M287.85,109.58a.25.25,0,0,1,.2.16.68.68,0,0,0,.1-.32.37.37,0,0,0-.36-.37c-.42,0-.32.58-.53.58a.14.14,0,0,1-.15-.14c0-.17.29-.32.29-.56s-.21-.43-.45-.61c-.23.18-.44.38-.44.61s.29.39.29.56a.15.15,0,0,1-.16.14c-.2,0-.1-.58-.52-.58a.37.37,0,0,0-.36.37.68.68,0,0,0,.1.32.25.25,0,0,1,.2-.16c.32,0,.19.83.57.83a.23.23,0,0,0,.25-.22c0-.12-.08-.15-.08-.25s.07-.13.15-.13.16,0,.16.13-.08.13-.08.25a.23.23,0,0,0,.25.22C287.65,110.41,287.53,109.58,287.85,109.58Z"/><path class="cls-1" d="M285.94,106.26a.33.33,0,1,0,.33.33A.32.32,0,0,0,285.94,106.26Z"/><path class="cls-1" d="M287.39,106.77a.29.29,0,0,0-.3.3.3.3,0,1,0,.6,0A.29.29,0,0,0,287.39,106.77Z"/><path class="cls-1" d="M285.06,105.07c-.3,0-.62.33-.72.43l0,0h0l-.24,0a1.06,1.06,0,0,0,.11.21l0,0,0,0a1.31,1.31,0,0,0-.23.65.66.66,0,0,0,.34.47.42.42,0,0,0,.42,0l-.24-.15,0,0a.28.28,0,0,1-.16-.16v-.06a.59.59,0,0,1,.1-.28l0-.06,0,0,0-.06.06,0a.45.45,0,0,0,.31.08.27.27,0,0,0,.08-.07c0-.08,0-.22-.14-.34l-.06,0,.09-.09a.81.81,0,0,1,.18-.19.29.29,0,0,1,.41,0l.08.07.13.1a.55.55,0,0,0-.14-.3A.5.5,0,0,0,285.06,105.07Z"/><path class="cls-1" d="M288.17,103.19l-.08,0s0,0,0,0S288.14,103.2,288.17,103.19Z"/><path class="cls-1" d="M288,103.13l-.08,0s0,0,0,.06S288,103.15,288,103.13Z"/><path class="cls-1" d="M288.05,102.33a.08.08,0,0,0,0,0s0,0,0,0,0,0,0,0,0,0,0,0,0,0,0,0,0,0,0,0,0,0,0,0l-.07,0h0s0,0,0,0,0,0,0,0,0,0,0,0,0,0,0,0,0,0,0,0,0,0,0,0a.06.06,0,0,0,0,.06A0,0,0,0,0,288.05,102.33Z"/><path class="cls-1" d="M288,103.34a.08.08,0,0,0,0,0s0,0,0,0,0,0,0,0,0,0,0,0,0,0,0,0,0,0,0,0l0,0-.07,0h0v0h0s0,0,0,0,0,0,0,0,0,0,0,0,0,0,0,0a0,0,0,0,0,0,0S288,103.35,288,103.34Z"/><path class="cls-1" d="M288.22,102.18l-.09,0s0,.06,0,.06Z"/><path class="cls-1" d="M287.94,104.16l-.07,0s0,0,0,0S287.93,104.17,287.94,104.16Z"/><path class="cls-1" d="M287.93,104.32a0,0,0,0,1,0,0s0,0,0,0,0,0,0,0,0,0,0,0,0,0,0,0,0,0,0,0l-.07,0h0s0,0,0,0,0,0,0,0,0,0,0,0,0,0,0,0,0,0,0,0l0,0s0,0,0,.06,0,0,.05,0Z"/><path class="cls-1" d="M288.07,102.11l-.08,0s0,0,0,.06S288.06,102.13,288.07,102.11Z"/><path class="cls-1" d="M419.22,0H0V158.36H423.22V0Zm0,154.36H4V4H419.22Z"/><path class="cls-1" d="M8.82,8.82V149.54H414.39V8.82Zm209.6,16.76h8.05l20.42,50.25h-11L231.1,63.61h-17l-4.63,12.22H198.91Zm-51.37.23h10.4v41.6h17.46v8.42H167.05Zm-75.82,0h10.4v50H91.23ZM51.68,105.48V113H37.3v11.7H54v7.64H27.88V87H54.09l-2.41,7.63H37.3v10.81Zm.2-43.23L41.78,48A45.76,45.76,0,0,1,38.44,43h-.15c.07,1.75.07,4,.07,5.62V75.83H28v-50h9.42L50.21,44c1.67,2.35,2.88,4.25,4,6.23h.15c1-1.9,2.28-4,3.87-6.53L69.87,25.81h9.49v50H69V49c0-2,0-4.25.07-6H69c-.61,1.29-2.58,4.18-3.42,5.47l-9,13.82ZM103,132.38H94.4L74.93,107.54c-1.65-2.2-3.1-4.2-4.68-6.26h-.14a65.87,65.87,0,0,1,.21,6.74v24.36H60.89V87h9.43L89,110.91c1.72,2.2,3.23,4.2,4.54,6.19h.14c-.07-2.34-.14-5.36-.14-7.5V87H103Zm47.43-3a38.92,38.92,0,0,1-17,3.71c-15.35,0-24.15-9.56-24.15-22.49,0-13.7,10-24,25.39-24a42.09,42.09,0,0,1,13.48,2.21v8.73a28.56,28.56,0,0,0-12.73-3c-10.59,0-16.1,6.4-16.1,15.55s5.3,15.2,14.66,15.2a19.32,19.32,0,0,0,7-1.17v-13.9h9.42ZM129.19,75.83H113.33v-50h16.85c17.61,0,27.63,9.64,27.63,24.59C157.81,65.89,146.35,75.83,129.19,75.83Zm38.67,56.55h-9.43V87h9.43Zm50.57,0h-8.6l-19.47-24.84c-1.65-2.2-3.09-4.2-4.68-6.26h-.13c.2,1.65.2,4.47.2,6.74v24.36h-9.42V87h9.42l18.72,23.87c1.72,2.2,3.23,4.2,4.54,6.19h.14c-.07-2.34-.14-5.36-.14-7.5V87h9.42Zm32.42-26.9V113H236.47v11.7h16.72v7.64H227V87h26.22l-2.41,7.63H236.47v10.81Zm15.47,26.89h-1.45V87.28h1.45Zm-3-90.85h-.15a73.32,73.32,0,0,1,.23,7.44V75.83H253v-50h10.4L284,52.15c1.89,2.43,3.56,4.63,5,6.83h.15c-.08-2.58-.15-5.92-.15-8.27V25.81h10.4v50H290l-21.49-27.4C266.65,46,265.06,43.8,263.31,41.52ZM290,96a.77.77,0,0,1-.42.65,5,5,0,0,1,1.05.91,4.36,4.36,0,0,1,.65.88.62.62,0,0,0-.09.12c-.05.07-.16.18-.2.24a.47.47,0,0,0-.12.28.65.65,0,0,0,.11.31c.08.14.62,1.2.74,1.46a1.4,1.4,0,0,0,.42.49c0,.14,0,.19,0,.33a6.42,6.42,0,0,1-.4,2.27,5.82,5.82,0,0,1-1.11,1.86,5.4,5.4,0,0,1-.74.7h0c-.07,0-.36.14-1.55-.16a3.31,3.31,0,0,1-.39-.11,1.06,1.06,0,0,1,.08-.34.76.76,0,0,1,.16-.3c.07,0,.07-.08.14-.11a3.61,3.61,0,0,0,1.11-.89,4.06,4.06,0,0,0,.76-1.31,4.61,4.61,0,0,0,.27-1.48H287.1v3.74l.77.07a.91.91,0,0,0-.21.55c-.39-.12-.76-.27-1.16-.43a.51.51,0,0,1,.39-.18v-3.75h-3.44a1.25,1.25,0,0,0-.14-.47.93.93,0,0,1-.24-.65,1.15,1.15,0,0,0-.28-.6c-.1-.13-.51-.58-.61-.68a5.73,5.73,0,0,1,1.11-1.84,5,5,0,0,1,1-.91.78.78,0,0,1-.41-.65.57.57,0,0,1,.21-.45,6.23,6.23,0,0,0-.94-1.9l.7-.29a1.06,1.06,0,0,0-.15.79.91.91,0,0,0,.39-.53,3,3,0,0,0,.26.75.66.66,0,0,0-.58,0,.82.82,0,0,0,.87.29c.25-.06.5-.19.49-.38a.25.25,0,0,0-.25-.24c-.15,0-.16.25-.11.35-.2-.11-.41-.69-.1-.78s.47.27.55.53c.05-.31.18-.61.42-.59s.22.61.11.76c0-.21-.14-.32-.23-.31s-.2.06-.18.25.29.31.6.31a.76.76,0,0,0,.85-.66,1,1,0,0,0-.6.37,3.7,3.7,0,0,0,0-.94.92.92,0,0,0,.59.36,1.11,1.11,0,0,0-.5-.64h1.26a1.1,1.1,0,0,0-.5.65,1,1,0,0,0,.6-.37,3.7,3.7,0,0,0,0,.94,1,1,0,0,0-.61-.37.76.76,0,0,0,.85.66c.31,0,.58-.12.6-.31s-.1-.25-.18-.25-.21.1-.23.31c-.11-.15-.21-.74.11-.76s.37.28.42.59c.08-.26.3-.6.54-.53s.11.67-.09.78c.05-.1,0-.33-.11-.35a.25.25,0,0,0-.25.24c0,.19.24.32.49.38a.82.82,0,0,0,.87-.29.64.64,0,0,0-.57,0,3,3,0,0,0,.26-.75.87.87,0,0,0,.38.52,1.07,1.07,0,0,0-.15-.78l.7.29a6.16,6.16,0,0,0-.94,1.89A.58.58,0,0,1,290,96Zm-2.67,14.68a.37.37,0,1,1-.73,0,.51.51,0,0,1,0-.13c-.47,0-.4-.82-.56-.82s-.13.12-.19.26a1,1,0,0,1-.26-.59.52.52,0,0,1,.52-.53.41.41,0,0,1,.16,0v-1.13a6.4,6.4,0,0,0,1.35.2v.92l.16,0a.52.52,0,0,1,.52.53,1,1,0,0,1-.26.59c-.07-.15-.12-.26-.2-.26s-.08.8-.55.82A.51.51,0,0,1,287.32,110.7Zm.45-3a6.25,6.25,0,0,1-1.58-.25,6.65,6.65,0,0,1-1.36-.53.58.58,0,0,1-.63.07.76.76,0,0,1-.42-.59v-.1a4.53,4.53,0,0,1-.49-.49,5.82,5.82,0,0,1-1.11-1.86,5.7,5.7,0,0,1-.28-1,.6.6,0,0,0,.75-.14s.05.14,0,.19a.79.79,0,0,0,.81-.58,4.16,4.16,0,0,0,1.33,2.55.64.64,0,0,1,.23,0,.7.7,0,0,1,.66.76h0a15.46,15.46,0,0,0,2.55.91,4.41,4.41,0,0,0,1.43.18l-.06,0a4.81,4.81,0,0,1-.51.39A2.87,2.87,0,0,1,287.77,107.71Zm-3.4-5.59a1.43,1.43,0,0,0,.65.21,5.23,5.23,0,0,0,1.09-.25.32.32,0,0,1,.34.35v0h.06a.1.1,0,0,1,.11.11c0,.07-.06.1-.13.1h0l0,1.81h.05v.16c0,.06-.08.07-.13.06a.3.3,0,0,1-.33.35.22.22,0,0,1-.23-.23.17.17,0,0,1,.18-.16c.07,0,.11,0,.1.09s-.14,0-.14.07,0,.08.1.08.15,0,.15-.15-.16-.19-.31-.15a2.13,2.13,0,0,1-1.55-2.11l-.07,0,.07-.16a.14.14,0,0,1-.1,0,.13.13,0,0,1,0-.26.12.12,0,0,1,.12.13v0Zm3.55,2.75c-.06,0-.11,0-.12.09s0,0,0,0a0,0,0,0,0,0,0,.06.06,0,0,1,0,0h-.08s0,0,0,0a.07.07,0,0,1-.06.06.06.06,0,0,0,0-.06l0,0s0,0,0,0h0a0,0,0,0,1-.05,0s0,0,0,0h0s0,0,0,.06h0a.06.06,0,0,0,0,.06s-.06,0-.05-.06h0s0,0,0-.07h0c-.06,0-.07,0-.08,0v0l0,0s0-.06.05-.06h0s0,0,.05,0a0,0,0,0,0,0,0h0c-.06,0-.06,0-.05-.05v0s0,0,0,0a.06.06,0,0,1,.06,0h0l0,0,0,0a.06.06,0,0,0,.06,0h0a.24.24,0,0,0,.09,0,.66.66,0,0,1,.14,0,.25.25,0,0,1,0-.07.09.09,0,0,1-.1-.07.21.21,0,0,1-.09-.14,0,0,0,0,0,0,0s0,0,0,0h0l0,0h0c-.06,0-.14,0-.09-.09s.07.07.07,0h0s-.05,0,0-.07h-.07a0,0,0,0,0,0,0s0,0,0,0v0s0,0,.07,0h0a0,0,0,0,1-.05,0,.1.1,0,0,0,0,0h0s.06,0,.06,0h0s0,0,0,.06,0,0,0,0h0a0,0,0,0,1,0,0,0,0,0,0,1,0,0,.05.05,0,0,0,0,0,.06.06,0,0,1,.06,0v0s0,.06,0,.1a.09.09,0,0,0,0,.09c.05,0,.11.13.16.17a.49.49,0,0,1,0-.17l0,0s0-.05.06-.08,0,0,0,0,.05-.06.08-.06a.08.08,0,0,1,0-.07l.05,0s0,0,0,0h0a.11.11,0,0,1,.07,0,.15.15,0,0,1,.06,0v0s0,0,0,0l0,0a.05.05,0,0,1,0,0s0,.12-.06.17h0a1.93,1.93,0,0,1,.7,0c.19,0,.33,0,.33-.09s-.72.08-.72-.11.08-.11.16-.12l0,0c.11-.07.38,0,.48,0s-.14.06-.26.06c.21,0,.35-.1.57,0-.17,0-.49.16-.77.09,0,0-.05,0-.05,0s-.1,0-.1.08.72-.06.73.11-.15.14-.39.14h-.07c0,.06.08.06.12.11s0,.05,0,.07,0,0,0,0l-.05,0h0s0,0,0,.06l0,0h0a0,0,0,0,1,0,0s-.06,0-.07,0,0,0,0,.07h0s0,0,0,0,0,0,0-.05v0s0,0,0,0h0s-.05,0-.07,0v0s0,0,0,0a0,0,0,0,1,0,0v0s0,0,.06,0h0a0,0,0,0,1,0,0v0h-.05a.06.06,0,0,1,.07,0s0,0,0,0l.05,0h0l.06,0a0,0,0,0,0,0,0,.22.22,0,0,0-.11,0s-.18,0-.23,0c.1.07.05.21.07.22s0,.08,0,.1,0,0-.08,0h0s0,0,0,.06a0,0,0,0,1-.06,0s0,0,0,0h0a0,0,0,0,1,0,0h0s-.07,0-.07,0v0h0a0,0,0,0,1,0,0h0l0,0s-.05,0-.05,0v0c0-.07.06,0,.06,0h0s0,0,0,0h0a.09.09,0,0,0-.05,0,.06.06,0,0,1,.06-.06l0,0c.06,0,.07.11.13.07h.05a0,0,0,0,0,0,0,.15.15,0,0,1-.07-.1.13.13,0,0,1,0-.11c-.08,0-.11.06-.19.07h0a.37.37,0,0,1-.05.15s-.07.07-.09.06,0,0,0,0Zm-.38-2.2c-.07,0-.07,0-.06-.06s0,0,0,0,0,0,0,0a.06.06,0,0,1,.07,0h0a.05.05,0,0,1,0,0l0,.05s.14,0,.18,0,.12,0,.13,0,0,0,0-.09h0s0,0,0,0-.06,0-.06,0a.64.64,0,0,1-.15-.15s0,0,0,0,0,0,0,0h0l0,0h0c-.07,0-.15,0-.1-.1s.08.08.08,0h0s-.06,0,0-.08h-.08s0,0,0,0,0,0,0-.06,0,0,0,0,0-.05.07,0,0,0,0,0h0a0,0,0,0,0,0,0s0,0,0,0a0,0,0,0,1,0,0h0a0,0,0,0,1,.07,0h0s0,0,0,.08h0v0h0a0,0,0,0,1,0,0v0a.05.05,0,0,0,0,0s.05,0,.06,0a0,0,0,0,1,0,0s0,.08,0,.11,0,.07,0,.1.09.09.13.1h.11a.2.2,0,0,1,0-.07.05.05,0,0,1,0,0s0-.05.06-.09,0,0,0,0,.05-.06.08-.06a.13.13,0,0,1,0-.09s0,0,.05,0a0,0,0,0,1,0,0h0l.07,0,.07,0s0,0,0,0,0,0,0,0l.05,0a.07.07,0,0,1,0,.06s0,.12-.06.17a5.53,5.53,0,0,1,1.23,0c.11,0,.3,0,.3-.07s0-.06-.24-.06-1,.14-1-.09.26-.11.48-.1l0,0c.12-.07.41,0,.51,0s-.14.06-.27.06c.22,0,.37-.09.6,0-.18,0-.52.17-.81.09,0,0,0,0,0,0-.18,0-.42,0-.42.05s.71,0,.94,0,.3,0,.3.12-.24.1-.37.11,0,0,0,0a1.53,1.53,0,0,0,.27,0s0,0,0,0,.05,0,.07,0a.06.06,0,0,1,0,.06h0s0,.06,0,.05,0,0,0,0h0s0,0,0,0-.06,0-.06.07,0,0,0,.08l0,0,0,0a0,0,0,0,1-.06,0h0s0,0,0-.07h0s0,.06,0,.06h0a.11.11,0,0,0,0,0,.05.05,0,0,1,0,0h0s0,0,0-.07,0,0,0,0a0,0,0,0,1-.06,0h0s0,0,0,0a.06.06,0,0,1,.06,0s0,0,0,0,.07,0,.09,0,0,0,0-.09a0,0,0,0,0,0,0,.2.2,0,0,0-.13,0,.29.29,0,0,1-.19.05.33.33,0,0,1-.14,0s0,.07,0,.08a.11.11,0,0,1,0,.11s-.07,0-.11,0h0s0,0-.05.07a0,0,0,0,1-.06,0h0a0,0,0,0,0,0,0s0,0,0,0h0l0,0s-.08,0-.07,0v0s0,0,0,0h0s0,0,0,0-.06,0-.06,0,0,0,0,0,.08,0,.08-.06,0,0,0,0h0s0,0,0,0h0a.06.06,0,0,0-.05,0s0-.07.06-.07h0c.07,0,.08.12.14.07h.07a.13.13,0,0,0-.08,0s0-.1,0-.14,0,0,0,0c-.44,0-.22.17-.6.12,0,0,0,0-.08,0l-.07,0s-.09.1-.11.08l0,0s0,0,0,0-.12,0-.13.1,0-.07,0-.07l0,0s0,0,0,0h0a.11.11,0,0,1-.08,0h0l0,0s0,.07-.06.07a.11.11,0,0,0,0-.07l0,0a.05.05,0,0,0,0,0h0s0,0-.05.06a.05.05,0,0,1-.05,0s0,0,0,0,0,0,0,.07h0a.09.09,0,0,0,0,.06s-.07,0-.06-.06h0s0-.06,0-.09h0c-.07,0-.09,0-.09,0v0s0,0,0,0,0-.07.06-.07h0s0,0,.07,0h0S287.54,102.67,287.54,102.67Zm-.17,1h0s0,0,.06,0h0s0,0,0,0-.07,0-.06-.06v0a0,0,0,0,0,0,0s.05,0,.07,0h0l0,0s0,0,0,0,.13,0,.17,0a.56.56,0,0,1,.13,0s0-.07,0-.11h-.05s0,0,0,0-.07,0-.08,0,0,0,0,0,0,0,0,0h0l0,0h0c-.07,0-.15,0-.1-.09s.08.07.08,0,0,0,0,0,0,0,0-.07h-.08s0,0,0,0,0,0,0-.06v0s0,0,.07,0h0v0h0s-.05,0-.05,0v0s0,0,0,0,.07,0,.07,0h0s0,0,.05.07,0,0,0,0v0h0s0,0,0,0v0s0,0,0,0,.05,0,.06,0,0,0,0,0,0,.07,0,.11a.08.08,0,0,0,.05.09.2.2,0,0,0,.11,0h0a.19.19,0,0,1,0-.08l0,0s0,0,.05-.09l0,0s.05-.06.08-.06a.11.11,0,0,1,0-.08l.05,0s0,0,0,0h0l.07,0,.06,0s0,0,0,0,0,0,0,0,0,0,.05,0,0,0,0,.06,0,.09-.05.14a4.56,4.56,0,0,1,.93,0c.1,0,.31,0,.31-.06s0-.06-.16-.06-.77.13-.77-.09.12-.1.28-.09l0,0c.11-.07.39,0,.48,0s-.14.06-.26.06c.21,0,.35-.09.57,0-.17,0-.49.16-.77.08l-.05,0c-.12,0-.21,0-.21,0s.49,0,.71,0,.23,0,.23.11-.26.1-.38.1,0,0,0,0a1,1,0,0,0,.29,0s0,0,0,0,.05,0,.06,0a.06.06,0,0,1,0,.06h0s0,.05,0,.05a.06.06,0,0,1-.05,0h0a0,0,0,0,1,0,0c0,.06-.06,0-.07.06s0,0,0,.08l0,0s0,0,0,0-.06,0-.06,0h0s0,0,0-.06h0s0,.06-.05.06h0s0,0,0,0,0,0,0-.05h0s0,0,0-.06,0,0,0,0-.07,0-.06,0h0l-.05,0a.09.09,0,0,1,.07,0s0,0,0,0,.07,0,.09,0,0,0,0-.08,0,0,0,0a.15.15,0,0,0-.13,0,.32.32,0,0,1-.19,0,.49.49,0,0,1-.14,0s0,.06,0,.07a.11.11,0,0,1,0,.11h-.13s0,0-.05.06a0,0,0,0,1-.05,0s0,0,0,0h0a0,0,0,0,0,0,0,0,0,0,0,1,0,0h0s0,0,0,0-.07,0-.07,0v0h0s0,0,0,0-.06,0-.05,0l0,0c0-.07.07,0,.07-.06s0,0,0,0h0s0,0,0,0v0s0,0,0,0,0-.06.06-.06a0,0,0,0,1,0,0c.06,0,.07.12.13.07h.06s0,0,0,0l-.07,0s0-.09,0-.13,0,0-.07,0c-.31,0-.16.13-.36.11,0,0,0,0-.08,0s0,0,0,0l0,0s-.09.14-.15.1l0,0h0c-.06,0-.14,0-.15.11s0-.06,0-.06a0,0,0,0,0,0,0,0,0,0,0,1,0,0h-.09s0,0,0,0-.05.06-.06.07a.06.06,0,0,0,0-.07s0,0,0,0,0,0,0,0,0,0,0,0,0,0-.05,0,0,0,0,0h0s0,0,0,.06h0s0,.05,0,.05-.06,0-.05-.06h0s0-.05,0-.08h0c-.07.05-.08,0-.09,0v0a0,0,0,0,0,0,0s0-.07.05-.07Zm-3.8-12.06a.25.25,0,0,1-.25.25.24.24,0,0,1-.24-.25.24.24,0,0,1,.24-.24A.25.25,0,0,1,283.57,91.58Zm0-.42a.25.25,0,1,1,.25.25A.25.25,0,0,1,283.55,91.16Zm-.25,1a.25.25,0,1,1-.49,0,.25.25,0,0,1,.49,0Zm-.33.35a.25.25,0,1,1,0,.49.24.24,0,0,1-.24-.24A.24.24,0,0,1,283,92.49Zm.12.6a.25.25,0,1,1-.25.24A.25.25,0,0,1,283.09,93.09ZM284.16,91a.25.25,0,1,1,.49,0,.25.25,0,0,1-.49,0Zm1.31,2.15c0,.19-.14.37-.24.62-.1-.21-.32-.36-.34-.57s.11-.37.25-.64C285.18,92.68,285.45,92.94,285.47,93.13Zm-.06-1.92a.25.25,0,1,1,.24.24A.25.25,0,0,1,285.41,91.21Zm-.36.07a.25.25,0,1,1,0-.49.25.25,0,0,1,0,.49Zm1.49-2.77h.81a1.31,1.31,0,0,0-.32.6,1,1,0,0,0,.56-.35v.84a1,1,0,0,0-.56-.35.86.86,0,0,0,.34.54h-.85a.86.86,0,0,0,.34-.54,1,1,0,0,0-.56.35v-.84a1,1,0,0,0,.56.35A1.22,1.22,0,0,0,286.54,88.51Zm.41,2.9a.77.77,0,0,1-.76-.6h1.51A.77.77,0,0,1,287,91.41Zm.41.26V92.8h-.27v-1A.77.77,0,0,0,287.36,91.67Zm-.56.08v1h-.27V91.67A.84.84,0,0,0,286.8,91.75Zm.87-.52a.25.25,0,1,1-.25.25A.25.25,0,0,1,287.67,91.23Zm-.56-.72v-.62a.77.77,0,0,1,.59.62Zm-.32-.62v.62h-.6A.76.76,0,0,1,286.79,89.89Zm-.56,1.34a.25.25,0,1,1-.25.25A.25.25,0,0,1,286.23,91.23Zm2.53,1.31c.14.27.27.43.25.64s-.24.36-.35.57c-.09-.25-.25-.43-.23-.62S288.71,92.68,288.76,92.54ZM288.6,91a.25.25,0,1,1,.25.25A.25.25,0,0,1,288.6,91Zm-.36.42a.25.25,0,1,1,.24-.24A.25.25,0,0,1,288.24,91.45Zm1-.47a.25.25,0,1,1,.24.24A.25.25,0,0,1,289.24,91Zm1.33.85a.25.25,0,1,1,.25-.25A.25.25,0,0,1,290.57,91.83Zm.27.07a.24.24,0,0,1,.24.24.24.24,0,0,1-.24.25.25.25,0,1,1,0-.49Zm-.75-.49a.25.25,0,1,1,.25-.25A.25.25,0,0,1,290.09,91.41Zm.47,1.92a.25.25,0,0,1,.49,0,.25.25,0,1,1-.49,0Zm.36-.35a.25.25,0,0,1,0-.49.25.25,0,1,1,0,.49Zm-11.41-1.45a10.08,10.08,0,0,0-1.14.37,6.7,6.7,0,0,0-1.07.54,2.23,2.23,0,0,0-.67-.66l.2-.18a.41.41,0,0,0,.1.25.49.49,0,0,0,0-.25l.26.32a.38.38,0,0,0-.21,0c.2.19.35.19.43.14a.17.17,0,0,0,.06-.25c-.07-.1-.2-.08-.2.07-.18-.16,0-.3.1-.28a.36.36,0,0,1-.26-.48c.25.07.31.21.31.45.06-.18.26-.18.28,0-.13-.09-.2,0-.14.14a.29.29,0,0,0,.39,0c.24-.12.18-.29.13-.43-.06,0-.15.11-.19.28l-.19-.38a.37.37,0,0,0,.34,0,1.15,1.15,0,0,0-.3-.2l.49-.19a1.12,1.12,0,0,0-.08.35.42.42,0,0,0,.24-.25l.12.41a.32.32,0,0,0-.33-.07c.07.13.15.3.4.22s.28-.19.25-.3-.17-.16-.2,0c-.14-.19,0-.33.17-.24a.39.39,0,0,1-.1-.54.35.35,0,0,1,.15.52c.09-.1.29-.11.27.14-.11-.11-.21,0-.19.09a.17.17,0,0,0,.21.13c.1,0,.2-.12.22-.39-.06,0-.1.07-.15.15l0-.41a.43.43,0,0,0,.19.16.51.51,0,0,0-.1-.24h.26A2.45,2.45,0,0,0,279.51,91.53Zm-2.82-.5a.18.18,0,0,1-.18.17.17.17,0,0,1-.17-.17.17.17,0,0,1,.17-.18A.18.18,0,0,1,276.69,91Zm-.08-.39a.18.18,0,0,1,.18-.18.18.18,0,0,1,0,.36A.18.18,0,0,1,276.61,90.64Zm0,.68a.18.18,0,0,1,.18.17.18.18,0,0,1-.18.18.18.18,0,0,1-.17-.18A.18.18,0,0,1,276.57,91.32Zm.74-1.55.3-.11,0,.32h0l.23-.19.11.32-.3,0a0,0,0,0,1,0,0,2.84,2.84,0,0,0,.25.23.23.23,0,0,1,.12.2.22.22,0,0,1-.22.22.22.22,0,0,1-.23-.22,2.61,2.61,0,0,0,0-.39h0l-.18.21-.14-.31.27,0s0,0,0,0Zm-.05.66a.18.18,0,0,1,0,.36.18.18,0,1,1,0-.36Zm.84-.37a.18.18,0,0,1,.25,0,.16.16,0,0,1,0,.24.18.18,0,0,1-.25,0A.18.18,0,0,1,278.1,90.06Zm.4-.3a.18.18,0,1,1,0,.25A.18.18,0,0,1,278.5,89.76Zm.47.08a.18.18,0,0,1,.25.25.2.2,0,0,1-.25,0A.17.17,0,0,1,279,89.84Zm.54.62a.18.18,0,1,1,0-.25A.2.2,0,0,1,279.51,90.46ZM273,102.72a.46.46,0,0,0,.55.15,1.2,1.2,0,0,1-.22-.73c0-1.72,2.68-2.91,2.68-4.32a.6.6,0,0,0-.58-.68,1,1,0,0,0-.54.17.61.61,0,0,1,.22.45c0,1.59-2.56,1.43-2.78,2.48-.12-1.34,1.48-1,1.62-2.15-.34.48-.91.84-1.24.65.84,0,.58-1.7,1.54-1.7a1,1,0,0,1,.32.07,1.41,1.41,0,0,1,.83-.34,1,1,0,0,1,1,1c0,1.68-2.71,2.77-2.71,4.34a.71.71,0,0,0,.73.79c.95,0,1.55-1.7,2.58-3.08a32.14,32.14,0,0,0,1.5-3.66c-.5.36-.57,1.32-1.17,1.38.32-.27.09-1.1.3-1.71a1.18,1.18,0,0,0,.05-.67c-.37.4-.22,1.7-.81,1.87.21-.27,0-.7,0-1.1,0-.74.38-.87.42-1.56-.36.14-.23,1.12-.94,1.1.5-.5,0-1,.56-1.59a.83.83,0,0,1-.57-.69A1.44,1.44,0,0,1,277,93c-.11-.16,0-.33.18-.45.06.06.13.2.22.14a5.49,5.49,0,0,1,1.05-.56,9,9,0,0,1,1.14-.35c.1,0,.05-.15,0-.25.21,0,.44,0,.47.22a1.15,1.15,0,0,1,.66-.24,1.12,1.12,0,0,1,0,.94c.34,0,.53.33.85.25-.27.37-.6.22-.92.18.92.28,1.09,1.19,1.6,1.25-.54.44-.91-.32-1.38-.31,1.23.61,1.24,1.36,1.58,1.37-.38.34-.67-.11-1.17-.23,1,.65,1,1.17,1,1.6.22.2.19.45.2.76a2.91,2.91,0,0,1,.63-.21l-.19.21a5.68,5.68,0,0,0-1.12,1.8l-.55-.53a.5.5,0,0,0-.46-.13c.31.36,1.37,1.48,1.67,1.84a1.35,1.35,0,0,1,.32.89c0,.27.38.48.31.67s.11.28.11.46-.2.34-.41.39c.15-.32,0-.5-.25-.54.05.6-.41.69-.61.59.19,0,.26-.32.16-.58a.57.57,0,0,1-.49.36.45.45,0,0,1-.4-.3.23.23,0,0,0,.39-.14c0-.11-.21-.17-.21-.34,0-.41.44-.24.44-.6,0-.14-.08-.21-.17-.21s-.24,0-.28.29c-.22-.2,0-.65-.1-1,0,.47-.3.45-.42.63-.17-.16,0-.49-.16-.87-.06.43-.22.37-.27.62a1.52,1.52,0,0,0-1.49.16c.75.58,1.64.89,1.64,1.79,0,.7-1.08,1-1.08,1.42a2.53,2.53,0,0,0,1.7,1.48c.18,0,.27-.23.43-.24a3.05,3.05,0,0,1,.43,0,.26.26,0,0,1,.24.26.46.46,0,0,1,.27.77A.37.37,0,0,0,282,106a.5.5,0,0,1-.37.71c.12-.19.14-.45-.09-.45s0,.14-.46.14-.39,0-.56-.22-.3-.34-.4-.31a.24.24,0,0,0,0,.38c-.91,0-.54-.94-1-1.17a2.28,2.28,0,0,1,0,.66,1.82,1.82,0,0,1-.61-.85c-.06-.23,0-.44-.23-.55a.21.21,0,0,1-.13-.23c0-.1.07-.07.23-.14a.74.74,0,0,0,.44-.76,1.27,1.27,0,0,0-.68-1.21,3.31,3.31,0,0,1-.32,2,3.77,3.77,0,0,1-1.64,1.42c-.44.18-1.05.33-1.05.89,0,1.06.47,1.69.95,1.69.31,0,.24-.34.68-.34.2,0,.41.07.45.22.25,0,.51.09.51.32a.36.36,0,0,1-.29.4c.14-.3-.22-.38-.33-.31s0,.18,0,.36-.06.35-.37.43c.07-.11.07-.26-.13-.26s-.26.32-.51.32-.5-.17-.88-.1-.26.22-.16.28c-.54,0-.43-.56-.31-.67s.19-.2,0-.31a.32.32,0,0,0-.47.26c-.41-.79.16-.75,0-1.65a1.24,1.24,0,0,1-.5.75c.07-.2-.11-.56-.11-.87,0-.68.42-.9.42-1.12s-.16-.29,0-.44.29.08.41.08c.54,0,.93-.7,1-1.47a5.58,5.58,0,0,1,.85-2.25,1.91,1.91,0,0,1,.06-.33,9.82,9.82,0,0,1-1.24,1.62c.06.59-1.08,1.27-1.74.75a.77.77,0,0,0,.74-.42.81.81,0,0,1-.27,0C273.59,103.45,273,103.17,273,102.72ZM283,131.67h-1.64V126h-6.51v5.65h-1.64V119.32h1.64v5.31h6.51v-5.31H283Zm14.58,0h-1.56V121.4h0l-3.86,10.27h-1.4L286.9,121.4h0v10.27h-1.56V119.32h2.25l3.89,10.38,3.91-10.38h2.25Zm.95-21.55a5.28,5.28,0,0,0-.89.59,2.05,2.05,0,0,1-1.16.59,2.81,2.81,0,0,1-1.3-.38,12.56,12.56,0,0,1-1.32-.83,5.91,5.91,0,0,0-2.58-1.25l.26.24a1.09,1.09,0,0,1,.49.83,1.39,1.39,0,0,1-.23.7,3.57,3.57,0,0,0-.19.39,2.34,2.34,0,0,0-.19.6c0,.1-.05.21-.09.34a1.25,1.25,0,0,1-.77.88,12.32,12.32,0,0,1-7.28,0,1.25,1.25,0,0,1-.77-.88c0-.13-.06-.24-.09-.34a2.34,2.34,0,0,0-.19-.6c-.05-.11-.09-.21-.14-.3a1.83,1.83,0,0,1-.24-.82,1,1,0,0,1,.46-.8l.25-.24a5.94,5.94,0,0,0-2.57,1.25,13.8,13.8,0,0,1-1.33.83,2.84,2.84,0,0,1-1.29.39,2.11,2.11,0,0,1-1.17-.59,4,4,0,0,0-.89-.59.11.11,0,0,1-.06-.13.1.1,0,0,1,.12-.06c1.08.32,2.42-.58,3.72-1.44a6.44,6.44,0,0,1,3-1.41,1.86,1.86,0,0,1,.87.2,1.56,1.56,0,0,1,.69.8,4.67,4.67,0,0,0,.43.8,1.2,1.2,0,0,1,.26.62.61.61,0,0,1-.23.46,3.07,3.07,0,0,1-.55.34l-.17.09c-.23.11-.37.18-.38.36a6.92,6.92,0,0,0,1.61.46,13.76,13.76,0,0,0,2.3.18,14,14,0,0,0,2.31-.18,7,7,0,0,0,1.6-.46c0-.12-.15-.19-.37-.29l-.16-.09a2.31,2.31,0,0,1-.57-.38.68.68,0,0,1-.23-.49,1.2,1.2,0,0,1,.26-.62,4.06,4.06,0,0,0,.43-.8,1.56,1.56,0,0,1,.69-.8,1.75,1.75,0,0,1,.87-.21,6.47,6.47,0,0,1,3,1.42c1.3.86,2.64,1.76,3.72,1.44a.1.1,0,0,1,.12.06A.09.09,0,0,1,298.56,110.12Zm-1.32-3.59a.43.43,0,0,1-.31.13.41.41,0,0,1-.31-.14.64.64,0,0,1-.17-.45h0a.63.63,0,0,1,.19-.46.42.42,0,0,1,.66.06.71.71,0,0,1,.13.41A.67.67,0,0,1,297.24,106.53Zm.29.33a.66.66,0,0,1,.48-.09.55.55,0,0,1,.5.59.44.44,0,0,1-.24.31.64.64,0,0,1-.43.06.7.7,0,0,1-.38-.2.47.47,0,0,1-.12-.38A.44.44,0,0,1,297.53,106.86Zm3.6.06a.76.76,0,1,1,.76-.76A.76.76,0,0,1,301.13,106.92Zm1.22-6.26c0-.64-2.22-.58-2.28-1.92a.88.88,0,0,1,.21-.65.54.54,0,0,0-.35-.11,1,1,0,0,0-.93,1c0,1.7,2.26,1.92,2.26,3.79a1.2,1.2,0,0,1-.42,1,.78.78,0,0,0,.59-.24.72.72,0,0,1-1.17.45H300c.15.29.37.58.7.54-.66.53-1.47-.19-1.35-.93a2.61,2.61,0,0,1-.42-.69c-.07-.17-.19-.07-.18.11,0,.59-.44,1.14-.44,1.57a1,1,0,0,0,.59.83c.14,0,.26-.17.36-.12s.09.18.07.48,0,.71.05,1.25a.67.67,0,0,1,.28-.37.69.69,0,0,1,.48-.1.43.43,0,0,1,.28.19.35.35,0,0,1,.07.23.38.38,0,0,1,0,.1.67.67,0,0,1-.29.4.69.69,0,0,1-.41.11.44.44,0,0,1-.35-.19l0-.07c0,.17,0,.33,0,.48,0,.4-.1.57-.27.66a.31.31,0,0,0-.28-.18.2.2,0,0,0-.21.17c0,.18.21.15.21.42s-.62.62-1,.56c.05-.14.14-.57.26-.87a1,1,0,0,0-.32.53c-.11.32-.26.31-.39.22.13-.14.42-.81.72-1a1,1,0,0,0,.53-.8,5.82,5.82,0,0,0,0-1.26c0-.59-.26-.46-.44-.46-.41,0-1.9-1-1.9-2a1.56,1.56,0,0,1,0-.3c-.68,0-1.07.18-1.07.81a.68.68,0,0,0,.19.56c.14.12.21.22,0,.33l-2.36,1c-.27.1-.31,0-.41-.14s-.23-.19-.37-.1.1.2.1.34-.06.51-1,.44l.23-.38c.07-.13.1-.22.05-.23s-.11.09-.19.21l-.28.36a1.1,1.1,0,0,1-.31,0c.36-.37.57-.56.77-.76a1.38,1.38,0,0,1,.86-.36c.49-.07,2.13-.29,2.13-.82s-.68-.57-.68-1.39.3-1.47,2.25-1.44A1.62,1.62,0,0,0,295,101a1.67,1.67,0,0,1-1.33-1.61l-.75,0c-.6,0-.91-.22-1.05-.1s-.11.13,0,.27.29.51.46.75c.12,0,.31,0,.33.19s-.09.18-.12.26a.11.11,0,1,0,.22,0,.71.71,0,0,1,.49,0,2.14,2.14,0,0,1,.47.72,3.33,3.33,0,0,0-.69-.21c-.12,0-.09,0,0,.08a1.48,1.48,0,0,1,.44.21v.27a4.5,4.5,0,0,0-.81-.44c-.28-.12-.45-.17-.59-.53a15.79,15.79,0,0,0-.76-1.42c-.12-.21-.07-.29,0-.36s.11-.15.15-.22.15-.14.32-.12a2,2,0,0,0,.73,0l.12,0c-.39-.44-.87-1.07-.93-1.15a.32.32,0,0,0-.26-.17.37.37,0,0,0-.22.06l-.1.08-.11-.13a2.39,2.39,0,0,0-.22-.23l.34-.27c.1-.09.15-.15.24-.15h.26a.29.29,0,0,1,.26.11,5,5,0,0,0,.59.49l.06.05.05-.06a.4.4,0,0,1,.29-.1.35.35,0,0,1,.27.14.53.53,0,0,1,.14.41l0,.17c.15.13.29.25.43.39a3.28,3.28,0,0,1,.7-1.53l-.05,0,0-.1c.08-.24.21-.66.27-.87s0-.1,0-.11l0-.13.6.23.05,0c.52-.5,1.79-.83,1.79-1.55a.69.69,0,0,0-.24-.54A.58.58,0,0,1,297,94a.84.84,0,0,1-.82.6c-.27,0-.46-.27-.56-.27a.39.39,0,0,0-.21.11c0,.37-.14.57-.29.6.06-.15,0-.41,0-.38s-.1.08-.11.29a.58.58,0,0,1-.48.53c.06-.09.15-.44.09-.49s-.16.1-.23.1a.16.16,0,0,1-.15-.16c0-.07-.16,0-.18-.07s.17-.21.35-.28.46-.2.42-.3-.63.11-.87.25-.21-.08-.26-.2c-.14-.32,0-.35.14-.5a5,5,0,0,1,1.1-.71.33.33,0,0,1,.22-.33l.58-.22-2.55-3.2c-.06-.06-.06-.11,0-.14s.07,0,.16.07l3,2.91a1.22,1.22,0,0,0,.07-.7,1.35,1.35,0,0,1,.72.88c.92,0,1.16.56,1.44.36,0,.13-.12.29-.38.33,1,.28.78,1,1.38,1.12a.38.38,0,0,1-.45.08c.66,1,0,1.59.5,2-.19.06-.46-.11-.64-.41.19.79-.1,1.23,0,1.56-.22.06-.38-.14-.46-.46a2.7,2.7,0,0,1-.16.48l.24.2-.09.1h0l0,0-.68.74-.07.07-.09,0a1.6,1.6,0,0,0-.46.89A4.09,4.09,0,0,0,298,101a.75.75,0,0,1,0-.2v0a.44.44,0,0,1,.13-.31.39.39,0,0,1,.31-.11.62.62,0,0,1,.45.21.63.63,0,0,1,.19.44v0a.45.45,0,0,1-.14.3.43.43,0,0,1-.31.12.61.61,0,0,1-.34-.12,8.28,8.28,0,0,1,.83,1.22c.33.67.63,1.1,1,1.1a.79.79,0,0,0,.81-.82c0-1.74-2.28-1.91-2.28-3.87a1.34,1.34,0,0,1,1.24-1.35.91.91,0,0,1,.71.27l.17,0c1.08,0,.4,1.44,1.24,1.54-.38.17-.87-.07-1.12-.75C301,100,302.6,99.69,302.35,100.66Zm-8.62-.46a.45.45,0,0,1-.25.22.65.65,0,0,1-.49,0,.56.56,0,0,1-.33-.7.44.44,0,0,1,.26-.22.65.65,0,0,1,.49,0,.64.64,0,0,1,.33.36A.45.45,0,0,1,293.73,100.2Zm-.39-4a.6.6,0,0,1,.44-.13.46.46,0,0,1,.27.15.39.39,0,0,1,.07.3.55.55,0,0,1-.23.39.51.51,0,0,1-.7,0h0A.51.51,0,0,1,293.34,96.2Zm22.18,35.47h-1l-.43-1.54a4.21,4.21,0,0,1-1.8,1.4,5.93,5.93,0,0,1-2.17.42,5.77,5.77,0,0,1-2.47-.51,5.54,5.54,0,0,1-1.85-1.38,6,6,0,0,1-1.16-2,6.8,6.8,0,0,1-.4-2.33,9,9,0,0,1,.37-2.57,6.5,6.5,0,0,1,1.11-2.14,5.42,5.42,0,0,1,1.84-1.46,5.71,5.71,0,0,1,2.56-.54,7.33,7.33,0,0,1,1.9.23,4.83,4.83,0,0,1,1.59.74,4.23,4.23,0,0,1,1.18,1.27,5,5,0,0,1,.64,1.86h-1.64a3.16,3.16,0,0,0-.45-1.22,3,3,0,0,0-.81-.84,3.55,3.55,0,0,0-1.1-.49,5.05,5.05,0,0,0-1.31-.17,3.84,3.84,0,0,0-1.92.45,3.88,3.88,0,0,0-1.32,1.19,5.18,5.18,0,0,0-.75,1.67,7.79,7.79,0,0,0-.24,1.93,6.34,6.34,0,0,0,.27,1.86,4.94,4.94,0,0,0,.82,1.58,3.81,3.81,0,0,0,3.14,1.49,4.4,4.4,0,0,0,1.72-.31,3.58,3.58,0,0,0,1.25-.86,3.45,3.45,0,0,0,.77-1.28,4.29,4.29,0,0,0,.23-1.58H310.1v-1.38h5.42Zm9.81-2.63a4.06,4.06,0,0,1-.83,1.48,3.94,3.94,0,0,1-1.35,1,5.2,5.2,0,0,1-3.75,0,3.92,3.92,0,0,1-1.37-1,4.37,4.37,0,0,1-.83-1.48,6,6,0,0,1-.27-1.83,6.06,6.06,0,0,1,.27-1.84,4.42,4.42,0,0,1,.83-1.49,4.08,4.08,0,0,1,1.37-1,5.06,5.06,0,0,1,3.75,0,4,4,0,0,1,2.18,2.49,5.77,5.77,0,0,1,.28,1.84A5.66,5.66,0,0,1,325.33,129Zm5.28,2.63H329l-3.32-8.94h1.64l2.51,7.45h0l2.44-7.45h1.54Zm5.07-2.91a2.62,2.62,0,0,0,.5.93,2.48,2.48,0,0,0,.89.65,3,3,0,0,0,1.26.24,2.54,2.54,0,0,0,1.53-.43,2.11,2.11,0,0,0,.79-1.31h1.45a3.59,3.59,0,0,1-1.3,2.26,4,4,0,0,1-2.52.76,4.58,4.58,0,0,1-1.86-.34,3.72,3.72,0,0,1-1.33-1,4.27,4.27,0,0,1-.8-1.49,7,7,0,0,1-.3-1.89,5.26,5.26,0,0,1,.31-1.86,4.48,4.48,0,0,1,.87-1.47,4,4,0,0,1,1.33-1,4.12,4.12,0,0,1,1.69-.35,3.72,3.72,0,0,1,2,.49,3.79,3.79,0,0,1,1.26,1.26,4.9,4.9,0,0,1,.66,1.66,7.34,7.34,0,0,1,.15,1.71h-6.7A3.74,3.74,0,0,0,335.68,128.76Zm12.48-4.68a4.14,4.14,0,0,0-1.5.24,2.4,2.4,0,0,0-1,.71,2.91,2.91,0,0,0-.55,1.13,6,6,0,0,0-.17,1.53v4h-1.48v-8.94h1.39v1.88h0a4,4,0,0,1,1.32-1.6,3.29,3.29,0,0,1,2-.49Zm-21-48.25H311.31v-50h16.85c17.61,0,27.63,9.64,27.63,24.59C355.79,65.89,344.33,75.83,327.18,75.83Zm29.19,55.84H354.9v-6a1.8,1.8,0,0,0-.48-1.32,1.83,1.83,0,0,0-1.34-.48,2.9,2.9,0,0,0-1.16.21,2.15,2.15,0,0,0-.83.58,2.62,2.62,0,0,0-.49.9,3.59,3.59,0,0,0-.16,1.11v5H349v-8.94h1.38v1.42h0a3.1,3.1,0,0,1,2.91-1.63,3.9,3.9,0,0,1,1.47.24,2.49,2.49,0,0,1,.95.68,2.56,2.56,0,0,1,.51,1,5.44,5.44,0,0,1,.15,1.32Zm14.34,0h-1.47v-5.86a3.84,3.84,0,0,0-.07-.78,1.62,1.62,0,0,0-.26-.63,1.34,1.34,0,0,0-.53-.43,2.12,2.12,0,0,0-.87-.15,2.31,2.31,0,0,0-1.71.62,2.24,2.24,0,0,0-.63,1.66v5.57H363.7v-5.86a4,4,0,0,0-.07-.8,2,2,0,0,0-.27-.63,1.21,1.21,0,0,0-.51-.41,2,2,0,0,0-.82-.15,2.21,2.21,0,0,0-1.1.26,2.44,2.44,0,0,0-.75.62,2.31,2.31,0,0,0-.41.75,2.06,2.06,0,0,0-.13.65v5.57h-1.47v-8.94h1.38V124h0a3.47,3.47,0,0,1,4.39-1.17,1.92,1.92,0,0,1,.95,1.17,3.12,3.12,0,0,1,1.19-1.12,3.29,3.29,0,0,1,1.61-.4,4.58,4.58,0,0,1,1.22.15,2.51,2.51,0,0,1,.94.46,2,2,0,0,1,.6.8,2.87,2.87,0,0,1,.22,1.19Zm3-2.91a2.62,2.62,0,0,0,.5.93,2.57,2.57,0,0,0,.89.65,3,3,0,0,0,1.26.24,2.54,2.54,0,0,0,1.53-.43,2.11,2.11,0,0,0,.79-1.31h1.45a3.59,3.59,0,0,1-1.3,2.26,4,4,0,0,1-2.52.76,4.58,4.58,0,0,1-1.86-.34,3.72,3.72,0,0,1-1.33-1,4.27,4.27,0,0,1-.8-1.49,7,7,0,0,1-.3-1.89,5.26,5.26,0,0,1,.31-1.86,4.48,4.48,0,0,1,.87-1.47,4,4,0,0,1,1.33-1,4.12,4.12,0,0,1,1.69-.35,3.72,3.72,0,0,1,2,.49,3.79,3.79,0,0,1,1.26,1.26,4.9,4.9,0,0,1,.66,1.66,7.34,7.34,0,0,1,.15,1.71h-6.7A3.74,3.74,0,0,0,373.73,128.76Zm15.2,2.91h-1.47v-6a1.66,1.66,0,0,0-1.81-1.8,3,3,0,0,0-1.17.21,2.11,2.11,0,0,0-.82.58,2.64,2.64,0,0,0-.5.9,3.59,3.59,0,0,0-.16,1.11v5h-1.47v-8.94h1.38v1.42h0a3.08,3.08,0,0,1,2.9-1.63,3.9,3.9,0,0,1,1.47.24,2.53,2.53,0,0,1,1,.68,2.56,2.56,0,0,1,.51,1,6,6,0,0,1,.14,1.32Zm5.55-7.64h-1.79v5.55a1.47,1.47,0,0,0,.05.41.44.44,0,0,0,.16.25.85.85,0,0,0,.34.11,4.45,4.45,0,0,0,.56,0h.68v1.3h-1.13a4.67,4.67,0,0,1-1-.08,1.34,1.34,0,0,1-.65-.28,1.31,1.31,0,0,1-.38-.59,3.41,3.41,0,0,1-.12-1V124H389.7v-1.3h1.52v-2.68h1.47v2.68h1.79ZM376.84,76.59C371,76.59,365.15,75,361.13,72l3.95-7.82a20.31,20.31,0,0,0,11.38,3.72c3.87,0,7.75-1.37,7.75-5.16,0-9-21.41-7.9-21.41-23.23,0-7.52,6-14.27,16.77-14.27a29.24,29.24,0,0,1,12.68,2.65v9.34A28,28,0,0,0,379.88,34c-3.19,0-6,1.14-6,4.63,0,8.5,21.41,7.28,21.41,23.23C395.29,71,387.32,76.59,376.84,76.59Z"/><path class="cls-1" d="M225,46.84c-1.22-3.65-1.9-5.77-2.28-7.44h-.15a77,77,0,0,1-2.51,7.51l-3,8.35h10.86Z"/><path class="cls-1" d="M129.19,34.23h-5.46V67.41h5.69c12.37,0,17.31-7.9,17.31-16.7C146.73,40.61,140.73,34.23,129.19,34.23Z"/><path class="cls-1" d="M327.18,34.23h-5.47V67.41h5.69c12.38,0,17.31-7.9,17.31-16.7C344.71,40.61,338.71,34.23,327.18,34.23Z"/></g></g></svg>