<svg xmlns="http://www.w3.org/2000/svg" width="27.015" height="27" viewBox="0 0 27.015 27">
  <g id="Twitter" transform="translate(0.464 0.449)">
    <rect id="Rectangle_393" data-name="Rectangle 393" width="27" height="27" transform="translate(-0.464 -0.449)" fill="none"/>
    <path id="Path_2" data-name="Path 2" d="M46.408,23.536A15.35,15.35,0,0,0,61.9,8.048V7.31a11.99,11.99,0,0,0,2.655-2.8,12.245,12.245,0,0,1-3.1.885,5.739,5.739,0,0,0,2.36-2.95A13.529,13.529,0,0,1,60.421,3.77,5.268,5.268,0,0,0,56.438,2,5.542,5.542,0,0,0,50.98,7.458a2.876,2.876,0,0,0,.147,1.18,15.25,15.25,0,0,1-11.21-5.753,5.649,5.649,0,0,0-.738,2.8,5.861,5.861,0,0,0,2.36,4.573,4.973,4.973,0,0,1-2.508-.738h0a5.391,5.391,0,0,0,4.425,5.31,4.547,4.547,0,0,1-1.475.148,2.51,2.51,0,0,1-1.033-.148,5.588,5.588,0,0,0,5.163,3.835,11.137,11.137,0,0,1-6.785,2.36A4.084,4.084,0,0,1,38,20.881a13.923,13.923,0,0,0,8.408,2.655" transform="translate(-38 1.318)" fill="#eb600b" fill-rule="evenodd"/>
  </g>
</svg>
