<svg xmlns="http://www.w3.org/2000/svg" width="100%" height="100%" viewBox="0 0 132.33 30.938"><g transform="translate(0 -0.001)"><path d="M52.06,11.33h0l-1.25,3.61h2.55Zm-1-1.74h2l3.46,8.72H54.58l-.75-2H50.29l-.76,2H47.72Z" fill="#fff"/><path d="M59.17,13.29h.57c.86,0,1.85-.13,1.85-1.22s-1-1.13-1.86-1.13h-.57ZM57.4,9.56h1.89c1.88,0,4.12-.08,4.12,2.35a2,2,0,0,1-1.79,2h0c.48,0,.75.51.93.9L64,18.27H62l-1-2.71c-.25-.65-.48-.9-1.22-.9h-.56v3.63H57.43Z" fill="#fff"/><path d="M66.75,10.91l-2.5.01-.01-1.38L71,9.52v1.37l-2.5.01.02,7.36H66.78Z" fill="#fff"/><path d="M76.8,11.1a4.46,4.46,0,0,0-1.8-.37A1.21,1.21,0,0,0,73.66,12c0,1.51,3.83.86,3.84,3.79,0,1.91-1.51,2.64-3.27,2.65A7.78,7.78,0,0,1,72,18.06l.15-1.58a4.34,4.34,0,0,0,2,.53c.67,0,1.55-.34,1.55-1.13,0-1.66-3.83-1-3.84-3.85,0-1.95,1.5-2.67,3-2.68A6.68,6.68,0,0,1,77,9.66Z" fill="#fff"/><path d="M88.67,18.06a8.76,8.76,0,0,1-2,.28c-2.82,0-4.79-1.39-4.8-4.35s1.81-4.67,4.77-4.68a5.77,5.77,0,0,1,2,.36l-.12,1.48a3.54,3.54,0,0,0-1.89-.46,2.92,2.92,0,0,0-2.92,3.17,2.89,2.89,0,0,0,3,3.11,4.87,4.87,0,0,0,1.91-.37Z" fill="#fff"/><path d="M93.76,16.94c1.78,0,2.44-1.59,2.44-3.17s-.73-3.11-2.46-3.11-2.45,1.59-2.44,3.13S92,17,93.76,16.94m0-7.65c2.74,0,4.29,1.84,4.29,4.47s-1.5,4.55-4.26,4.56-4.28-1.85-4.29-4.53S91,9.3,93.73,9.29" fill="#fff"/><path d="M99.17,9.42h1.75v5.05c0,1.48.48,2.46,1.82,2.45s1.81-1,1.81-2.47v-5h1.75v5.57c0,2.34-1.32,3.31-3.55,3.32s-3.55-1-3.56-3.34Z" fill="#fff"/><path d="M107.61,9.39l2.15-.01,3.35,6.52h.03l-.03-6.53h1.68l.03,8.73h-2.14l-3.36-6.51h-.02l.02,6.52-1.68.01Z" fill="#fff"/><path d="M122.74,18a9.55,9.55,0,0,1-2,.28c-2.83,0-4.8-1.4-4.81-4.35s1.81-4.67,4.78-4.68a5.51,5.51,0,0,1,2,.35l-.14,1.4a3.53,3.53,0,0,0-1.88-.46,2.92,2.92,0,0,0-2.92,3.18,2.87,2.87,0,0,0,3,3.1,4.87,4.87,0,0,0,1.91-.37Z" fill="#fff"/><rect width="1.75" height="8.73" transform="translate(124.031 9.327) rotate(-0.2)" fill="#fff"/><path d="M127.16,9.32h1.75l.02,7.35,3.39-.01.01,1.38-5.14.01Z" fill="#fff"/><path d="M47.76,22.11l5.15-.02v1.37l-3.4.01.01,2.16,3.11-.02.01,1.38L49.52,27l.01,2.45,3.43-.01v1.38l-5.18.01Z" fill="#fff"/><path d="M54.37,22.08l2.15-.01,3.35,6.52h.03l-.03-6.53h1.68l.03,8.73H59.44l-3.36-6.51h-.03l.03,6.52-1.68.01Z" fill="#fff"/><path d="M70,23.72a5.82,5.82,0,0,0-2.26-.46,3,3,0,0,0-3.15,3.18,2.87,2.87,0,0,0,3,3.1,4.44,4.44,0,0,0,1.15-.13V27.13H66.86V25.77h3.53v4.71a11.38,11.38,0,0,1-2.82.46c-2.83,0-4.8-1.4-4.81-4.35s1.81-4.67,4.78-4.68a8.47,8.47,0,0,1,2.56.35Z" fill="#fff"/><path d="M71.77,22.02h1.75l.02,7.35,3.39-.01.01,1.37-5.14.02Z" fill="#fff"/><path d="M82.05,23.74h0l-1.26,3.6h2.56Zm-1-1.75h2l3.46,8.72H84.58l-.76-2H80.28l-.76,2H77.71Z" fill="#fff"/><path d="M87.33,21.97l2.15-.01,3.35,6.52h.03l-.02-6.53,1.67-.01.03,8.73-2.14.01-3.36-6.52h-.02l.02,6.53-1.68.01Z" fill="#fff"/><path d="M97.72,29.29h1a3,3,0,1,0,0-6h-1Zm-1.78-7.35h2.39c2.68,0,5,.88,5.06,4.35s-2.35,4.37-5,4.38H96Z" fill="#fff"/><path d="M126.49,1.53h-.38l1,2.83-.07.25c-.1.36-.2.61-.5.61a.78.78,0,0,1-.26,0v.29a1.57,1.57,0,0,0,.37,0c.4,0,.59-.39.72-.77l1.11-3.23h-.36l-.8,2.34h0Zm-1.12,1.41c0,.55-.17,1.17-.83,1.18s-.83-.66-.84-1.17.2-1.18.83-1.18.83.63.84,1.17m-2,1.41h.35V3.9h0a.9.9,0,0,0,.88.51c.77,0,1.15-.64,1.15-1.47s-.34-1.47-1.16-1.46a1,1,0,0,0-.88.54h0V.22h-.34Zm-1.88-2.8h-.35v.32h0a.93.93,0,0,0-.87-.38c-.83,0-1.16.62-1.15,1.47,0,.62.29,1.4,1.18,1.4a.87.87,0,0,0,.86-.55h0c0,.79-.08,1.44-1,1.44a1.87,1.87,0,0,1-.82-.19V5.4a2.7,2.7,0,0,0,.85.15c1,0,1.31-.64,1.31-1.42Zm-2,1.41c0-.54.16-1.17.82-1.17s.84.49.84,1.17c0,.51-.22,1.1-.85,1.1s-.81-.55-.81-1.1m-3.34,1.42h.35V2.82c0-.46.19-1,.83-1,.48,0,.67.34.67.86V4.37h.35V2.57c0-.61-.26-1.07-1-1.07a.88.88,0,0,0-.9.57h0v-.5h-.33v.66Zm-.94-4h-.35V.83h.35Zm-.33,4h.34V1.57h-.34ZM112,3c0-.55.16-1.18.82-1.18s.84.66.84,1.17-.21,1.17-.83,1.18S112,3.53,112,3m2-2.73h-.34V2.05h0a.91.91,0,0,0-.87-.53c-.83,0-1.16.62-1.15,1.47s.39,1.47,1.16,1.46a.89.89,0,0,0,.87-.51h0v.44H114ZM108.6,4.4h.4V2.85c0-.47.2-1,.83-1s.67.34.67.87V4.4h.35V2.6c0-.62-.26-1.08-1-1.07a.87.87,0,0,0-.9.57h0V1.6h-.33v.66Zm-.94-2.8h-.35V3.15c0,.47-.2,1-.83,1-.48,0-.67-.34-.67-.87V1.61h-.35V3.4c0,.62.26,1.08,1,1.08a.89.89,0,0,0,.9-.57h0v.5h.33V3.75Zm-3.83,2.82h.35V1.91h.63v-.3h-.63V1.37c0-.34,0-.85.42-.85a.64.64,0,0,1,.28.06V.28a.81.81,0,0,0-.33-.06c-.72,0-.74.6-.74,1.19v.2h-.57v.3h.57Zm-1.9-2.76a2,2,0,0,0-.68-.1A1.36,1.36,0,0,0,99.87,3a1.33,1.33,0,0,0,1.35,1.46,2.16,2.16,0,0,0,.72-.1V4.04a1.69,1.69,0,0,1-.63.13,1.06,1.06,0,0,1-1-1.17,1.05,1.05,0,0,1,1-1.18,1.59,1.59,0,0,1,.6.14ZM99.11.42h-.35V.88h.34Zm-.33,4h.34V1.63h-.34Zm-1.27,0h.34V.31H97.5ZM96.33,3c0,.55-.17,1.17-.83,1.18s-.83-.66-.83-1.17.19-1.18.82-1.18.84.63.84,1.17m-2,1.41h.34V4h0a.91.91,0,0,0,.88.51c.77,0,1.15-.64,1.15-1.47s-.34-1.47-1.16-1.46a1,1,0,0,0-.88.54h0V.32h-.35Zm-.93-2.8h-.34V3.2c0,.47-.19,1-.82,1-.48,0-.67-.34-.67-.87V1.66h-.34V3.45c0,.62.27,1.08,1,1.07A.89.89,0,0,0,93.09,4h0v.49h.34a4.861,4.861,0,0,1,0-.66ZM90.06,3.06c0,.55-.17,1.18-.83,1.18s-.83-.66-.83-1.17.21-1.17.83-1.18.83.63.83,1.17m-2,2.57h.35V4h0a.85.85,0,0,0,.88.54c.77,0,1.15-.64,1.15-1.47S90.1,1.59,89.28,1.6a1,1,0,0,0-.9.58h0V1.67h-.34Zm-1.89-4h-.34V2h0a1,1,0,0,0-.88-.38c-.82,0-1.15.62-1.15,1.47,0,.63.29,1.41,1.19,1.4a.86.86,0,0,0,.85-.55h0c0,.79-.07,1.44-1,1.45a1.92,1.92,0,0,1-.83-.2v.35a3.19,3.19,0,0,0,.85.14c1,0,1.31-.64,1.31-1.42Zm-2,1.41c0-.54.17-1.17.83-1.17s.83.49.83,1.17c0,.51-.22,1.1-.85,1.11s-.81-.56-.81-1.11M80.83,4.5h.35V2.94c0-.46.2-1,.83-1s.67.34.67.87v1.7H83V2.7c0-.62-.27-1.08-1-1.08a.88.88,0,0,0-.9.57h0v-.5h-.3v.66Zm-.94-4h-.34V1h.34Zm-.33,4h.35V1.7h-.35Zm-2.45-.06a2,2,0,0,0,.78.13c.43,0,1-.2,1-.8,0-.92-1.38-.85-1.39-1.37,0-.36.25-.47.61-.47a1.68,1.68,0,0,1,.62.13v-.3a2.27,2.27,0,0,0-.69-.12c-.46,0-.91.21-.91.76,0,.82,1.35.71,1.35,1.37a.56.56,0,0,1-.62.51,1.58,1.58,0,0,1-.73-.18Zm-.7-2.73h-.34V3.26c0,.47-.19,1-.82,1s-.67-.34-.67-.87V1.71h-.34v1.8c0,.61.27,1.08,1,1.07A.88.88,0,0,0,76.1,4h0v.5h.34a4.861,4.861,0,0,1,0-.66ZM70.32,3.13c0-.54.16-1.17.82-1.17s.84.65.84,1.17-.21,1.17-.83,1.17-.83-.62-.83-1.17m2-2.73H72V2.2h0a.93.93,0,0,0-.87-.54c-.83,0-1.16.62-1.15,1.47S70.33,4.6,71.1,4.6a.9.9,0,0,0,.9-.52h0v.45h.35Zm-4.9,2.54a.91.91,0,0,1,.83-1c.51,0,.71.48.71,1ZM69.13,4.1a1.88,1.88,0,0,1-.79.21,1,1,0,0,1-.93-1.07h1.92V3.06c0-.76-.33-1.39-1.12-1.39S67,2.28,67,3.14s.36,1.47,1.29,1.47a2.29,2.29,0,0,0,.81-.16ZM66.57,1.74h-.64V1l-.35.12v.67H65V2h.55V3.68c0,.51,0,.94.64.93a1.36,1.36,0,0,0,.43-.07V4.25a.79.79,0,0,1-.32.07c-.28,0-.38-.21-.38-.46V2h.64ZM63.31,4.56h.34V3.17c0-.51.14-1.12.69-1.12a1,1,0,0,1,.25,0V1.72a.86.86,0,0,0-.24,0,.84.84,0,0,0-.72.61h0V1.75h-.35a3.769,3.769,0,0,1,0,.63Zm-3-1.39c0-.65.32-1.18.93-1.18s.93.52.93,1.17-.32,1.17-.92,1.17-.93-.51-.94-1.16m-.38,0a1.32,1.32,0,1,0,2.62,0,1.32,1.32,0,1,0-2.62,0m-1,0c0,.54-.16,1.17-.82,1.17s-.84-.65-.84-1.16S57.49,2,58.11,2s.83.63.83,1.17M57,5.74h.34V4.1h0a.86.86,0,0,0,.87.54c.77,0,1.16-.64,1.15-1.47S59,1.7,58.16,1.7a1,1,0,0,0-.89.58h0V1.77h-.35ZM55.79,3.18c0,.55-.17,1.17-.83,1.18s-.83-.66-.84-1.17S54.33,2,55,2s.83.63.84,1.17m-2,2.57h.34V4.11h0a.86.86,0,0,0,.87.54c.78,0,1.16-.64,1.15-1.47S55.83,1.71,55,1.72a1,1,0,0,0-.89.58h0V1.78h-.35Zm-.93-4h-.34v1.6c0,.47-.19,1-.83,1C51.22,4.37,51,4,51,3.5V1.8h-.35V3.59c0,.62.27,1.08,1,1.07a.9.9,0,0,0,.91-.56h0v.5h.33V3.94ZM47.78,4.51a2,2,0,0,0,.87.16,1.12,1.12,0,0,0,1.26-1.08c0-1.13-1.77-1.13-1.77-1.9,0-.49.43-.66.83-.66a1.62,1.62,0,0,1,.7.14l.06-.34A2.33,2.33,0,0,0,49,.7a1.08,1.08,0,0,0-1.21,1c0,1,1.77,1.09,1.77,1.85a.76.76,0,0,1-.86.78,1.47,1.47,0,0,1-.85-.22Z" fill="#fff"/><path d="M3.9,15.39v-.94L0,15.85v1L4,18v-.89l-.89-.24V15.65Zm-1.52.47v.9L.77,16.34h0Z" fill="#fff"/><path d="M4.07,13.37l.28-.88L2.84,12c.11-.32.14-.44.7-.42H4.63l.29-.92H3.58c-.49,0-.67.05-.79.31h0a.93.93,0,0,0-.67-1c-.69-.22-1.13.22-1.33.84L.34,12.17ZM1.24,11.53l.09-.27c.15-.47.48-.41.63-.36a.49.49,0,0,1,.33.67l-.09.27Z" fill="#fff"/><path d="M5.68,9.5l.53-.76L3.57,6.91l.49-.69-.58-.4L1.98,7.97l.58.4.49-.7Z" fill="#fff"/><path d="M6.42,3.14a3.59,3.59,0,0,0-.79.49,1.15,1.15,0,0,0-.32,1.72c.9,1.08,1.84-.2,2.33.37a.5.5,0,0,1-.14.73,2.27,2.27,0,0,1-.81.37l.46.61a3.89,3.89,0,0,0,.91-.55,1.23,1.23,0,0,0,.27-1.8C7.44,4,6.47,5.27,6,4.73a.44.44,0,0,1,.13-.66,1.73,1.73,0,0,1,.72-.35Z" fill="#fff"/><path d="M13.49.31a2.42,2.42,0,0,0-1.05,0,1.81,1.81,0,0,0-1.25,2.36,1.84,1.84,0,0,0,2.24,1.57,3.38,3.38,0,0,0,.92-.36l-.22-.79a1.59,1.59,0,0,1-.73.38c-.57.14-1.12-.27-1.29-1s.09-1.34.68-1.48a1.49,1.49,0,0,1,.83,0Z" fill="#fff"/><path d="M15.56,1.94C15.42,3.09,15.85,4,17,4.15s1.75-.67,1.89-1.81S18.57.26,17.45.13,15.7.8,15.56,1.94m.93.12c.1-.75.35-1.33.88-1.27s.65.69.56,1.44-.35,1.33-.88,1.26-.64-.69-.56-1.43" fill="#fff"/><path d="M20.17,3.3a1.34,1.34,0,0,0,.62,2,1.33,1.33,0,0,0,1.95-.68l1.12-2.23L23.05,2l-1.2,2.3c-.18.36-.41.5-.74.34s-.36-.45-.18-.8l1.19-2.36-.81-.41Z" fill="#fff"/><path d="M23.03,6.49l.56.58,2.04-1.98.01.01L24.39,7.88l.76.78,2.8-2.73-.56-.58-1.94,1.9-.01-.01,1.15-2.71-.75-.77Z" fill="#fff"/><path d="M30.28,10.28a2.41,2.41,0,0,0-.29-1,1.8,1.8,0,0,0-2.58-.69,1.83,1.83,0,0,0-1,2.53,3,3,0,0,0,.56.82l.71-.39a1.64,1.64,0,0,1-.53-.63,1.13,1.13,0,0,1,.69-1.49c.71-.34,1.33-.21,1.6.34a1.43,1.43,0,0,1,.15.82Z" fill="#fff"/><rect width="3.91" height="0.92" transform="matrix(0.984, -0.178, 0.178, 0.984, 27.144, 13.256)" fill="#fff"/><path d="M27.42,15.57l-.15,2.21.71.05.08-1.29,3.2.21.06-.93Z" fill="#fff"/><path d="M3.54,24.79,4.65,26.1l.25-.22-.89-1.04,1.18-1L6,24.8l.25-.21-.81-.96,1.06-.9.85,1,.25-.21L6.53,22.25Z" fill="#fff"/><path d="M6.33,27.69l.27.17,1.92-2.87.01.01-.56,3.78.37.26,2.18-3.26-.27-.18L8.31,28.5v-.01l.57-3.81-.38-.25Z" fill="#fff"/><path d="M12.39,28.68l.67.19-.37,1.32a1.15,1.15,0,0,1-.55,0,1.47,1.47,0,0,1-.85-2c.34-1.19,1.17-1.4,1.71-1.24a1.58,1.58,0,0,1,.73.45l.12-.36a2.42,2.42,0,0,0-.74-.41A1.79,1.79,0,0,0,10.94,28a1.78,1.78,0,0,0,2,2.47l.53-1.86-1-.28Z" fill="#fff"/><path d="M15.24,30.86l1.62-.01v-.32l-1.28.01-.01-3.59h-.35Z" fill="#fff"/><path d="M18.45,30.68l.33-.1V29.44l1.5-.43L21,30l.35-.1L19,26.44l-.35.11Zm.43-3.82h0l1.24,1.86-1.3.39Z" fill="#fff"/><path d="M22.97,29l.27-.18-1.88-2.89v-.01l3.27,1.99.38-.23-2.15-3.29-.27.18,1.9,2.91-.01.01-3.27-2.01-.38.23Z" fill="#fff"/><path d="M26.94,25.83l.37-.47a1.77,1.77,0,0,0-.48-2.68,1.67,1.67,0,0,0-2.67.35l-.31.4Zm-2.62-2.48.18-.22A1.36,1.36,0,0,1,26.66,23c.77.6,1,1.38.46,2.06l-.22.29Z" fill="#fff"/><rect width="0.41" height="30.86" transform="translate(39.26 0.003) rotate(-0.2)" fill="#fff"/></g></svg>