<svg xmlns="http://www.w3.org/2000/svg" width="100%" height="100%" viewBox="0 0 119.89 66.293"><path d="M608.526,318.574a1.65,1.65,0,0,1-1.193.436H605.7V314.3h1.633a1.63,1.63,0,0,1,1.193.436,2.486,2.486,0,0,1,.465,1.869A2.735,2.735,0,0,1,608.526,318.574Zm-.352-3.477a1.255,1.255,0,0,0-.93-.349h-1.03v3.813h1.03a1.19,1.19,0,0,0,.93-.349,2.5,2.5,0,0,0,.314-1.608A2.2,2.2,0,0,0,608.175,315.1Z" transform="translate(-533.696 -306.088)" fill="#fff"/><path d="M638.99,327.407c0,.71.339,1.122.967,1.122a1.053,1.053,0,0,0,.854-.374l.327.287a1.54,1.54,0,0,1-1.206.5c-.867,0-1.432-.511-1.432-1.67,0-1.047.515-1.67,1.344-1.67s1.344.611,1.344,1.57v.224h-2.2Zm1.633-.9a.847.847,0,0,0-1.532,0,1.3,1.3,0,0,0-.1.548h1.734A1.3,1.3,0,0,0,640.623,326.51Z" transform="translate(-562.375 -315.98)" fill="#fff"/><path d="M669.334,326.36a.694.694,0,0,0-.565-.237.8.8,0,0,0-.791.872v1.994H667.5v-3.252h.477v.4a1.09,1.09,0,0,1,.917-.436,1.053,1.053,0,0,1,.791.3Z" transform="translate(-587.732 -316.068)" fill="#fff"/><path d="M690.611,318.861a1.142,1.142,0,0,1-.8.287,1.078,1.078,0,0,1-.93-.424v.386H688.4V314.4h.477v1.819a1.053,1.053,0,0,1,.93-.411,1.164,1.164,0,0,1,.8.287,2.581,2.581,0,0,1,0,2.766Zm-.892-2.629c-.716,0-.829.611-.829,1.246s.113,1.246.829,1.246.817-.611.817-1.246S690.435,316.232,689.719,316.232Z" transform="translate(-606.007 -306.176)" fill="#fff"/><path d="M714.719,330.037a1.016,1.016,0,0,1-.226.386.917.917,0,0,1-.641.224h-.2v-.424h.151c.339,0,.427-.112.54-.4l.239-.636L713.4,326h.515l.9,2.617.892-2.617h.528Z" transform="translate(-627.867 -316.33)" fill="#fff"/><path d="M608.526,380.262a1.65,1.65,0,0,1-1.193.436H605.7V376h1.633a1.63,1.63,0,0,1,1.193.436,2.486,2.486,0,0,1,.465,1.869A2.717,2.717,0,0,1,608.526,380.262Zm-.352-3.477a1.254,1.254,0,0,0-.93-.349h-1.03v3.813h1.03a1.19,1.19,0,0,0,.93-.349,2.5,2.5,0,0,0,.314-1.607A2.2,2.2,0,0,0,608.175,376.785Z" transform="translate(-533.696 -360.1)" fill="#fff"/><path d="M638.99,389.007c0,.71.339,1.121.967,1.121a1.053,1.053,0,0,0,.854-.374l.327.287a1.5,1.5,0,0,1-1.206.5c-.867,0-1.432-.511-1.432-1.67,0-1.047.515-1.67,1.344-1.67s1.344.611,1.344,1.57v.224h-2.2Zm1.633-.9a.847.847,0,0,0-1.532,0,1.274,1.274,0,0,0-.1.536h1.734A1.273,1.273,0,0,0,640.623,388.11Z" transform="translate(-562.375 -369.904)" fill="#fff"/><path d="M669.334,387.96a.694.694,0,0,0-.565-.237.8.8,0,0,0-.791.872v1.994H667.5v-3.252h.477v.4a1.09,1.09,0,0,1,.917-.436,1.053,1.053,0,0,1,.791.3Z" transform="translate(-587.732 -369.991)" fill="#fff"/><path d="M690.611,380.461a1.142,1.142,0,0,1-.8.287,1.078,1.078,0,0,1-.93-.424v.386H688.4V376h.477v1.832a1.053,1.053,0,0,1,.93-.411,1.164,1.164,0,0,1,.8.287,2.559,2.559,0,0,1,0,2.754Zm-.892-2.629c-.716,0-.829.611-.829,1.246s.113,1.246.829,1.246.817-.611.817-1.246S690.435,377.832,689.719,377.832Z" transform="translate(-606.007 -360.1)" fill="#fff"/><path d="M714.719,391.637a1.016,1.016,0,0,1-.226.386.917.917,0,0,1-.641.224h-.2v-.424h.151c.339,0,.427-.1.54-.4l.239-.635L713.4,387.6h.515l.9,2.6.892-2.6h.528Z" transform="translate(-627.867 -370.254)" fill="#fff"/><path d="M739.944,390.627a1.782,1.782,0,0,1-1.344-.474l.327-.312a1.341,1.341,0,0,0,1.018.374c.54,0,.879-.187.879-.573,0-.287-.163-.436-.553-.474l-.54-.05c-.641-.05-.98-.336-.98-.872,0-.6.5-.947,1.206-.947a1.9,1.9,0,0,1,1.181.349l-.314.312a1.429,1.429,0,0,0-.867-.262c-.477,0-.729.2-.729.536,0,.274.163.436.578.474l.528.05c.578.05.967.274.967.885S740.748,390.627,739.944,390.627Z" transform="translate(-649.901 -369.991)" fill="#fff"/><path d="M768.9,380.7v-2.006a.75.75,0,0,0-.8-.86.77.77,0,0,0-.817.86V380.7H766.8V376h.477v1.807a1.162,1.162,0,0,1,.917-.4,1.107,1.107,0,0,1,1.181,1.209v2.093H768.9Z" transform="translate(-674.559 -360.1)" fill="#fff"/><path d="M796.4,376.436V375.9h.54v.536Zm.025,4.174v-3.252h.477v3.252Z" transform="translate(-700.44 -360.012)" fill="#fff"/><path d="M811.834,387.96a.694.694,0,0,0-.565-.237.8.8,0,0,0-.791.872v1.994H810v-3.252h.477v.4a1.09,1.09,0,0,1,.917-.436,1.053,1.053,0,0,1,.791.3Z" transform="translate(-712.332 -369.991)" fill="#fff"/><path d="M829.49,389.007c0,.71.339,1.121.967,1.121a1.053,1.053,0,0,0,.854-.374l.327.287a1.5,1.5,0,0,1-1.206.5c-.867,0-1.432-.511-1.432-1.67,0-1.047.515-1.67,1.344-1.67s1.344.611,1.344,1.57v.224h-2.2Zm1.633-.9a.847.847,0,0,0-1.533,0,1.275,1.275,0,0,0-.1.536h1.734A1.274,1.274,0,0,0,831.123,388.11Z" transform="translate(-728.945 -369.904)" fill="#fff"/><path d="M608.727,442.21l-2.525-3.776v3.776h-.5V437.5h.477l2.525,3.763V437.5h.5v4.71Z" transform="translate(-533.696 -413.936)" fill="#fff"/><path d="M643.386,451.866a1.374,1.374,0,0,1-1.884,0,1.771,1.771,0,0,1-.4-1.3,1.719,1.719,0,0,1,.4-1.3,1.374,1.374,0,0,1,1.884,0,1.718,1.718,0,0,1,.4,1.3A1.827,1.827,0,0,1,643.386,451.866Zm-.339-2.305a.87.87,0,0,0-1.193,0,2.063,2.063,0,0,0,0,2.019.87.87,0,0,0,1.193,0,1.412,1.412,0,0,0,.264-1.009A1.493,1.493,0,0,0,643.047,449.56Z" transform="translate(-564.649 -423.915)" fill="#fff"/><path d="M669.244,445.449a.8.8,0,0,1-.842-.872v-1.994H668v-.361h.415V441.2h.477v1.022h.7v.361h-.7v1.981c0,.3.138.474.44.474h.251v.411Z" transform="translate(-588.17 -417.175)" fill="#fff"/><path d="M686.756,445.449a.8.8,0,0,1-.842-.872v-1.994H685.5v-.361h.415V441.2h.477v1.022h.7v.361h-.7v1.981c0,.3.138.474.452.474h.251v.411Z" transform="translate(-603.471 -417.175)" fill="#fff"/><path d="M705.6,438.036V437.5h.54v.536Zm.025,4.174v-3.252h.477v3.252Z" transform="translate(-621.046 -413.936)" fill="#fff"/><path d="M720.7,452.19v-2.006a.756.756,0,0,0-.8-.86.77.77,0,0,0-.817.86v2.006H718.6v-3.252h.477v.361a1.2,1.2,0,0,1,.917-.4,1.156,1.156,0,0,1,.842.3,1.171,1.171,0,0,1,.339.91v2.081Z" transform="translate(-632.413 -423.915)" fill="#fff"/><path d="M747.618,453.685a1.474,1.474,0,0,1-1.118-.436l.314-.3a1.008,1.008,0,0,0,.791.324.875.875,0,0,0,.9-1v-.511a1.056,1.056,0,0,1-.917.424,1.109,1.109,0,0,1-.791-.287,2.5,2.5,0,0,1,0-2.716,1.142,1.142,0,0,1,.8-.287,1.014,1.014,0,0,1,.917.424v-.386H749v3.352A1.313,1.313,0,0,1,747.618,453.685Zm.075-4.361c-.716,0-.817.611-.817,1.221s.1,1.221.817,1.221.817-.611.817-1.221S748.41,449.324,747.694,449.324Z" transform="translate(-656.721 -423.915)" fill="#fff"/><path d="M778,442.21V440.2a.75.75,0,0,0-.8-.86.77.77,0,0,0-.817.86v2.006H775.9V437.5h.477v1.807a1.162,1.162,0,0,1,.917-.4,1.107,1.107,0,0,1,1.181,1.209v2.094Z" transform="translate(-682.515 -413.936)" fill="#fff"/><path d="M805.123,452.277v-.312a1.168,1.168,0,0,1-.942.349,1.192,1.192,0,0,1-.93-.3.919.919,0,0,1-.251-.66c0-.573.4-.935,1.131-.935h.992v-.3c0-.474-.239-.71-.842-.71a.877.877,0,0,0-.829.374l-.327-.3a1.278,1.278,0,0,1,1.156-.486c.879,0,1.319.374,1.319,1.084v2.206h-.477Zm0-1.5h-.917c-.49,0-.729.2-.729.573s.239.548.754.548a.978.978,0,0,0,.729-.212.732.732,0,0,0,.163-.561Z" transform="translate(-706.211 -424.003)" fill="#fff"/><path d="M836.508,452.19v-2.006a.811.811,0,1,0-1.62-.05v2.056h-.49v-2.006a.756.756,0,0,0-.8-.86.77.77,0,0,0-.817.86v2.006H832.3v-3.252h.477v.361a1.211,1.211,0,0,1,.93-.4,1.08,1.08,0,0,1,1,.548,1.246,1.246,0,0,1,1.08-.548,1.211,1.211,0,0,1,.842.3,1.178,1.178,0,0,1,.352.91v2.081Z" transform="translate(-731.831 -423.915)" fill="#fff"/><path d="M608.727,503.91l-2.525-3.776v3.776h-.5V499.2h.477l2.525,3.763V499.2h.5v4.71Z" transform="translate(-533.696 -467.947)" fill="#fff"/><path d="M643.386,513.466a1.374,1.374,0,0,1-1.884,0,1.771,1.771,0,0,1-.4-1.3,1.719,1.719,0,0,1,.4-1.3,1.374,1.374,0,0,1,1.884,0,1.718,1.718,0,0,1,.4,1.3A1.827,1.827,0,0,1,643.386,513.466Zm-.339-2.293a.87.87,0,0,0-1.193,0,1.412,1.412,0,0,0-.264,1.009,1.429,1.429,0,0,0,.264,1.009.87.87,0,0,0,1.193,0,1.412,1.412,0,0,0,.264-1.009A1.475,1.475,0,0,0,643.047,511.173Z" transform="translate(-564.649 -477.839)" fill="#fff"/><path d="M669.244,507.062a.8.8,0,0,1-.842-.872V504.2H668v-.374h.415V502.8h.477v1.022h.7v.361h-.7v1.981c0,.3.138.474.44.474h.251v.411h-.339Z" transform="translate(-588.17 -471.099)" fill="#fff"/><path d="M686.756,507.062a.8.8,0,0,1-.842-.872V504.2H685.5v-.374h.415V502.8h.477v1.022h.7v.361h-.7v1.981c0,.3.138.474.452.474h.251v.411h-.339Z" transform="translate(-603.471 -471.099)" fill="#fff"/><path d="M705.6,499.636V499.1h.54v.536Zm.025,4.187V500.57h.477v3.252Z" transform="translate(-621.046 -467.86)" fill="#fff"/><path d="M720.7,513.89v-2.006a.766.766,0,0,0-.8-.872.774.774,0,0,0-.817.872v2.006H718.6v-3.252h.477V511a1.2,1.2,0,0,1,.917-.4,1.156,1.156,0,0,1,.842.3,1.171,1.171,0,0,1,.339.91v2.081Z" transform="translate(-632.413 -477.927)" fill="#fff"/><path d="M747.618,515.385a1.474,1.474,0,0,1-1.118-.436l.314-.3a1.008,1.008,0,0,0,.791.324.881.881,0,0,0,.9-1v-.511a1.056,1.056,0,0,1-.917.424,1.109,1.109,0,0,1-.791-.287,2.5,2.5,0,0,1,0-2.717,1.142,1.142,0,0,1,.8-.287,1.014,1.014,0,0,1,.917.424v-.386H749v3.352A1.32,1.32,0,0,1,747.618,515.385Zm.075-4.374c-.716,0-.817.611-.817,1.209s.1,1.221.817,1.221.817-.611.817-1.221S748.41,511.011,747.694,511.011Z" transform="translate(-656.721 -477.927)" fill="#fff"/><path d="M778,503.91V501.9a.75.75,0,0,0-.8-.86.77.77,0,0,0-.817.86v2.006H775.9V499.2h.477v1.807a1.162,1.162,0,0,1,.917-.4,1.1,1.1,0,0,1,1.181,1.2v2.106Z" transform="translate(-682.515 -467.947)" fill="#fff"/><path d="M805.123,513.89v-.312a1.168,1.168,0,0,1-.942.349,1.192,1.192,0,0,1-.93-.3.919.919,0,0,1-.251-.66c0-.573.4-.935,1.131-.935h.992v-.312c0-.474-.239-.71-.842-.71a.877.877,0,0,0-.829.374l-.327-.3a1.278,1.278,0,0,1,1.156-.486c.879,0,1.319.374,1.319,1.084v2.206Zm0-1.508h-.917c-.49,0-.729.2-.729.573s.239.561.754.561a.978.978,0,0,0,.729-.212.732.732,0,0,0,.163-.561Z" transform="translate(-706.211 -477.927)" fill="#fff"/><path d="M836.508,513.89v-2.006a.811.811,0,1,0-1.62-.062v2.069h-.49v-2.006a.766.766,0,0,0-.8-.872.774.774,0,0,0-.817.872v2.006H832.3v-3.252h.477V511a1.211,1.211,0,0,1,.93-.4,1.08,1.08,0,0,1,1,.548,1.246,1.246,0,0,1,1.08-.548,1.211,1.211,0,0,1,.842.3,1.178,1.178,0,0,1,.352.91v2.081Z" transform="translate(-731.831 -477.927)" fill="#fff"/><path d="M877.744,513.84a1.8,1.8,0,0,1-1.344-.474l.314-.324a1.341,1.341,0,0,0,1.018.374c.54,0,.879-.187.879-.573,0-.287-.163-.449-.553-.474l-.54-.05c-.641-.05-.98-.336-.98-.872,0-.6.5-.947,1.206-.947a1.9,1.9,0,0,1,1.181.349l-.314.312a1.4,1.4,0,0,0-.867-.262c-.477,0-.729.212-.729.536,0,.274.163.449.578.474l.528.05c.578.05.967.274.967.885C879.076,513.478,878.536,513.84,877.744,513.84Z" transform="translate(-770.391 -477.839)" fill="#fff"/><path d="M906.7,503.91V501.9a.75.75,0,0,0-.8-.86.77.77,0,0,0-.816.86v2.006H904.6V499.2h.477v1.807a1.162,1.162,0,0,1,.917-.4,1.1,1.1,0,0,1,1.181,1.2v2.106Z" transform="translate(-795.048 -467.947)" fill="#fff"/><path d="M933.5,499.636V499.1h.54v.536Zm.025,4.187V500.57H934v3.252Z" transform="translate(-820.318 -467.86)" fill="#fff"/><path d="M948.334,511.26a.694.694,0,0,0-.565-.237.8.8,0,0,0-.791.872v1.994H946.5v-3.252h.477v.4a1.09,1.09,0,0,1,.917-.436,1.053,1.053,0,0,1,.791.3Z" transform="translate(-831.685 -477.927)" fill="#fff"/><path d="M965.99,512.207c0,.71.339,1.122.967,1.122a1.053,1.053,0,0,0,.854-.374l.327.287a1.5,1.5,0,0,1-1.206.5c-.867,0-1.432-.511-1.432-1.67,0-1.047.515-1.67,1.344-1.67s1.344.611,1.344,1.57v.212h-2.2Zm1.633-.9a.817.817,0,0,0-.766-.486.8.8,0,0,0-.766.486,1.274,1.274,0,0,0-.1.536h1.734A1.276,1.276,0,0,0,967.623,511.31Z" transform="translate(-848.298 -477.752)" fill="#fff"/><g transform="translate(0 7.757)"><path d="M56.97,598.347a8.117,8.117,0,0,1-2.7,5.707l-5.778,5.732L32.5,593.911l5.778-5.732a8.289,8.289,0,0,1,5.753-2.679c3.593,0,5.615,2.368,8.014,4.748S56.97,594.784,56.97,598.347ZM44.095,589.9a3.954,3.954,0,0,0-3.329,1.333L38.4,593.575,48.83,603.918l2.362-2.343a3.89,3.89,0,0,0,1.344-3.3c-.138-1.3-1.193-2.517-3.618-4.922S45.388,590.036,44.095,589.9Z" transform="translate(-32.5 -551.25)" fill="#fff"/><path d="M238.363,393.742l-16.154-3.464,9.823,9.745-3.128,3.1-16-15.875,2.789-2.766,16.129,3.439-9.8-9.72,3.128-3.1,16,15.863Z" transform="translate(-190.238 -367.069)" fill="#fff"/><path d="M350.44,333.72l-2.625-2.6-.967-12.822a3.852,3.852,0,0,0-1.105-2.741,2.585,2.585,0,0,0-3.932-.062,2.545,2.545,0,0,0,.088,3.963l-2.927,2.891c-2.927-2.891-2.537-6.754.2-9.47,2.826-2.8,6.633-3.053,9.509-.2,1.558,1.533,1.771,2.966,1.96,5.321l.716,9.583,6.18-6.131,2.625,2.6Z" transform="translate(-298.698 -310.648)" fill="#fff"/><path d="M162.64,521.7l-2.625-2.6-.967-12.81a3.852,3.852,0,0,0-1.105-2.741,2.585,2.585,0,0,0-3.932-.062,2.545,2.545,0,0,0,.088,3.963l-2.927,2.9c-2.927-2.9-2.537-6.754.2-9.47,2.826-2.8,6.633-3.053,9.509-.2,1.545,1.533,1.771,2.966,1.96,5.321l.716,9.583,6.18-6.131,2.625,2.6Z" transform="translate(-134.489 -475.221)" fill="#fff"/></g><path d="M187.9,252.662h39.959V292.3l4.3,4.262V248.4H183.6Z" transform="translate(-164.619 -248.4)" fill="#fff"/></svg>