<svg xmlns="http://www.w3.org/2000/svg" width="100%" height="100%" viewBox="0 0 97.906 87.496"><path d="M242.2,130.81h.307a1.4,1.4,0,0,1,.052.165q.845,3.914,1.7,7.826.889,4.081,1.783,8.161.8,3.644,1.6,7.288l1.729,7.893,1.48,6.75q.865,3.964,1.728,7.932.7,3.241,1.425,6.48.795,3.626,1.584,7.254.665,3.039,1.332,6.079.748,3.426,1.494,6.853c.035.163.086.324.141.513l-81.848,14.3a.887.887,0,0,1-.085-.15q-.655-2.989-1.308-5.979-.719-3.291-1.436-6.584l-1.409-6.416-1.883-8.633q-.729-3.4-1.48-6.788-1.02-4.668-2.035-9.338-.974-4.45-1.953-8.9-1.206-5.525-2.406-11.053-.95-4.35-1.911-8.694a3.136,3.136,0,0,0-.154-.415v-.205c.1-.021.2-.047.3-.064l8.787-1.535q4.977-.873,9.952-1.755,5.214-.912,10.441-1.818,4.976-.869,9.949-1.746,4.638-.81,9.277-1.613,3.8-.665,7.621-1.339,4.432-.774,8.864-1.541c2.415-.422,4.829-.852,7.245-1.274q4.394-.769,8.788-1.532A1.773,1.773,0,0,0,242.2,130.81Zm-62.264,65.853,1.119,1.934,4.063-.709,2.537,11.272,2.72-.5L187.9,197.395l3.2-.57,2.49,11.267,2.747-.484-1.254-5.693,6.15-1.087,1.268,5.69,8.016-1.418.636-3.579,5.289-.934,2.215,3.076,2.931-.523-8.951-12.33-2,.359-2.4,12.2c-1.165.183-2.274.427-3.429.583l-.822-3.688,3.323-.595.357-2.19-4.129.717-.758-3.43,4.805-.857c.083-.733.231-1.434.259-2.177l-8.3,1.468,1.208,5.5-6.148,1.085-1.22-5.489Zm54.272-2.051c.175-.126.324-.234.464-.349a3.552,3.552,0,0,0,1.47-3.654,3.641,3.641,0,0,0-3.207-2.888,8.149,8.149,0,0,0-2.78.049q-7.28,1.25-14.557,2.52a2.879,2.879,0,0,0-.3.088l1.149,1.972,4.053-.709,2.489,11.228,2.762-.49-2.48-11.236,3.147-.553,2.49,11.26,2.749-.483-1.153-5.252c.362-.068.686-.126,1.006-.189a.748.748,0,0,1,.645.126c.345.271.7.53,1.019.829.961.917,1.9,1.851,2.849,2.772l.807.79,3.117-.556c-.125-.134-.2-.214-.272-.29-1.022-1.008-2.036-2.016-3.072-3.014a13.643,13.643,0,0,0-2.393-1.971Zm3.292-8.153,2.959,13.369,8.334-1.473-.458-2.058-5.573.979c-.272-1.266-.571-2.485-.809-3.731l4.81-.858-.455-2.049c-1.639.262-3.213.582-4.829.83-.251-1.176-.526-2.293-.747-3.437l4.813-.854.292-2.172Zm-47.249,6.167c.454-.078.855-.136,1.251-.215.747-.151,1.511-.261,2.229-.483a3.7,3.7,0,0,0,1.814-6.231,4.133,4.133,0,0,0-3.382-1.069c-1.151.106-2.289.348-3.431.532-.032,0-.059.038-.124.082Zm23.192-8.323.193-.194a1.671,1.671,0,0,0-.118-2.457,2.416,2.416,0,0,0-2.018-.527c-.817.126-1.629.278-2.442.422-.141.025-.282.06-.454.1l1.638,7.391a.963.963,0,0,0,.166.01c.9-.159,1.805-.31,2.7-.485a3.39,3.39,0,0,0,1.492-.664,1.971,1.971,0,0,0,.141-3.059,2.43,2.43,0,0,0-1.3-.534Zm-9.108,2.788c.834-.219.765-.188,1.237.2.3.252.574.52.846.789.475.46.944.926,1.428,1.4l1.762-.316a38.1,38.1,0,0,0-3.133-2.918c.141-.152.282-.3.431-.446a1.989,1.989,0,0,0-1.009-3.382,3.54,3.54,0,0,0-1.409-.064c-.692.107-1.381.231-2.07.349-.209.037-.423.079-.643.126l1.647,7.434,1.536-.276Zm-6.263,4.158,4.65-.824-.266-1.145-3.1.536-.451-2.06,2.678-.486-.255-1.134-2.685.46-.423-1.9,2.678-.486.158-1.218-4.641.822Zm21.02-11.5-1.227,3.568-2.678-2.873-1.68.29c.106.126.172.2.245.276,1.108,1.152,2.211,2.306,3.329,3.45a1.176,1.176,0,0,1,.326.6c.159.756.324,1.5.489,2.253.025.117.062.233.1.364l1.5-.28c-.011-.106-.011-.174-.025-.239-.176-.806-.347-1.614-.538-2.418a.93.93,0,0,1,.044-.567q.812-2.181,1.611-4.382c.034-.092.054-.188.093-.324Z" transform="translate(-160.65 -130.81)" fill="#fff"/><path d="M525.508,641.288,521.95,642l.827-5.427Z" transform="translate(-471.035 -573.309)" fill="#fff"/><path d="M647.795,603.958l-.915-4.661a7.224,7.224,0,0,1,2.5-.322,2.372,2.372,0,0,1,.318,4.505A17.158,17.158,0,0,1,647.795,603.958Z" transform="translate(-578.359 -540.353)" fill="#fff"/><path d="M372.967,573.488,371.83,567.7a5.174,5.174,0,0,1,2.652-.18,2.637,2.637,0,0,1,1.862,2.233,3.556,3.556,0,0,1,.076.879,2.5,2.5,0,0,1-1.67,2.362A17.767,17.767,0,0,1,372.967,573.488Z" transform="translate(-342.07 -512.846)" fill="#fff"/><path d="M518.988,566.471l-.458-2.344a14.094,14.094,0,0,1,1.571-.223,1.026,1.026,0,0,1,1.127.881,1.069,1.069,0,0,1-.7,1.262C520.053,566.229,519.536,566.32,518.988,566.471Z" transform="translate(-468.097 -509.516)" fill="#fff"/><path d="M514.183,542.166l-.423-2.177a10.375,10.375,0,0,1,1.1-.183,1.006,1.006,0,0,1,1.085.878,1.089,1.089,0,0,1-.723,1.25C514.9,542.034,514.57,542.081,514.183,542.166Z" transform="translate(-463.999 -488.426)" fill="#fff"/><path d="M465.32,549.541c.366-.067.676-.142.987-.173a1.169,1.169,0,0,1,1.358.905,1.3,1.3,0,0,1-.717,1.56,8.875,8.875,0,0,1-1.112.311Z" transform="translate(-422.385 -496.813)" fill="#fff"/></svg>