<svg xmlns="http://www.w3.org/2000/svg" width="100%" height="100%" viewBox="0 0 26.551 26.551"><g transform="translate(0 0)"><path d="M13.275,2.36a40.705,40.705,0,0,1,5.31.148,6.842,6.842,0,0,1,2.508.443A5.18,5.18,0,0,1,23.6,5.458a6.841,6.841,0,0,1,.443,2.508c0,1.328.148,1.77.148,5.31a40.706,40.706,0,0,1-.148,5.31,6.842,6.842,0,0,1-.443,2.508A5.18,5.18,0,0,1,21.093,23.6a6.841,6.841,0,0,1-2.508.443c-1.328,0-1.77.148-5.31.148a40.705,40.705,0,0,1-5.31-.148A6.842,6.842,0,0,1,5.458,23.6,5.18,5.18,0,0,1,2.95,21.093a6.842,6.842,0,0,1-.443-2.508c0-1.328-.148-1.77-.148-5.31a40.705,40.705,0,0,1,.148-5.31A6.842,6.842,0,0,1,2.95,5.458,5.3,5.3,0,0,1,3.983,3.983,2.494,2.494,0,0,1,5.458,2.95a6.842,6.842,0,0,1,2.508-.443,40.705,40.705,0,0,1,5.31-.148m0-2.36A43.584,43.584,0,0,0,7.818.148a9.106,9.106,0,0,0-3.245.59,5.774,5.774,0,0,0-2.36,1.475A5.774,5.774,0,0,0,.738,4.573a6.721,6.721,0,0,0-.59,3.245A43.584,43.584,0,0,0,0,13.275a43.584,43.584,0,0,0,.148,5.458,9.106,9.106,0,0,0,.59,3.245,5.774,5.774,0,0,0,1.475,2.36,5.774,5.774,0,0,0,2.36,1.475,9.106,9.106,0,0,0,3.245.59,43.584,43.584,0,0,0,5.458.148,43.584,43.584,0,0,0,5.458-.148,9.106,9.106,0,0,0,3.245-.59,6.189,6.189,0,0,0,3.835-3.835,9.106,9.106,0,0,0,.59-3.245c0-1.475.148-1.918.148-5.458A43.584,43.584,0,0,0,26.4,7.818a9.106,9.106,0,0,0-.59-3.245,5.774,5.774,0,0,0-1.475-2.36A5.774,5.774,0,0,0,21.978.738a9.106,9.106,0,0,0-3.245-.59A43.584,43.584,0,0,0,13.275,0m0,6.49A6.676,6.676,0,0,0,6.49,13.275,6.785,6.785,0,1,0,13.275,6.49m0,11.21A4.346,4.346,0,0,1,8.85,13.275,4.346,4.346,0,0,1,13.275,8.85,4.346,4.346,0,0,1,17.7,13.275,4.346,4.346,0,0,1,13.275,17.7m7.08-13.128A1.623,1.623,0,1,0,21.978,6.2a1.637,1.637,0,0,0-1.623-1.623" fill="#fff" fill-rule="evenodd"/></g></svg>