<svg xmlns="http://www.w3.org/2000/svg" width="100%" height="100%" viewBox="0 0 1979 1693.998">
  <g id="Group_5" data-name="Group 5" transform="translate(-3200 -1426.002)">
    <g id="Group_3" data-name="Group 3" transform="translate(440 1166.002)">
      <path id="Subtraction_23" data-name="Subtraction 23" d="M3022.5,1856H1312V936.4H1360.4V839.6H1312V791.2H1360.4v48.4h48.395v96.8h48.4v96.8h48.395V936.4h-48.395V839.6h-48.4V791.2H1360.4V742.8H1312V646H1360.4v96.8h48.395V694.4h48.4v48.4h48.395v48.4h48.395v48.4h48.395V888h48.395V839.6h-48.395V791.2h-48.395V742.8H1505.58V694.4h-48.395V646h-48.4V597.6h48.4V646h48.395v48.4h48.395v48.4h48.395v48.4h48.395v48.4h48.395v96.8h96.789v48.4h-48.394v48.4h-48.395V984.8h-48.395V936.4h-48.395V888h-48.395V839.6H1505.58V791.2h-48.395V742.8h-48.4v48.4h48.4v48.4h48.395V888h48.395v48.4h48.395v48.4h-48.395v48.4h48.395V984.8h48.395v48.4h48.395v48.4h96.79V984.8h48.394v96.8h48.395v-48.4h48.395V936.4h-48.395v48.4h-48.395V936.4h-48.394V888h145.184v48.4h48.395V888h-48.395V839.6h48.395V888h48.395v96.8h-48.395v48.4h48.395V984.8h48.395V888h-48.395V839.6h-48.395V791.2h-48.395V742.8h-96.79V694.4l-48.394,0V646h48.394v48.4h96.79v48.4h48.395v48.4h48.395v48.4h48.395V888h48.395v96.8h48.395V888h-48.395V839.6h-48.395V791.2h-48.395V742.8h-48.395V597.6h48.395V742.8h48.395v48.4h48.395v48.4h96.79v96.8H2279.9v48.4H2231.5v48.4h-48.395v48.4H2231.5v-48.4H2279.9v48.4h48.395v-48.4H2279.9V984.8h48.395V936.4H2279.9V839.6H2231.5V791.2h-96.79V742.8h-48.395V694.4h48.395v48.4h96.79v48.4H2279.9v48.4h48.395V888h48.4v96.8h48.394v48.4h-48.394v48.4h48.394v-48.4h48.395v48.4h48.395v-48.4h-48.395V984.8h-48.395V888h-48.394V839.6h-48.4V791.2H2279.9V742.8H2231.5V597.6H2279.9V742.8h48.395v48.4h48.4v48.4h96.789v96.8h48.395v48.4h48.395v96.8h48.395V1130h-48.395v48.4h-48.395v48.4h48.395v-48.4h48.395V1130h48.4v-48.4h-48.4V984.8h-48.395V936.4h-48.395V839.6h-48.395V791.2h-96.789V742.8h-48.4V694.4h48.4v48.4h96.789v48.4h48.395v48.4h48.395V888h48.395v48.4h145.185v48.4h48.395v48.4h48.395V936.4h48.395v48.4h48.395V936.4h-48.4V839.6h48.395V888h48.394v145.2h48.395V888h-48.394V839.6h48.394V888h48.395v48.4H3151v48.4h-48.395v48.4H3151v48.4h-48.395V1130H3151v606.5h-25.5v60h-34v35h-69V1856Zm-965.668-318.725-72.819,237.51h22.968l72.558-237.51h-22.707Zm-65.25,0-72.819,237.51h22.968l72.558-237.51Zm487.287,10.44a77.621,77.621,0,0,0-31.161,6.251,70.623,70.623,0,0,0-24.53,17.728,81.1,81.1,0,0,0-16.063,27.662,109.123,109.123,0,0,0-5.763,36.055,113.35,113.35,0,0,0,5.481,35.944,81.014,81.014,0,0,0,15.464,27.674,68.149,68.149,0,0,0,23.98,17.79,76.021,76.021,0,0,0,31.026,6.288c24.781,0,42.741-8.935,51.939-25.84,1.046,12.034,2.9,21.748,3.654,24.274h14.355v-85.086H2472.6v19.836h55.071v3.654a44.038,44.038,0,0,1-2.937,16.076,38.62,38.62,0,0,1-8.808,13.482,41.3,41.3,0,0,1-14.681,9.273,58.28,58.28,0,0,1-20.554,3.451c-16.742,0-30.776-6.374-40.585-18.434a61.946,61.946,0,0,1-10.946-21.1,93.126,93.126,0,0,1-3.8-27.286c0-20.309,5.471-37.412,15.823-49.46a49.437,49.437,0,0,1,17.1-12.937,50.018,50.018,0,0,1,20.844-4.421,50.949,50.949,0,0,1,19.833,3.683,37.853,37.853,0,0,1,23.233,34.685l21.924-3.654a52.069,52.069,0,0,0-3.4-18.046,55.764,55.764,0,0,0-4.51-9.294,54.945,54.945,0,0,0-6.6-8.776,56.853,56.853,0,0,0-20.167-13.911C2500.536,1549.585,2490.252,1547.712,2478.868,1547.712Zm-597.951,144.855a15.416,15.416,0,0,0-15.4,15.4,14.933,14.933,0,0,0,4.469,10.7,15.434,15.434,0,0,0,10.93,4.437,15.176,15.176,0,0,0,13.947-21.068,15.594,15.594,0,0,0-3.246-4.9,15.259,15.259,0,0,0-4.812-3.336A14.62,14.62,0,0,0,1880.917,1692.567Zm-236.466-144.855a78.265,78.265,0,0,0-31.312,6.251,70.72,70.72,0,0,0-24.607,17.728,80.95,80.95,0,0,0-16.093,27.662,109.032,109.032,0,0,0-5.766,36.055c0,26.776,7.829,49.113,22.642,64.6,14.454,15.111,34.874,23.1,59.051,23.1a78.317,78.317,0,0,0,25.171-4.029,74.323,74.323,0,0,0,18.613-9.412,79.364,79.364,0,0,0,19.118-18.923l-14.355-14.616a68.182,68.182,0,0,1-19.021,17.747,54.63,54.63,0,0,1-29,8.353,62.6,62.6,0,0,1-21.867-3.76,51.29,51.29,0,0,1-18.588-11.835,56.141,56.141,0,0,1-12.911-20.741c-3.209-8.815-4.837-19.07-4.837-30.479a90.136,90.136,0,0,1,4.258-28.388,61.725,61.725,0,0,1,11.6-20.974,49.723,49.723,0,0,1,17.177-13,50.3,50.3,0,0,1,20.994-4.458,46.141,46.141,0,0,1,19.75,4.09,37.75,37.75,0,0,1,13.168,10.232,43.12,43.12,0,0,1,9.625,26.655l22.446-3.654C1709.43,1582.52,1691.829,1547.712,1644.451,1547.712Zm-199.4,107.531h13.833a33.385,33.385,0,0,1,14.076,2.815,30.95,30.95,0,0,1,10.075,7.442,56.037,56.037,0,0,1,7.423,10.564c2.183,3.876,4.178,8.078,6.107,12.142l.007.016.012.023,0,.006,0,.008c4.047,8.526,8.23,17.339,14.41,23.89a33.593,33.593,0,0,0,11.063,7.934,34.5,34.5,0,0,0,7.155,2.229,43.87,43.87,0,0,0,8.489.789,81.537,81.537,0,0,0,14.094-1.305l-1.827-18.27-.008,0a24.105,24.105,0,0,1-5.212.519c-13.577,0-19.738-12.426-26.26-25.581-5.317-10.722-10.814-21.807-20.72-27.4a69.831,69.831,0,0,0,15.615-7.361,53.786,53.786,0,0,0,12.215-10.615,45.625,45.625,0,0,0,7.956-13.7,48.278,48.278,0,0,0,2.842-16.609,75.681,75.681,0,0,0-1.065-13.015,53.815,53.815,0,0,0-3.152-11.091,42.91,42.91,0,0,0-5.17-9.226,40.836,40.836,0,0,0-7.122-7.418,46.728,46.728,0,0,0-9.005-5.667,61.437,61.437,0,0,0-10.822-3.977,104.214,104.214,0,0,0-26.826-3.111H1421.3v172.26h23.751v-66.294Zm1492.92-105.965v172.26h109.62v-20.1h-85.869V1549.278Zm-138.591,129.456h72.3l15.921,42.8h24.534l-64.728-172.26h-23.751l-64.728,172.26h24.534l15.921-42.8Zm-165.735-129.456v20.1h55.332v152.164h23.751V1569.374h55.332v-20.1Zm-49.329,0v172.26h23.751v-172.26Zm-241.686,0v172.26h23.751v-172.26Zm-175.392,0v172.26h61.074a98.237,98.237,0,0,0,32.438-5.017,65.132,65.132,0,0,0,25.048-15.538c14.5-14.643,21.858-36.706,21.858-65.576,0-13.391-1.97-25.587-5.856-36.251a72.32,72.32,0,0,0-17.112-27.075A74.21,74.21,0,0,0,2257,1555.138c-11.013-3.888-23.653-5.86-37.568-5.86Zm-424.908,0v172.26h23.751V1644.8h68.643v-20.619h-68.643v-54.811h80.388v-20.1Zm138.591,47.5a15.416,15.416,0,0,0-15.4,15.4,14.936,14.936,0,0,0,4.469,10.7,15.435,15.435,0,0,0,10.93,4.437,15.176,15.176,0,0,0,13.947-21.068,15.584,15.584,0,0,0-3.246-4.9,15.245,15.245,0,0,0-4.812-3.336A14.619,14.619,0,0,0,1880.917,1596.78ZM3005.816,1372v48.4h48.395V1372Zm-193.578,0v48.4h48.395V1372Zm-193.579,0v48.4h48.4V1372Zm-193.579,0v48.4h48.395V1372Zm-193.578,0v48.4H2279.9V1372Zm-193.579,0v48.4h48.395V1372Zm-145.184,0v48.4h48.395V1372Zm-241.973,0v48.4h48.395V1372Zm-193.579,0v48.4h48.395V1372Zm1403.447-96.8v48.4h48.395v-48.4h48.395v-48.4h-48.4v48.4Zm-387.158,0v48.4h48.395v-48.4Zm-193.578,0v48.4h48.395v-48.4Zm-193.579,0v48.4h48.395v-48.4Zm-290.369,0v48.4h48.395v-48.4Zm-241.973,0v48.4h48.395v-48.4Zm-193.579,0v48.4h48.395v-48.4Zm1645.421-96.8v48.4h48.395v48.4h48.395v-48.4H3054.21v-48.4Zm-290.368,48.4v48.4h48.395v-48.4Zm-96.79,0v48.4h48.4v-48.4Zm-241.973,0v48.4h48.394v-48.4Zm-193.579,0v48.4H2231.5v-48.4Zm-241.974-48.4v48.4h48.395v48.4h48.395v-48.4h-48.395v-48.4Zm-96.79,96.8h48.395v-48.4h-48.395Zm-241.973,0h48.395v-48.4h-48.395Zm-193.579,0h48.4v-48.4h-48.4Zm96.79-96.8v48.4h48.395v-48.4Zm1243.744-43.56h0v48.4h48.395v-48.4h-48.395Zm111.308-53.239V1130h48.395v48.4h48.395V1130h-48.4v-48.4h48.395v-48.4h-48.4v48.4ZM2425.079,1130v48.4h48.395V1130Zm-96.789,0v48.4h48.4V1130Zm-96.79,0v48.4H2279.9V1130Zm-96.79,0v48.4h48.395V1130Zm-290.369,0v48.4h48.395V1130Zm-145.184,0v48.4h48.395V1130Zm-338.764,0v48.4h48.395V1130Zm1645.421-48.4V1130h48.395v-48.4Zm-290.368-38.722V1130h48.395v-87.12ZM2037.921,1081.6V1130h48.395v-48.4Zm-96.79,0V1130h48.395v-48.4Zm-387.157,0V1130h48.395v-48.4Zm-96.79,0V1130h48.395v-48.4Zm629.131,0h48.395v-48.4h-48.395ZM1360.4,984.8v96.8h48.395V984.8Zm1306.658,0v48.4h48.395V984.8Zm-439.006,716.642h-37.062V1569.374h28.188c20.747,0,36.8,5.543,47.7,16.476,11.127,11.162,16.769,27.836,16.769,49.558,0,11.219-1.4,21.247-4.171,29.806a54.892,54.892,0,0,1-11.587,20.533,46.228,46.228,0,0,1-17.6,11.872A61.819,61.819,0,0,1,2228.047,1701.441Zm636.318-42.282h-57.681l22.968-62.379c1.6-4.346,3.343-10.069,5.481-18.009h.522c2.137,7.936,3.878,13.659,5.481,18.009Zm-1394.523-22.446h-24.8v-67.339h27.144c13.061,0,23.115,2.821,29.884,8.385,6.841,5.624,10.31,14.043,10.31,25.024a32.391,32.391,0,0,1-3.234,14.55,30.1,30.1,0,0,1-8.935,10.636,40.924,40.924,0,0,1-13.486,6.525A61.438,61.438,0,0,1,1469.842,1636.713ZM2812.237,936.4h-48.395V839.6h-48.4V791.2h-48.4V742.8h48.395v48.4h48.395v48.4h48.395V791.2h48.395V888h-48.395v48.4ZM3151,888h-48.395V839.6H3054.21V791.2h-48.394V742.8h48.394v48.4h48.395v48.4H3151V888Zm-435.552,0h-96.79V839.6h-48.395V791.2h-48.395V742.8h-48.395V597.6h48.395V742.8h48.395v48.4h48.395v48.4h33.876v12.1h48.395V839.6h14.519V888Zm-919.5,0h-48.394V791.2h48.394V888Zm1209.868-48.4h-48.394V791.2h-48.4V742.8h-48.4V694.4h48.395v48.4h48.395v48.4h48.394v48.4Zm-1113.079,0h-48.395V791.2h-48.394V742.8h48.394v48.4h48.395v48.4ZM3151,791.2h-48.395V742.8H3054.21V646h48.395V597.6H3151V646h-48.395v96.8H3151v48.4Zm-1451.841,0h-48.395V742.8h-48.395V646h-48.395V597.6h48.395V646h48.395v96.8h48.395v48.4Zm1306.657-48.4h-48.394V694.4l-48.4,0V646h48.395v48.4h48.394v48.4Zm-193.578,0h-48.395V694.4l-48.4,0V646h48.395v48.4h48.395v48.4Zm-193.579,0h-48.395V694.4h48.395v48.4Zm-822.71,0h-48.394V694.4h48.394v48.4Zm629.133-48.4h0l-48.394,0V646l-48.4,0V597.6h48.4V646h48.394v48.4Zm241.972,0h-48.4V646h-48.395V597.6h48.4V646h48.4v48.4Zm-483.947,0h-48.395V646h-48.395V597.6h48.395V646h48.395v48.4Zm822.71-48.4h-48.394V597.6h48.394V646Zm-145.184,0h-48.395V597.6h48.395V549.2h48.4v48.4h-48.395V646Zm-919.5,0h-48.395V549.2h48.395V646Zm1113.079-48.4h-48.395V549.2h48.394v48.4Zm-338.763,0h-48.395V549.2h48.395v48.4Zm-290.369,0h-48.394V549.2h48.394v48.4Zm-241.973,0h-48.395V549.2h-48.395V500.8h48.4v48.4h48.395v48.4Zm-387.158,0h-48.394V549.2h48.394v48.4Zm-145.184,0h-48.395V549.2h-48.395V500.8h48.395v48.4h48.395v48.4Zm-145.184,0h-48.395V549.2h-48.4V452.4h48.4v96.8h48.395v48.4Zm-145.185,0H1312V549.2H1360.4v48.4ZM3151,549.2h-48.395V452.4H3151v96.8Zm-145.184,0h-48.394V500.8h48.394v48.4Zm-387.158,0h-48.395V500.8h48.4v48.4Zm-338.763,0H2231.5V500.8H2279.9v48.4Zm483.947-48.4h-48.395V452.4h48.395v48.4Zm-96.79,0h-48.4V452.4h48.4v48.4Zm-145.185,0h-48.395V452.4h48.395v48.4Zm-145.183,0h-48.4V452.4h48.4v48.4Zm-338.764,0h-48.395V452.4h48.395v48.4Zm-96.79,0h-48.395V404h48.395v96.8Zm-145.184,0h-48.394V452.4h48.394v48.4ZM3054.21,452.4h-48.394V404h48.394v48.4Zm-145.184,0h-48.395V404h48.395v48.4Zm-483.948,0h-48.394V404h48.394v48.4Zm-145.184,0H2231.5V355.6H2279.9v96.8Zm-96.79,0h-48.395V404h48.395v48.4Zm-532.342,0h-48.395V404h48.395v48.4Zm-290.369,0H1312V404H1360.4v48.4ZM2763.843,404h-48.395V355.6h48.395V404Zm-241.974,0h-48.395V355.6h48.395V404Zm-483.947,0h-48.395V355.6h48.395V404Zm-241.974,0h-48.394V355.6h48.394V404Zm-241.972,0h-48.4V355.6h48.395V404Zm-96.79,0h-48.4V355.6h48.4V404ZM3054.21,355.6h-48.394V307.2h48.394v48.4Zm-145.184,0h-48.395V307.2h48.395v48.4Zm-290.369,0h-48.395V307.2h48.395v48.4Zm-241.973,0h-48.4V307.2h48.4v48.4Zm-241.974,0h-48.395V307.2h48.395v48.4Zm-241.974,0h-48.395V307.2h48.395v48.4Zm-241.973-48.4h-48.395V258.8h48.395v48.4Zm822.71-48.4h-48.395V210.4h48.395v48.4Zm-483.947,0h-48.395V210.4h48.395v48.4Zm-532.342,0h-48.4V210.4h48.4v48.4Zm1258.263-48.4h-48.395V162h48.395v48.4Zm-435.552,0H2231.5V162H2279.9v48.4Z" transform="translate(1588 98)" fill="#f59719"/>
      <path id="Subtraction_39" data-name="Subtraction 39" d="M1322,401c-3.327,0-6.692-.128-10-.381v-24.61A129.6,129.6,0,0,0,1421.491,281H1451v6.179c-.418,3.37-.97,6.741-1.642,10.02a129.268,129.268,0,0,1-19.561,46.485,130.376,130.376,0,0,1-57.2,47.1,129.442,129.442,0,0,1-24.4,7.575A130.966,130.966,0,0,1,1322,401Z" transform="translate(3288 1553)" fill="#f59719"/>
    </g>
    <path id="Polygon_1" data-name="Polygon 1" d="M160,0,320,160H0Z" transform="translate(3200 2960)" fill="#f59719"/>
  </g>
</svg>
