<svg xmlns="http://www.w3.org/2000/svg" width="100%" height="100%" viewBox="0 0 169.194 54.253"><path d="M74.46,324.75H32.184a5.8,5.8,0,0,0-5.784,5.829v42.6A5.807,5.807,0,0,0,32.184,379H74.46a5.807,5.807,0,0,0,5.784-5.829v-42.6a5.8,5.8,0,0,0-5.784-5.827Zm3.921,48.5a3.862,3.862,0,0,1-3.847,3.876H32.112a3.832,3.832,0,0,1-2.723-1.135,3.892,3.892,0,0,1-1.127-2.743V330.5a3.862,3.862,0,0,1,3.847-3.876H74.532a3.862,3.862,0,0,1,3.847,3.876Z" transform="translate(-26.4 -324.75)" fill="#fff" opacity="0.5"/><path d="M83.27,335.35H40.85a3.832,3.832,0,0,0-2.723,1.135A3.891,3.891,0,0,0,37,339.228v42.743a3.862,3.862,0,0,0,3.847,3.876H83.27a3.862,3.862,0,0,0,3.847-3.876V339.228A3.862,3.862,0,0,0,83.27,335.35Zm-4.16,41.518c-.193,1.988-.787,3.717-2.986,4.271a5.348,5.348,0,0,1-6.022-2.232q-5.749-8.609-11.479-17.245-2.356-3.54-4.715-7.07c-.176-.257-.364-.5-.546-.75l-.32.064v1.335q.009,10.387.014,20.773a13.679,13.679,0,0,1-.09,2.02,3.732,3.732,0,0,1-3.9,3.3c-2.2-.135-3.647-1.77-3.654-4.276-.023-6.854,0-13.707,0-20.559,0-3.836-.03-7.67.021-11.505.047-3.607,2.849-5.953,6.1-4.887A6.58,6.58,0,0,1,54.6,342.66c5.342,7.965,10.568,16.017,15.834,24.039.281.428.585.844,1.11,1.593.039-.8.074-1.2.074-1.593q.012-10.919.023-21.839a9.589,9.589,0,0,1,.211-2.211,3.405,3.405,0,0,1,3.594-2.811,3.491,3.491,0,0,1,3.513,3.066,13.667,13.667,0,0,1,.2,2.328q.033,14.967.033,29.935C79.2,375.737,79.158,376.305,79.111,376.868Z" transform="translate(-35.138 -333.474)" fill="#fff"/><path d="M402.8,324.75H360.524a5.807,5.807,0,0,0-5.784,5.829v42.6A5.807,5.807,0,0,0,360.524,379H402.8a5.807,5.807,0,0,0,5.784-5.829v-42.6a5.8,5.8,0,0,0-5.784-5.827Zm3.921,48.5a3.862,3.862,0,0,1-3.847,3.876h-42.42a3.862,3.862,0,0,1-3.847-3.876V330.5a3.862,3.862,0,0,1,3.847-3.876H402.87a3.862,3.862,0,0,1,3.847,3.876Z" transform="translate(-297.064 -324.75)" fill="#fff" opacity="0.5"/><path d="M470.859,491.23c-4.054-.379-8.145-.365-12.222-.45-.216,0-.625.6-.639.936-.065,1.7-.03,3.407-.03,5.112h0c0,1.669.04,3.34-.016,5.007-.03.94.334,1.239,1.23,1.239,2.747-.037,5.5.044,8.245-.034a10.178,10.178,0,0,0,6.034-1.607c2.1-1.556,2.4-3.781,1.98-6.121A4.824,4.824,0,0,0,470.859,491.23Z" transform="translate(-382.145 -461.392)" fill="#fff"/><path d="M458.955,406.586c1.479-.032,2.962-.009,4.441-.009v-.035c1.128,0,2.261.058,3.383-.016a17.546,17.546,0,0,0,3.436-.462,5.185,5.185,0,0,0,3.677-5.241c-.083-2.637-1.114-4.207-3.826-4.538-3.792-.462-7.643-.464-11.471-.595-.223,0-.664.588-.671.908-.053,2.982-.012,5.967-.044,8.951C457.878,406.365,458.214,406.6,458.955,406.586Z" transform="translate(-382.087 -383.133)" fill="#fff"/><path d="M411.625,335.35H369.207a3.862,3.862,0,0,0-3.847,3.876v42.745a3.862,3.862,0,0,0,3.847,3.876h42.418a3.862,3.862,0,0,0,3.847-3.876V339.228A3.862,3.862,0,0,0,411.625,335.35ZM407.363,372.1c-.878,4.089-3.318,7.036-7.378,8.123a36.545,36.545,0,0,1-8.019,1.083c-4.469.177-8.946.057-13.42.034a9.941,9.941,0,0,1-2.2-.269c-1.95-.457-2.942-2.005-2.944-4.584q0-11.181.018-22.363v-9.371c.012-3.2,1.21-4.8,4.332-4.829a188.623,188.623,0,0,1,19.3.43c7.3.69,11.11,9.45,6.961,15.328a18.463,18.463,0,0,1-3.171,2.908,7.59,7.59,0,0,1-1.024.651,36.17,36.17,0,0,1,4.492,2.731C407.543,364.621,408.191,368.23,407.363,372.1Z" transform="translate(-305.819 -333.474)" fill="#fff"/><path d="M731.13,324.75H688.854a5.8,5.8,0,0,0-5.784,5.829v42.6A5.807,5.807,0,0,0,688.854,379H731.13a5.807,5.807,0,0,0,5.784-5.829v-42.6A5.8,5.8,0,0,0,731.13,324.75Zm3.921,48.5a3.862,3.862,0,0,1-3.847,3.876H688.782a3.862,3.862,0,0,1-3.847-3.876V330.5a3.862,3.862,0,0,1,3.847-3.876H731.2a3.862,3.862,0,0,1,3.847,3.876Z" transform="translate(-567.72 -324.75)" fill="#fff" opacity="0.5"/><path d="M739.957,335.35h-42.42a3.862,3.862,0,0,0-3.847,3.876v42.745a3.862,3.862,0,0,0,3.847,3.876h42.42a3.862,3.862,0,0,0,3.847-3.876V339.228A3.862,3.862,0,0,0,739.957,335.35Zm-3.3,9.116c-.868,2.952-2.046,5.813-3.132,8.7q-4.42,11.744-8.871,23.476c-.878,2.349-2.182,4.165-4.889,4.6a5.583,5.583,0,0,1-6.276-3.211c-1.469-3.416-2.749-6.914-4.07-10.394q-3.984-10.487-7.922-20.993a18.247,18.247,0,0,1-.617-1.813,3.78,3.78,0,0,1,2.3-4.673c2.089-.8,4.182-.159,4.985,1.853,1.509,3.783,2.824,7.643,4.177,11.488,2.024,5.751,4.007,11.516,6.013,17.274.121.354.3.68.583,1.338,2-5.723,3.865-11.075,5.725-16.426,1.472-4.216,2.937-8.436,4.434-12.643.553-1.556,1.34-2.864,3.209-3.151a3.744,3.744,0,0,1,4.353,4.577Z" transform="translate(-576.475 -333.474)" fill="#fff"/></svg>