<svg xmlns="http://www.w3.org/2000/svg" width="100%" height="100%" viewBox="0 0 80.046 86.634"><path d="M238.573,109.54c-28.153,0-40.023,3.082-40.023,3.082v43.472c0,33.605,40.023,40.079,40.023,40.079S278.6,189.7,278.6,156.094V112.624S266.38,109.54,238.573,109.54ZM228.4,133.9v20.656h-5.432l-7.8-15.107v15.107h-4.4V133.587h5.088L223.994,149V133.587H228.4Zm18.315,3.082h-5.088v17.573h-5.087V136.979h-5.432v-3.392h15.607Zm19.667,10.174c0,4.938-3.052,7.707-8.479,7.707s-8.479-2.774-8.479-7.707V133.587h5.088v13.565c0,3.7,1.357,4.316,3.731,4.316,2.036,0,3.392-.616,3.392-4.316V133.587h4.747Z" transform="translate(-198.55 -109.54)" fill="#fff"/></svg>